<?xml version="1.0" encoding="UTF-8"?>
<!DOCTYPE svg PUBLIC "-//W3C//DTD SVG 1.1//EN" "http://www.w3.org/Graphics/SVG/1.1/DTD/svg11.dtd">
<svg version="1.1" xmlns="http://www.w3.org/2000/svg" xmlns:xlink="http://www.w3.org/1999/xlink" x="0" y="0" width="32.618" height="32.618" viewBox="0, 0, 93.193, 93.193">
  <g id="Layer_1" transform="translate(-244.985, -243.067)">
    <path d="M291.582,336.261 C265.847,336.261 244.985,315.399 244.985,289.664 C244.985,263.929 265.847,243.067 291.582,243.067 C317.317,243.067 338.179,263.929 338.179,289.664 C338.179,315.399 317.317,336.261 291.582,336.261 z" fill="#261C15"/>
    <path d="M288.362,308.216 C282.839,308.216 278.362,303.738 278.362,298.216 C278.362,292.693 282.839,288.216 288.362,288.216 C293.885,288.216 298.362,292.693 298.362,298.216 C298.362,303.738 293.885,308.216 288.362,308.216 z" fill="#F7F7F2"/>
    <path d="M301.672,328.216 C296.149,328.216 291.672,323.738 291.672,318.216 C291.672,312.693 296.149,308.216 301.672,308.216 C307.195,308.216 311.672,312.693 311.672,318.216 C311.672,323.738 307.195,328.216 301.672,328.216 z" fill="#F7F7F2"/>
    <path d="M291.263,269.216 C285.74,269.216 281.263,264.738 281.263,259.216 C281.263,253.693 285.74,249.216 291.263,249.216 C296.786,249.216 301.263,253.693 301.263,259.216 C301.263,264.738 296.786,269.216 291.263,269.216 z" fill="#01B636"/>
    <path d="M275.61,288.216 C270.087,288.216 265.61,283.738 265.61,278.216 C265.61,272.693 270.087,268.216 275.61,268.216 C281.133,268.216 285.61,272.693 285.61,278.216 C285.61,283.738 281.133,288.216 275.61,288.216 z" fill="#F7F7F2"/>
  </g>
</svg>
