<?xml version="1.0" encoding="UTF-8"?>
<!DOCTYPE svg PUBLIC "-//W3C//DTD SVG 1.1//EN" "http://www.w3.org/Graphics/SVG/1.1/DTD/svg11.dtd">
<svg version="1.1" xmlns="http://www.w3.org/2000/svg" xmlns:xlink="http://www.w3.org/1999/xlink" x="0" y="0" width="722.836" height="433.082" viewBox="0, 0, 722.836, 433.082">
  <defs>
    <linearGradient id="Gradient_1" gradientUnits="userSpaceOnUse" x1="212.035" y1="467.385" x2="273.746" y2="467.385">
      <stop offset="0" stop-color="#BAC4C8"/>
      <stop offset="0.49" stop-color="#CDDADF"/>
      <stop offset="1" stop-color="#BAC4C8"/>
    </linearGradient>
    <linearGradient id="Gradient_2" gradientUnits="userSpaceOnUse" x1="590.082" y1="467.385" x2="651.793" y2="467.385">
      <stop offset="0" stop-color="#B87333"/>
      <stop offset="0.49" stop-color="#DD8E45"/>
      <stop offset="1" stop-color="#B87333"/>
    </linearGradient>
  </defs>
  <g id="Layer_1" transform="translate(-69.996, -214.897)">
    <g>
      <path d="M71.496,216.397 L792.332,216.397 L792.332,647.332 L71.496,647.332 L71.496,216.397 z" fill="#F7F7F2"/>
      <path d="M71.496,216.397 L792.332,216.397 L792.332,647.332 L71.496,647.332 L71.496,216.397 z" fill-opacity="0" stroke="#000000" stroke-width="1"/>
    </g>
    <g>
      <path d="M262.03,269.885 L297.817,269.885" fill-opacity="0" stroke="#000000" stroke-width="1"/>
      <path d="M297.817,272.885 L305.817,269.885 L297.817,266.885 z" fill="#000000" fill-opacity="1" stroke="#000000" stroke-width="1" stroke-opacity="1"/>
    </g>
    <path d="M70.996,396.106 L413.785,396.106 L413.785,646.832 L70.996,646.832 L70.996,396.106 z" fill="#E9E7E4"/>
    <g>
      <path d="M414.285,353.513 L449.543,353.513 L449.543,647.332 L414.285,647.332 L414.285,353.513 z" fill="#E7B987"/>
      <path d="M414.285,353.513 L449.543,353.513 L449.543,647.332 L414.285,647.332 L414.285,353.513 z" fill-opacity="0" stroke="#000000" stroke-width="1"/>
    </g>
    <path d="M449.043,396.106 L791.832,396.106 L791.832,646.832 L449.043,646.832 L449.043,396.106 z" fill="#4599EE"/>
    <path d="M431.961,216.397 L431.961,243.124" fill-opacity="0" stroke="#000000" stroke-width="1" stroke-dasharray="2,2"/>
    <g>
      <path d="M448.543,278.782 L425.085,278.782" fill-opacity="0" stroke="#000000" stroke-width="2"/>
      <path d="M425.085,275.182 L415.485,278.782 L425.085,282.382 z" fill="#000000" fill-opacity="1" stroke="#000000" stroke-width="2" stroke-opacity="1"/>
    </g>
    <path d="M71.496,396.606 L71.496,647.332" fill-opacity="0" stroke="#000000" stroke-width="1"/>
    <path d="M449.543,396.754 L449.543,647.48" fill-opacity="0" stroke="#000000" stroke-width="1"/>
    <path d="M71.496,647.332 L414.285,647.332" fill-opacity="0" stroke="#000000" stroke-width="1"/>
    <path d="M792.332,647.332 L449.543,647.48" fill-opacity="0" stroke="#000000" stroke-width="1"/>
    <path d="M792.332,396.754 L792.332,647.48" fill-opacity="0" stroke="#000000" stroke-width="1"/>
    <g>
      <path d="M212.035,364.339 L273.746,364.339 L273.746,570.431 L212.035,570.431 L212.035,364.339 z" fill="url(#Gradient_1)"/>
      <path d="M212.035,364.339 L273.746,364.339 L273.746,570.431 L212.035,570.431 L212.035,364.339 z" fill-opacity="0" stroke="#000000" stroke-width="1"/>
    </g>
    <g>
      <path d="M590.082,364.339 L651.793,364.339 L651.793,570.431 L590.082,570.431 L590.082,364.339 z" fill="url(#Gradient_2)"/>
      <path d="M590.082,364.339 L651.793,364.339 L651.793,570.431 L590.082,570.431 L590.082,364.339 z" fill-opacity="0" stroke="#000000" stroke-width="1"/>
    </g>
    <path d="M431.914,307.891 C415.837,307.891 402.805,294.859 402.805,278.782 C402.805,262.706 415.837,249.673 431.914,249.673 C447.99,249.673 461.023,262.706 461.023,278.782 C461.023,294.859 447.99,307.891 431.914,307.891 z" fill-opacity="0" stroke="#000000" stroke-width="2"/>
    <path d="M402.805,278.782 L242.89,278.782 L242.89,364.339" fill-opacity="0" stroke="#000000" stroke-width="2"/>
    <path d="M461.023,278.782 L620.937,278.782 L620.937,364.339" fill-opacity="0" stroke="#000000" stroke-width="2"/>
    <path d="M224.497,472.018 L233.615,472.018 L233.615,474.385 L220.911,474.385 L220.911,472.463 L229.736,459.713 L220.97,459.713 L220.97,457.322 L233.333,457.322 L233.333,459.197 z" fill="#261B15"/>
    <path d="M238.525,461.705 L238.607,463.17 Q240.013,461.471 242.298,461.471 Q246.259,461.471 246.329,466.006 L246.329,474.385 L243.482,474.385 L243.482,466.17 Q243.482,464.963 242.96,464.383 Q242.439,463.803 241.255,463.803 Q239.533,463.803 238.689,465.362 L238.689,474.385 L235.841,474.385 L235.841,461.705 z" fill="#261B15"/>
    <path d="M612.009,468.83 Q611.751,471.561 609.994,473.09 Q608.236,474.619 605.318,474.619 Q603.279,474.619 601.726,473.653 Q600.173,472.686 599.329,470.904 Q598.486,469.123 598.451,466.768 L598.451,465.174 Q598.451,462.76 599.306,460.92 Q600.161,459.08 601.761,458.084 Q603.361,457.088 605.458,457.088 Q608.283,457.088 610.005,458.623 Q611.728,460.158 612.009,462.959 L609.056,462.959 Q608.845,461.119 607.984,460.305 Q607.122,459.49 605.458,459.49 Q603.525,459.49 602.488,460.903 Q601.451,462.315 601.427,465.045 L601.427,466.557 Q601.427,469.322 602.417,470.776 Q603.408,472.229 605.318,472.229 Q607.064,472.229 607.943,471.444 Q608.822,470.658 609.056,468.83 z" fill="#261B15"/>
    <path d="M622.064,473.143 Q620.81,474.619 618.501,474.619 Q616.439,474.619 615.378,473.412 Q614.318,472.205 614.318,469.92 L614.318,461.705 L617.165,461.705 L617.165,469.885 Q617.165,472.299 619.169,472.299 Q621.244,472.299 621.97,470.811 L621.97,461.705 L624.818,461.705 L624.818,474.385 L622.134,474.385 z" fill="#261B15"/>
    <path d="M248.771,471.76 Q248.771,469.955 249.255,468.334 Q249.74,466.713 250.677,465.436 Q251.615,464.158 252.661,463.643 L253.036,464.752 Q251.935,465.588 251.251,467.303 Q250.568,469.018 250.505,471.229 L250.497,471.901 Q250.497,474.268 251.165,476.123 Q251.833,477.979 253.036,478.947 L252.661,480.002 Q251.615,479.487 250.673,478.201 Q249.732,476.916 249.251,475.303 Q248.771,473.69 248.771,471.76 z" fill="#261B15"/>
    <path d="M259.06,474.088 Q259.06,473.58 258.642,473.315 Q258.224,473.049 257.255,472.846 Q256.286,472.643 255.638,472.33 Q254.216,471.643 254.216,470.338 Q254.216,469.244 255.138,468.51 Q256.06,467.776 257.482,467.776 Q258.997,467.776 259.931,468.526 Q260.865,469.276 260.865,470.471 L258.966,470.471 Q258.966,469.924 258.56,469.561 Q258.154,469.197 257.482,469.197 Q256.857,469.197 256.462,469.487 Q256.068,469.776 256.068,470.26 Q256.068,470.697 256.435,470.94 Q256.802,471.182 257.919,471.428 Q259.036,471.674 259.673,472.014 Q260.31,472.354 260.618,472.83 Q260.927,473.307 260.927,473.987 Q260.927,475.127 259.982,475.834 Q259.036,476.541 257.505,476.541 Q256.466,476.541 255.654,476.166 Q254.841,475.791 254.388,475.135 Q253.935,474.479 253.935,473.721 L255.779,473.721 Q255.818,474.393 256.286,474.756 Q256.755,475.119 257.529,475.119 Q258.279,475.119 258.669,474.834 Q259.06,474.549 259.06,474.088 z" fill="#261B15"/>
    <path d="M266.24,471.885 Q266.24,473.619 265.763,475.233 Q265.286,476.846 264.318,478.17 Q263.349,479.494 262.294,480.002 L261.919,478.947 Q263.091,478.041 263.775,476.178 Q264.458,474.315 264.458,471.924 L264.458,471.744 Q264.458,469.572 263.865,467.787 Q263.271,466.002 262.161,464.924 L261.919,464.705 L262.294,463.643 Q263.294,464.127 264.232,465.362 Q265.169,466.596 265.669,468.123 Q266.169,469.651 266.232,471.276 z" fill="#261B15"/>
    <path d="M627.33,471.76 Q627.33,469.955 627.814,468.334 Q628.299,466.713 629.236,465.436 Q630.174,464.158 631.221,463.643 L631.596,464.752 Q630.494,465.588 629.811,467.303 Q629.127,469.018 629.064,471.229 L629.057,471.901 Q629.057,474.268 629.725,476.123 Q630.393,477.979 631.596,478.947 L631.221,480.002 Q630.174,479.487 629.232,478.201 Q628.291,476.916 627.811,475.303 Q627.33,473.69 627.33,471.76 z" fill="#261B15"/>
    <path d="M637.619,474.088 Q637.619,473.58 637.201,473.315 Q636.783,473.049 635.814,472.846 Q634.846,472.643 634.197,472.33 Q632.775,471.643 632.775,470.338 Q632.775,469.244 633.697,468.51 Q634.619,467.776 636.041,467.776 Q637.557,467.776 638.49,468.526 Q639.424,469.276 639.424,470.471 L637.525,470.471 Q637.525,469.924 637.119,469.561 Q636.713,469.197 636.041,469.197 Q635.416,469.197 635.021,469.487 Q634.627,469.776 634.627,470.26 Q634.627,470.697 634.994,470.94 Q635.361,471.182 636.479,471.428 Q637.596,471.674 638.232,472.014 Q638.869,472.354 639.178,472.83 Q639.486,473.307 639.486,473.987 Q639.486,475.127 638.541,475.834 Q637.596,476.541 636.064,476.541 Q635.025,476.541 634.213,476.166 Q633.4,475.791 632.947,475.135 Q632.494,474.479 632.494,473.721 L634.338,473.721 Q634.377,474.393 634.846,474.756 Q635.314,475.119 636.088,475.119 Q636.838,475.119 637.229,474.834 Q637.619,474.549 637.619,474.088 z" fill="#261B15"/>
    <path d="M644.799,471.885 Q644.799,473.619 644.322,475.233 Q643.846,476.846 642.877,478.17 Q641.908,479.494 640.854,480.002 L640.479,478.947 Q641.65,478.041 642.334,476.178 Q643.018,474.315 643.018,471.924 L643.018,471.744 Q643.018,469.572 642.424,467.787 Q641.83,466.002 640.721,464.924 L640.479,464.705 L640.854,463.643 Q641.854,464.127 642.791,465.362 Q643.729,466.596 644.229,468.123 Q644.729,469.651 644.791,471.276 z" fill="#261B15"/>
    <path d="M225.296,359.57 C217.972,359.57 212.035,353.633 212.035,346.309 C212.035,338.984 217.972,333.047 225.296,333.047 C232.62,333.047 238.557,338.984 238.557,346.309 C238.557,353.633 232.62,359.57 225.296,359.57 z" fill-opacity="0" stroke="#067999" stroke-width="1"/>
    <path d="M230.569,346.68 L218.827,346.68 L218.827,344.91 L230.569,344.91 z" fill="#067999"/>
    <path d="M603.343,360.57 C596.019,360.57 590.082,354.633 590.082,347.309 C590.082,339.984 596.019,334.047 603.343,334.047 C610.667,334.047 616.605,339.984 616.605,347.309 C616.605,354.633 610.667,360.57 603.343,360.57 z" fill-opacity="0" stroke="#F62301" stroke-width="1"/>
    <path d="M603.892,345.156 L608.65,345.156 L608.65,347.207 L603.892,347.207 L603.892,352.598 L601.712,352.598 L601.712,347.207 L596.955,347.207 L596.955,345.156 L601.712,345.156 L601.712,340.176 L603.892,340.176 z" fill="#F62301"/>
    <g>
      <path d="M489.745,269.885 L525.531,269.885" fill-opacity="0" stroke="#000000" stroke-width="1"/>
      <path d="M525.531,272.885 L533.531,269.885 L525.531,266.885 z" fill="#000000" fill-opacity="1" stroke="#000000" stroke-width="1" stroke-opacity="1"/>
    </g>
    <path d="M280.29,264.859 Q277.583,264.859 275.902,263.154 Q274.22,261.448 274.22,258.613 L274.22,258.261 Q274.22,256.363 274.952,254.868 Q275.685,253.374 277.009,252.542 Q278.333,251.71 279.962,251.71 Q282.552,251.71 283.964,253.363 Q285.376,255.015 285.376,258.038 L285.376,259.187 L277.091,259.187 Q277.22,260.757 278.14,261.671 Q279.06,262.585 280.454,262.585 Q282.411,262.585 283.642,261.003 L285.177,262.468 Q284.415,263.605 283.144,264.232 Q281.872,264.859 280.29,264.859 z M279.951,253.995 Q278.779,253.995 278.058,254.816 Q277.337,255.636 277.138,257.101 L282.564,257.101 L282.564,256.89 Q282.47,255.46 281.802,254.728 Q281.134,253.995 279.951,253.995 z" fill="#261B15"/>
    <path d="M290.955,253.554 L286.853,253.554 L286.853,252.023 L290.955,252.023 z" fill="#261B15"/>
    <path d="M507.188,264.859 Q504.481,264.859 502.8,263.154 Q501.118,261.448 501.118,258.613 L501.118,258.261 Q501.118,256.363 501.85,254.868 Q502.583,253.374 503.907,252.542 Q505.231,251.71 506.86,251.71 Q509.45,251.71 510.862,253.363 Q512.274,255.015 512.274,258.038 L512.274,259.187 L503.989,259.187 Q504.118,260.757 505.038,261.671 Q505.958,262.585 507.352,262.585 Q509.309,262.585 510.54,261.003 L512.075,262.468 Q511.313,263.605 510.042,264.232 Q508.77,264.859 507.188,264.859 z M506.848,253.995 Q505.676,253.995 504.956,254.816 Q504.235,255.636 504.036,257.101 L509.462,257.101 L509.462,256.89 Q509.368,255.46 508.7,254.728 Q508.032,253.995 506.848,253.995 z" fill="#261B15"/>
    <path d="M517.853,253.554 L513.751,253.554 L513.751,252.023 L517.853,252.023 z" fill="#261B15"/>
    <path d="M82.842,630.256 L91.959,630.256 L91.959,632.624 L79.256,632.624 L79.256,630.702 L88.08,617.952 L79.314,617.952 L79.314,615.561 L91.678,615.561 L91.678,617.436 z" fill="#261B15"/>
    <path d="M96.869,619.944 L96.951,621.409 Q98.357,619.71 100.642,619.71 Q104.603,619.71 104.674,624.245 L104.674,632.624 L101.826,632.624 L101.826,624.409 Q101.826,623.202 101.304,622.622 Q100.783,622.042 99.599,622.042 Q97.877,622.042 97.033,623.6 L97.033,632.624 L94.185,632.624 L94.185,619.944 z" fill="#261B15"/>
    <path d="M116.767,628.229 Q116.767,627.104 115.976,626.495 Q115.185,625.885 113.123,625.264 Q111.06,624.643 109.842,623.881 Q107.51,622.417 107.51,620.061 Q107.51,617.999 109.191,616.663 Q110.873,615.327 113.556,615.327 Q115.338,615.327 116.732,615.983 Q118.127,616.639 118.924,617.852 Q119.721,619.065 119.721,620.542 L116.767,620.542 Q116.767,619.206 115.929,618.45 Q115.092,617.694 113.533,617.694 Q112.08,617.694 111.277,618.315 Q110.474,618.936 110.474,620.049 Q110.474,620.987 111.342,621.614 Q112.209,622.241 114.201,622.833 Q116.193,623.424 117.4,624.18 Q118.607,624.936 119.17,625.915 Q119.732,626.893 119.732,628.206 Q119.732,630.338 118.097,631.598 Q116.463,632.858 113.662,632.858 Q111.81,632.858 110.258,632.172 Q108.705,631.487 107.844,630.28 Q106.982,629.073 106.982,627.467 L109.947,627.467 Q109.947,628.92 110.908,629.717 Q111.869,630.514 113.662,630.514 Q115.209,630.514 115.988,629.887 Q116.767,629.26 116.767,628.229 z" fill="#261B15"/>
    <path d="M135.951,624.538 Q135.951,627.045 135.084,628.938 Q134.217,630.831 132.605,631.844 Q130.994,632.858 128.896,632.858 Q126.822,632.858 125.199,631.844 Q123.576,630.831 122.691,628.956 Q121.806,627.081 121.795,624.631 L121.795,623.67 Q121.795,621.174 122.679,619.264 Q123.564,617.354 125.176,616.34 Q126.787,615.327 128.873,615.327 Q130.959,615.327 132.57,616.329 Q134.181,617.331 135.06,619.211 Q135.939,621.092 135.951,623.588 z M132.986,623.647 Q132.986,620.811 131.914,619.299 Q130.842,617.788 128.873,617.788 Q126.951,617.788 125.867,619.294 Q124.783,620.799 124.76,623.553 L124.76,624.538 Q124.76,627.35 125.855,628.885 Q126.951,630.42 128.896,630.42 Q130.865,630.42 131.926,628.92 Q132.986,627.42 132.986,624.538 z" fill="#261B15"/>
    <path d="M143.127,632.308 L144.541,632.308 L144.541,633.831 L143.127,633.831 L143.127,636.362 L141.229,636.362 L141.229,633.831 L136.315,633.831 L136.26,632.675 L141.166,624.987 L143.127,624.987 z M138.252,632.308 L141.229,632.308 L141.229,627.558 L141.088,627.808 z" fill="#261B15"/>
    <path d="M148.616,631.737 Q148.616,629.933 149.1,628.312 Q149.584,626.69 150.522,625.413 Q151.459,624.136 152.506,623.62 L152.881,624.729 Q151.78,625.565 151.096,627.28 Q150.412,628.995 150.35,631.206 L150.342,631.878 Q150.342,634.245 151.01,636.101 Q151.678,637.956 152.881,638.925 L152.506,639.979 Q151.459,639.464 150.518,638.179 Q149.577,636.894 149.096,635.28 Q148.616,633.667 148.616,631.737 z" fill="#261B15"/>
    <path d="M159.217,636.362 Q159.092,636.12 158.998,635.573 Q158.092,636.519 156.78,636.519 Q155.506,636.519 154.702,635.792 Q153.897,635.065 153.897,633.995 Q153.897,632.644 154.901,631.921 Q155.905,631.198 157.772,631.198 L158.936,631.198 L158.936,630.644 Q158.936,629.987 158.569,629.593 Q158.202,629.198 157.452,629.198 Q156.803,629.198 156.389,629.522 Q155.975,629.847 155.975,630.347 L154.077,630.347 Q154.077,629.651 154.537,629.046 Q154.998,628.44 155.791,628.097 Q156.584,627.753 157.561,627.753 Q159.045,627.753 159.928,628.499 Q160.811,629.245 160.834,630.597 L160.834,634.409 Q160.834,635.55 161.155,636.229 L161.155,636.362 z M157.131,634.995 Q157.694,634.995 158.19,634.722 Q158.686,634.448 158.936,633.987 L158.936,632.394 L157.912,632.394 Q156.858,632.394 156.327,632.761 Q155.795,633.128 155.795,633.8 Q155.795,634.347 156.159,634.671 Q156.522,634.995 157.131,634.995 z" fill="#261B15"/>
    <path d="M162.467,632.065 Q162.467,630.081 163.373,628.917 Q164.28,627.753 165.827,627.753 Q167.241,627.753 168.069,628.745 L168.178,627.909 L169.866,627.909 L169.866,639.612 L167.967,639.612 L167.967,635.644 Q167.139,636.519 165.811,636.519 Q164.295,636.519 163.381,635.335 Q162.467,634.151 162.467,632.065 z M164.366,632.229 Q164.366,633.526 164.877,634.265 Q165.389,635.003 166.295,635.003 Q167.42,635.003 167.967,634.042 L167.967,630.198 Q167.42,629.276 166.311,629.276 Q165.405,629.276 164.885,630.003 Q164.366,630.729 164.366,632.229 z" fill="#261B15"/>
    <path d="M175.569,631.862 Q175.569,633.597 175.092,635.21 Q174.616,636.823 173.647,638.147 Q172.678,639.472 171.623,639.979 L171.248,638.925 Q172.42,638.019 173.104,636.155 Q173.787,634.292 173.787,631.901 L173.787,631.722 Q173.787,629.55 173.194,627.765 Q172.6,625.979 171.491,624.901 L171.248,624.683 L171.623,623.62 Q172.623,624.104 173.561,625.339 Q174.498,626.573 174.998,628.101 Q175.498,629.628 175.561,631.253 z" fill="#261B15"/>
    <path d="M701.939,627.069 Q701.682,629.799 699.924,631.329 Q698.166,632.858 695.248,632.858 Q693.209,632.858 691.656,631.891 Q690.103,630.924 689.26,629.143 Q688.416,627.362 688.381,625.006 L688.381,623.413 Q688.381,620.999 689.236,619.159 Q690.092,617.319 691.691,616.323 Q693.291,615.327 695.389,615.327 Q698.213,615.327 699.935,616.862 Q701.658,618.397 701.939,621.198 L698.986,621.198 Q698.775,619.358 697.914,618.544 Q697.053,617.729 695.389,617.729 Q693.455,617.729 692.418,619.141 Q691.381,620.553 691.357,623.284 L691.357,624.795 Q691.357,627.561 692.348,629.014 Q693.338,630.467 695.248,630.467 Q696.994,630.467 697.873,629.682 Q698.752,628.897 698.986,627.069 z" fill="#261B15"/>
    <path d="M711.994,631.381 Q710.74,632.858 708.432,632.858 Q706.369,632.858 705.308,631.651 Q704.248,630.444 704.248,628.159 L704.248,619.944 L707.096,619.944 L707.096,628.124 Q707.096,630.538 709.099,630.538 Q711.174,630.538 711.9,629.049 L711.9,619.944 L714.748,619.944 L714.748,632.624 L712.064,632.624 z" fill="#261B15"/>
    <path d="M726.842,628.229 Q726.842,627.104 726.051,626.495 Q725.26,625.885 723.197,625.264 Q721.135,624.643 719.916,623.881 Q717.584,622.417 717.584,620.061 Q717.584,617.999 719.266,616.663 Q720.947,615.327 723.631,615.327 Q725.412,615.327 726.807,615.983 Q728.201,616.639 728.998,617.852 Q729.795,619.065 729.795,620.542 L726.842,620.542 Q726.842,619.206 726.004,618.45 Q725.166,617.694 723.607,617.694 Q722.154,617.694 721.351,618.315 Q720.549,618.936 720.549,620.049 Q720.549,620.987 721.416,621.614 Q722.283,622.241 724.275,622.833 Q726.267,623.424 727.474,624.18 Q728.682,624.936 729.244,625.915 Q729.807,626.893 729.807,628.206 Q729.807,630.338 728.172,631.598 Q726.537,632.858 723.736,632.858 Q721.885,632.858 720.332,632.172 Q718.779,631.487 717.918,630.28 Q717.057,629.073 717.057,627.467 L720.021,627.467 Q720.021,628.92 720.982,629.717 Q721.943,630.514 723.736,630.514 Q725.283,630.514 726.062,629.887 Q726.842,629.26 726.842,628.229 z" fill="#261B15"/>
    <path d="M746.025,624.538 Q746.025,627.045 745.158,628.938 Q744.291,630.831 742.68,631.844 Q741.068,632.858 738.971,632.858 Q736.896,632.858 735.273,631.844 Q733.65,630.831 732.766,628.956 Q731.881,627.081 731.869,624.631 L731.869,623.67 Q731.869,621.174 732.754,619.264 Q733.639,617.354 735.25,616.34 Q736.861,615.327 738.947,615.327 Q741.033,615.327 742.644,616.329 Q744.256,617.331 745.135,619.211 Q746.014,621.092 746.025,623.588 z M743.06,623.647 Q743.06,620.811 741.988,619.299 Q740.916,617.788 738.947,617.788 Q737.025,617.788 735.941,619.294 Q734.857,620.799 734.834,623.553 L734.834,624.538 Q734.834,627.35 735.93,628.885 Q737.025,630.42 738.971,630.42 Q740.939,630.42 742,628.92 Q743.06,627.42 743.06,624.538 z" fill="#261B15"/>
    <path d="M751.995,632.308 L753.409,632.308 L753.409,633.831 L751.995,633.831 L751.995,636.362 L750.096,636.362 L750.096,633.831 L745.182,633.831 L745.127,632.675 L750.034,624.987 L751.995,624.987 z M747.12,632.308 L750.096,632.308 L750.096,627.558 L749.955,627.808 z" fill="#261B15"/>
    <path d="M757.483,631.737 Q757.483,629.933 757.967,628.312 Q758.452,626.69 759.389,625.413 Q760.327,624.136 761.373,623.62 L761.748,624.729 Q760.647,625.565 759.963,627.28 Q759.28,628.995 759.217,631.206 L759.209,631.878 Q759.209,634.245 759.877,636.101 Q760.545,637.956 761.748,638.925 L761.373,639.979 Q760.327,639.464 759.385,638.179 Q758.444,636.894 757.963,635.28 Q757.483,633.667 757.483,631.737 z" fill="#261B15"/>
    <path d="M768.084,636.362 Q767.959,636.12 767.866,635.573 Q766.959,636.519 765.647,636.519 Q764.373,636.519 763.569,635.792 Q762.764,635.065 762.764,633.995 Q762.764,632.644 763.768,631.921 Q764.772,631.198 766.639,631.198 L767.803,631.198 L767.803,630.644 Q767.803,629.987 767.436,629.593 Q767.069,629.198 766.319,629.198 Q765.67,629.198 765.256,629.522 Q764.842,629.847 764.842,630.347 L762.944,630.347 Q762.944,629.651 763.405,629.046 Q763.866,628.44 764.659,628.097 Q765.452,627.753 766.428,627.753 Q767.912,627.753 768.795,628.499 Q769.678,629.245 769.702,630.597 L769.702,634.409 Q769.702,635.55 770.022,636.229 L770.022,636.362 z M765.998,634.995 Q766.561,634.995 767.057,634.722 Q767.553,634.448 767.803,633.987 L767.803,632.394 L766.78,632.394 Q765.725,632.394 765.194,632.761 Q764.662,633.128 764.662,633.8 Q764.662,634.347 765.026,634.671 Q765.389,634.995 765.998,634.995 z" fill="#261B15"/>
    <path d="M771.334,632.065 Q771.334,630.081 772.241,628.917 Q773.147,627.753 774.694,627.753 Q776.108,627.753 776.936,628.745 L777.045,627.909 L778.733,627.909 L778.733,639.612 L776.834,639.612 L776.834,635.644 Q776.006,636.519 774.678,636.519 Q773.162,636.519 772.248,635.335 Q771.334,634.151 771.334,632.065 z M773.233,632.229 Q773.233,633.526 773.745,634.265 Q774.256,635.003 775.162,635.003 Q776.287,635.003 776.834,634.042 L776.834,630.198 Q776.287,629.276 775.178,629.276 Q774.272,629.276 773.752,630.003 Q773.233,630.729 773.233,632.229 z" fill="#261B15"/>
    <path d="M784.436,631.862 Q784.436,633.597 783.959,635.21 Q783.483,636.823 782.514,638.147 Q781.545,639.472 780.491,639.979 L780.116,638.925 Q781.287,638.019 781.971,636.155 Q782.655,634.292 782.655,631.901 L782.655,631.722 Q782.655,629.55 782.061,627.765 Q781.467,625.979 780.358,624.901 L780.116,624.683 L780.491,623.62 Q781.491,624.104 782.428,625.339 Q783.366,626.573 783.866,628.101 Q784.366,629.628 784.428,631.253 z" fill="#261B15"/>
    <g>
      <path d="M308.252,555.115 C289.647,550.393 273.804,529.343 273.747,509.024" fill-opacity="0" stroke="#000000" stroke-width="2"/>
      <path d="M308.038,558.708 L317.835,555.684 L308.465,551.521 z" fill="#000000" fill-opacity="1" stroke="#000000" stroke-width="2" stroke-opacity="1"/>
    </g>
    <g>
      <path d="M589.1,521.616 C584.367,540.217 563.307,556.047 542.988,556.092" fill-opacity="0" stroke="#000000" stroke-width="2"/>
      <path d="M592.693,521.831 L589.674,512.033 L585.506,521.4 z" fill="#000000" fill-opacity="1" stroke="#000000" stroke-width="2" stroke-opacity="1"/>
    </g>
    <path d="M323.977,560.564 L333.094,560.564 L333.094,562.931 L320.391,562.931 L320.391,561.009 L329.215,548.259 L320.449,548.259 L320.449,545.868 L332.813,545.868 L332.813,547.743 z" fill="#261B15"/>
    <path d="M338.004,550.251 L338.086,551.716 Q339.492,550.017 341.777,550.017 Q345.738,550.017 345.809,554.552 L345.809,562.931 L342.961,562.931 L342.961,554.716 Q342.961,553.509 342.44,552.929 Q341.918,552.349 340.734,552.349 Q339.012,552.349 338.168,553.907 L338.168,562.931 L335.32,562.931 L335.32,550.251 z" fill="#261B15"/>
    <path d="M363.254,560.306 Q363.254,558.501 363.738,556.88 Q364.223,555.259 365.16,553.982 Q366.098,552.704 367.145,552.189 L367.52,553.298 Q366.418,554.134 365.734,555.849 Q365.051,557.564 364.988,559.775 L364.98,560.446 Q364.98,562.814 365.648,564.669 Q366.316,566.525 367.52,567.493 L367.145,568.548 Q366.098,568.032 365.156,566.747 Q364.215,565.462 363.734,563.849 Q363.254,562.235 363.254,560.306 z" fill="#261B15"/>
    <path d="M373.855,564.931 Q373.73,564.689 373.637,564.142 Q372.73,565.087 371.418,565.087 Q370.145,565.087 369.34,564.36 Q368.535,563.634 368.535,562.564 Q368.535,561.212 369.539,560.489 Q370.543,559.767 372.41,559.767 L373.574,559.767 L373.574,559.212 Q373.574,558.556 373.207,558.161 Q372.84,557.767 372.09,557.767 Q371.441,557.767 371.027,558.091 Q370.613,558.415 370.613,558.915 L368.715,558.915 Q368.715,558.22 369.176,557.614 Q369.637,557.009 370.43,556.665 Q371.223,556.321 372.199,556.321 Q373.684,556.321 374.566,557.068 Q375.449,557.814 375.473,559.165 L375.473,562.978 Q375.473,564.118 375.793,564.798 L375.793,564.931 z M371.77,563.564 Q372.332,563.564 372.828,563.29 Q373.324,563.017 373.574,562.556 L373.574,560.962 L372.551,560.962 Q371.496,560.962 370.965,561.329 Q370.434,561.696 370.434,562.368 Q370.434,562.915 370.797,563.239 Q371.16,563.564 371.77,563.564 z" fill="#261B15"/>
    <path d="M377.105,560.634 Q377.105,558.65 378.012,557.485 Q378.918,556.321 380.465,556.321 Q381.879,556.321 382.707,557.314 L382.816,556.478 L384.504,556.478 L384.504,568.181 L382.605,568.181 L382.605,564.212 Q381.777,565.087 380.449,565.087 Q378.934,565.087 378.02,563.903 Q377.105,562.72 377.105,560.634 z M379.004,560.798 Q379.004,562.095 379.516,562.833 Q380.027,563.571 380.934,563.571 Q382.059,563.571 382.605,562.61 L382.605,558.767 Q382.059,557.845 380.949,557.845 Q380.043,557.845 379.523,558.571 Q379.004,559.298 379.004,560.798 z" fill="#261B15"/>
    <path d="M390.207,560.431 Q390.207,562.165 389.73,563.778 Q389.254,565.392 388.285,566.716 Q387.316,568.04 386.262,568.548 L385.887,567.493 Q387.059,566.587 387.742,564.724 Q388.426,562.86 388.426,560.47 L388.426,560.29 Q388.426,558.118 387.832,556.333 Q387.238,554.548 386.129,553.47 L385.887,553.251 L386.262,552.189 Q387.262,552.673 388.199,553.907 Q389.137,555.142 389.637,556.669 Q390.137,558.196 390.199,559.821 z" fill="#261B15"/>
    <path d="M482.013,557.376 Q481.755,560.107 479.997,561.636 Q478.239,563.165 475.321,563.165 Q473.282,563.165 471.73,562.198 Q470.177,561.232 469.333,559.45 Q468.489,557.669 468.454,555.314 L468.454,553.72 Q468.454,551.306 469.31,549.466 Q470.165,547.626 471.765,546.63 Q473.364,545.634 475.462,545.634 Q478.286,545.634 480.009,547.169 Q481.732,548.704 482.013,551.505 L479.06,551.505 Q478.849,549.665 477.987,548.851 Q477.126,548.036 475.462,548.036 Q473.528,548.036 472.491,549.448 Q471.454,550.861 471.431,553.591 L471.431,555.103 Q471.431,557.868 472.421,559.321 Q473.411,560.775 475.321,560.775 Q477.067,560.775 477.946,559.989 Q478.825,559.204 479.06,557.376 z" fill="#261B15"/>
    <path d="M492.067,561.689 Q490.814,563.165 488.505,563.165 Q486.442,563.165 485.382,561.958 Q484.321,560.751 484.321,558.466 L484.321,550.251 L487.169,550.251 L487.169,558.431 Q487.169,560.845 489.173,560.845 Q491.247,560.845 491.974,559.357 L491.974,550.251 L494.821,550.251 L494.821,562.931 L492.138,562.931 z" fill="#261B15"/>
    <path d="M513.056,560.306 Q513.056,558.501 513.54,556.88 Q514.024,555.259 514.962,553.982 Q515.899,552.704 516.946,552.189 L517.321,553.298 Q516.22,554.134 515.536,555.849 Q514.853,557.564 514.79,559.775 L514.782,560.446 Q514.782,562.814 515.45,564.669 Q516.118,566.525 517.321,567.493 L516.946,568.548 Q515.899,568.032 514.958,566.747 Q514.017,565.462 513.536,563.849 Q513.056,562.236 513.056,560.306 z" fill="#261B15"/>
    <path d="M523.657,564.931 Q523.532,564.689 523.439,564.142 Q522.532,565.087 521.22,565.087 Q519.946,565.087 519.142,564.361 Q518.337,563.634 518.337,562.564 Q518.337,561.212 519.341,560.489 Q520.345,559.767 522.212,559.767 L523.376,559.767 L523.376,559.212 Q523.376,558.556 523.009,558.161 Q522.642,557.767 521.892,557.767 Q521.243,557.767 520.829,558.091 Q520.415,558.415 520.415,558.915 L518.517,558.915 Q518.517,558.22 518.978,557.614 Q519.439,557.009 520.232,556.665 Q521.024,556.321 522.001,556.321 Q523.485,556.321 524.368,557.068 Q525.251,557.814 525.274,559.165 L525.274,562.978 Q525.274,564.118 525.595,564.798 L525.595,564.931 z M521.571,563.564 Q522.134,563.564 522.63,563.29 Q523.126,563.017 523.376,562.556 L523.376,560.962 L522.353,560.962 Q521.298,560.962 520.767,561.329 Q520.235,561.696 520.235,562.368 Q520.235,562.915 520.599,563.239 Q520.962,563.564 521.571,563.564 z" fill="#261B15"/>
    <path d="M526.907,560.634 Q526.907,558.65 527.814,557.486 Q528.72,556.321 530.267,556.321 Q531.681,556.321 532.509,557.314 L532.618,556.478 L534.306,556.478 L534.306,568.181 L532.407,568.181 L532.407,564.212 Q531.579,565.087 530.251,565.087 Q528.735,565.087 527.821,563.904 Q526.907,562.72 526.907,560.634 z M528.806,560.798 Q528.806,562.095 529.317,562.833 Q529.829,563.571 530.735,563.571 Q531.86,563.571 532.407,562.611 L532.407,558.767 Q531.86,557.845 530.751,557.845 Q529.845,557.845 529.325,558.571 Q528.806,559.298 528.806,560.798 z" fill="#261B15"/>
    <path d="M540.009,560.431 Q540.009,562.165 539.532,563.779 Q539.056,565.392 538.087,566.716 Q537.118,568.04 536.064,568.548 L535.689,567.493 Q536.86,566.587 537.544,564.724 Q538.228,562.861 538.228,560.47 L538.228,560.29 Q538.228,558.118 537.634,556.333 Q537.04,554.548 535.931,553.47 L535.689,553.251 L536.064,552.189 Q537.064,552.673 538.001,553.907 Q538.939,555.142 539.439,556.669 Q539.939,558.196 540.001,559.821 z" fill="#261B15"/>
    <path d="M355.579,552.974 L347.93,552.974 L347.93,551.669 L351.719,547.537 Q352.54,546.623 352.887,546.009 Q353.235,545.396 353.235,544.779 Q353.235,543.966 352.778,543.466 Q352.321,542.966 351.548,542.966 Q350.626,542.966 350.118,543.529 Q349.61,544.091 349.61,545.068 L347.712,545.068 Q347.712,544.029 348.184,543.197 Q348.657,542.365 349.536,541.904 Q350.415,541.443 351.563,541.443 Q353.219,541.443 354.176,542.275 Q355.133,543.107 355.133,544.576 Q355.133,545.427 354.653,546.361 Q354.173,547.294 353.079,548.482 L350.298,551.459 L355.579,551.459 z" fill="#261B15"/>
    <path d="M361.532,546.716 L364.501,546.716 L364.501,548.451 L361.532,548.451 L361.532,551.834 L359.688,551.834 L359.688,548.451 L356.704,548.451 L356.704,546.716 L359.688,546.716 L359.688,543.552 L361.532,543.552 z" fill="#261B15"/>
    <path d="M504.938,552.974 L497.29,552.974 L497.29,551.669 L501.079,547.537 Q501.899,546.623 502.247,546.009 Q502.594,545.396 502.594,544.779 Q502.594,543.966 502.137,543.466 Q501.68,542.966 500.907,542.966 Q499.985,542.966 499.477,543.529 Q498.969,544.091 498.969,545.068 L497.071,545.068 Q497.071,544.029 497.543,543.197 Q498.016,542.365 498.895,541.904 Q499.774,541.443 500.922,541.443 Q502.579,541.443 503.536,542.275 Q504.493,543.107 504.493,544.576 Q504.493,545.427 504.012,546.361 Q503.532,547.294 502.438,548.482 L499.657,551.459 L504.938,551.459 z" fill="#261B15"/>
    <path d="M510.891,546.716 L513.86,546.716 L513.86,548.451 L510.891,548.451 L510.891,551.834 L509.047,551.834 L509.047,548.451 L506.063,548.451 L506.063,546.716 L509.047,546.716 L509.047,543.552 L510.891,543.552 z" fill="#261B15"/>
    <path d="M431.961,313.964 L431.914,353.513" fill-opacity="0" stroke="#000000" stroke-width="1" stroke-dasharray="2,2"/>
    <path d="M81.117,241.513 L88.535,241.513 L88.535,243.282 L78.469,243.282 L78.469,241.688 L85.465,232.395 L78.574,232.395 L78.574,230.602 L88.184,230.602 L88.184,232.138 z" fill="#261C15"/>
    <path d="M93.328,243.282 L91.16,243.282 L91.16,230.602 L93.328,230.602 z M90.985,227.239 Q90.985,226.712 91.307,226.348 Q91.629,225.985 92.262,225.985 Q92.895,225.985 93.223,226.348 Q93.551,226.712 93.551,227.239 Q93.551,227.766 93.223,228.118 Q92.895,228.47 92.262,228.47 Q91.629,228.47 91.307,228.118 Q90.985,227.766 90.985,227.239 z" fill="#261C15"/>
    <path d="M98.848,230.602 L98.918,232.196 Q100.371,230.368 102.715,230.368 Q106.735,230.368 106.77,234.903 L106.77,243.282 L104.602,243.282 L104.602,234.891 Q104.59,233.52 103.975,232.864 Q103.36,232.208 102.059,232.208 Q101.004,232.208 100.207,232.77 Q99.41,233.333 98.965,234.247 L98.965,243.282 L96.797,243.282 L96.797,230.602 z" fill="#261C15"/>
    <path d="M115.125,241.747 Q116.285,241.747 117.153,241.044 Q118.02,240.341 118.114,239.286 L120.164,239.286 Q120.106,240.376 119.414,241.36 Q118.723,242.345 117.569,242.931 Q116.414,243.516 115.125,243.516 Q112.535,243.516 111.006,241.788 Q109.477,240.059 109.477,237.059 L109.477,236.696 Q109.477,234.845 110.157,233.403 Q110.836,231.962 112.108,231.165 Q113.379,230.368 115.114,230.368 Q117.246,230.368 118.658,231.645 Q120.071,232.923 120.164,234.962 L118.114,234.962 Q118.02,233.731 117.182,232.94 Q116.344,232.149 115.114,232.149 Q113.461,232.149 112.553,233.339 Q111.645,234.528 111.645,236.778 L111.645,237.188 Q111.645,239.38 112.547,240.563 Q113.449,241.747 115.125,241.747 z" fill="#261C15"/>
    <path d="M136.371,243.282 Q136.184,242.907 136.067,241.946 Q134.555,243.516 132.457,243.516 Q130.582,243.516 129.381,242.456 Q128.18,241.395 128.18,239.766 Q128.18,237.786 129.686,236.69 Q131.192,235.595 133.922,235.595 L136.032,235.595 L136.032,234.598 Q136.032,233.462 135.352,232.788 Q134.672,232.114 133.348,232.114 Q132.188,232.114 131.403,232.7 Q130.617,233.286 130.617,234.118 L128.438,234.118 Q128.438,233.169 129.112,232.284 Q129.785,231.399 130.94,230.884 Q132.094,230.368 133.477,230.368 Q135.668,230.368 136.91,231.464 Q138.153,232.559 138.199,234.481 L138.199,240.317 Q138.199,242.063 138.645,243.095 L138.645,243.282 z M132.774,241.63 Q133.793,241.63 134.707,241.102 Q135.621,240.575 136.032,239.731 L136.032,237.13 L134.332,237.13 Q130.348,237.13 130.348,239.462 Q130.348,240.481 131.028,241.056 Q131.707,241.63 132.774,241.63 z" fill="#261C15"/>
    <path d="M143.649,230.602 L143.719,232.196 Q145.172,230.368 147.516,230.368 Q151.535,230.368 151.571,234.903 L151.571,243.282 L149.403,243.282 L149.403,234.891 Q149.391,233.52 148.776,232.864 Q148.16,232.208 146.86,232.208 Q145.805,232.208 145.008,232.77 Q144.211,233.333 143.766,234.247 L143.766,243.282 L141.598,243.282 L141.598,230.602 z" fill="#261C15"/>
    <path d="M154.266,236.825 Q154.266,234.962 154.998,233.473 Q155.731,231.985 157.037,231.177 Q158.344,230.368 160.02,230.368 Q162.61,230.368 164.209,232.161 Q165.809,233.954 165.809,236.931 L165.809,237.083 Q165.809,238.934 165.1,240.405 Q164.391,241.876 163.073,242.696 Q161.754,243.516 160.043,243.516 Q157.465,243.516 155.866,241.723 Q154.266,239.931 154.266,236.977 z M156.446,237.083 Q156.446,239.192 157.424,240.47 Q158.403,241.747 160.043,241.747 Q161.696,241.747 162.668,240.452 Q163.641,239.157 163.641,236.825 Q163.641,234.739 162.651,233.444 Q161.66,232.149 160.02,232.149 Q158.414,232.149 157.43,233.427 Q156.446,234.704 156.446,237.083 z" fill="#261C15"/>
    <path d="M168,236.837 Q168,233.919 169.383,232.143 Q170.766,230.368 173.004,230.368 Q175.231,230.368 176.532,231.891 L176.532,225.282 L178.699,225.282 L178.699,243.282 L176.707,243.282 L176.602,241.923 Q175.301,243.516 172.981,243.516 Q170.778,243.516 169.389,241.712 Q168,239.907 168,237.001 z M170.168,237.083 Q170.168,239.239 171.059,240.458 Q171.949,241.677 173.52,241.677 Q175.582,241.677 176.532,239.825 L176.532,234.001 Q175.559,232.208 173.543,232.208 Q171.949,232.208 171.059,233.438 Q170.168,234.669 170.168,237.083 z" fill="#261C15"/>
    <path d="M187.324,243.516 Q184.746,243.516 183.129,241.823 Q181.512,240.13 181.512,237.294 L181.512,236.895 Q181.512,235.009 182.233,233.526 Q182.953,232.044 184.248,231.206 Q185.543,230.368 187.055,230.368 Q189.528,230.368 190.899,231.997 Q192.27,233.626 192.27,236.661 L192.27,237.563 L183.68,237.563 Q183.727,239.438 184.776,240.593 Q185.824,241.747 187.442,241.747 Q188.59,241.747 189.387,241.278 Q190.184,240.809 190.782,240.036 L192.106,241.067 Q190.512,243.516 187.324,243.516 z M187.055,232.149 Q185.742,232.149 184.852,233.104 Q183.961,234.059 183.75,235.782 L190.102,235.782 L190.102,235.618 Q190.008,233.966 189.211,233.057 Q188.414,232.149 187.055,232.149 z" fill="#261C15"/>
    <path d="M78.477,259.665 Q78.477,257.899 78.949,256.274 Q79.422,254.649 80.36,253.321 Q81.297,251.993 82.305,251.446 L82.602,252.399 Q81.461,253.274 80.731,255.071 Q80,256.868 79.93,259.095 L79.922,259.759 Q79.922,262.774 81.024,264.993 Q81.688,266.321 82.602,267.071 L82.305,267.954 Q81.266,267.376 80.321,266.016 Q78.477,263.36 78.477,259.665 z" fill="#261C15"/>
    <path d="M85.367,255.829 L85.414,256.891 Q86.383,255.673 87.946,255.673 Q90.625,255.673 90.649,258.696 L90.649,264.282 L89.203,264.282 L89.203,258.688 Q89.196,257.774 88.785,257.337 Q88.375,256.899 87.508,256.899 Q86.805,256.899 86.274,257.274 Q85.742,257.649 85.446,258.259 L85.446,264.282 L84,264.282 L84,255.829 z" fill="#261C15"/>
    <path d="M96.336,264.438 Q94.617,264.438 93.539,263.309 Q92.461,262.18 92.461,260.29 L92.461,260.024 Q92.461,258.766 92.942,257.778 Q93.422,256.79 94.285,256.231 Q95.149,255.673 96.157,255.673 Q97.805,255.673 98.719,256.759 Q99.633,257.845 99.633,259.868 L99.633,260.47 L93.907,260.47 Q93.938,261.72 94.637,262.489 Q95.336,263.259 96.414,263.259 Q97.18,263.259 97.711,262.946 Q98.242,262.634 98.641,262.118 L99.524,262.805 Q98.461,264.438 96.336,264.438 z M96.157,256.86 Q95.282,256.86 94.688,257.497 Q94.094,258.134 93.953,259.282 L98.188,259.282 L98.188,259.173 Q98.125,258.071 97.594,257.466 Q97.063,256.86 96.157,256.86 z" fill="#261C15"/>
    <path d="M100.961,259.985 Q100.961,258.009 101.875,256.841 Q102.789,255.673 104.297,255.673 Q105.844,255.673 106.711,256.766 L106.782,255.829 L108.102,255.829 L108.102,264.079 Q108.102,265.72 107.129,266.665 Q106.157,267.61 104.516,267.61 Q103.602,267.61 102.727,267.22 Q101.852,266.829 101.391,266.149 L102.141,265.282 Q103.071,266.43 104.414,266.43 Q105.469,266.43 106.059,265.837 Q106.649,265.243 106.649,264.165 L106.649,263.438 Q105.782,264.438 104.282,264.438 Q102.797,264.438 101.879,263.243 Q100.961,262.048 100.961,259.985 z M102.414,260.149 Q102.414,261.579 103,262.395 Q103.586,263.212 104.641,263.212 Q106.008,263.212 106.649,261.97 L106.649,258.11 Q105.985,256.899 104.657,256.899 Q103.602,256.899 103.008,257.72 Q102.414,258.54 102.414,260.149 z" fill="#261C15"/>
    <path d="M115.5,264.282 Q115.375,264.032 115.297,263.391 Q114.289,264.438 112.891,264.438 Q111.641,264.438 110.84,263.731 Q110.039,263.024 110.039,261.938 Q110.039,260.618 111.043,259.888 Q112.047,259.157 113.867,259.157 L115.274,259.157 L115.274,258.493 Q115.274,257.735 114.821,257.286 Q114.367,256.837 113.485,256.837 Q112.711,256.837 112.188,257.227 Q111.664,257.618 111.664,258.173 L110.211,258.173 Q110.211,257.54 110.66,256.95 Q111.11,256.36 111.879,256.016 Q112.649,255.673 113.571,255.673 Q115.032,255.673 115.86,256.403 Q116.688,257.134 116.719,258.415 L116.719,262.305 Q116.719,263.47 117.016,264.157 L117.016,264.282 z M113.102,263.18 Q113.782,263.18 114.391,262.829 Q115,262.477 115.274,261.915 L115.274,260.18 L114.141,260.18 Q111.485,260.18 111.485,261.735 Q111.485,262.415 111.938,262.798 Q112.391,263.18 113.102,263.18 z" fill="#261C15"/>
    <path d="M120.946,253.782 L120.946,255.829 L122.524,255.829 L122.524,256.946 L120.946,256.946 L120.946,262.188 Q120.946,262.696 121.157,262.95 Q121.367,263.204 121.875,263.204 Q122.125,263.204 122.563,263.11 L122.563,264.282 Q121.992,264.438 121.453,264.438 Q120.485,264.438 119.992,263.852 Q119.5,263.266 119.5,262.188 L119.5,256.946 L117.961,256.946 L117.961,255.829 L119.5,255.829 L119.5,253.782 z" fill="#261C15"/>
    <path d="M125.782,264.282 L124.336,264.282 L124.336,255.829 L125.782,255.829 z M124.219,253.587 Q124.219,253.235 124.434,252.993 Q124.649,252.751 125.071,252.751 Q125.492,252.751 125.711,252.993 Q125.93,253.235 125.93,253.587 Q125.93,253.938 125.711,254.173 Q125.492,254.407 125.071,254.407 Q124.649,254.407 124.434,254.173 Q124.219,253.938 124.219,253.587 z" fill="#261C15"/>
    <path d="M130.883,262.321 L132.977,255.829 L134.453,255.829 L131.422,264.282 L130.321,264.282 L127.258,255.829 L128.735,255.829 z" fill="#261C15"/>
    <path d="M139.25,264.438 Q137.532,264.438 136.453,263.309 Q135.375,262.18 135.375,260.29 L135.375,260.024 Q135.375,258.766 135.856,257.778 Q136.336,256.79 137.199,256.231 Q138.063,255.673 139.071,255.673 Q140.719,255.673 141.633,256.759 Q142.547,257.845 142.547,259.868 L142.547,260.47 L136.821,260.47 Q136.852,261.72 137.551,262.489 Q138.25,263.259 139.328,263.259 Q140.094,263.259 140.625,262.946 Q141.157,262.634 141.555,262.118 L142.438,262.805 Q141.375,264.438 139.25,264.438 z M139.071,256.86 Q138.196,256.86 137.602,257.497 Q137.008,258.134 136.867,259.282 L141.102,259.282 L141.102,259.173 Q141.039,258.071 140.508,257.466 Q139.977,256.86 139.071,256.86 z" fill="#261C15"/>
    <path d="M151.688,264.438 Q149.969,264.438 148.891,263.309 Q147.813,262.18 147.813,260.29 L147.813,260.024 Q147.813,258.766 148.293,257.778 Q148.774,256.79 149.637,256.231 Q150.5,255.673 151.508,255.673 Q153.157,255.673 154.071,256.759 Q154.985,257.845 154.985,259.868 L154.985,260.47 L149.258,260.47 Q149.289,261.72 149.989,262.489 Q150.688,263.259 151.766,263.259 Q152.532,263.259 153.063,262.946 Q153.594,262.634 153.992,262.118 L154.875,262.805 Q153.813,264.438 151.688,264.438 z M151.508,256.86 Q150.633,256.86 150.039,257.497 Q149.446,258.134 149.305,259.282 L153.539,259.282 L153.539,259.173 Q153.477,258.071 152.946,257.466 Q152.414,256.86 151.508,256.86 z" fill="#261C15"/>
    <path d="M158.227,264.282 L156.782,264.282 L156.782,252.282 L158.227,252.282 z" fill="#261C15"/>
    <path d="M164.047,264.438 Q162.328,264.438 161.25,263.309 Q160.172,262.18 160.172,260.29 L160.172,260.024 Q160.172,258.766 160.653,257.778 Q161.133,256.79 161.996,256.231 Q162.86,255.673 163.867,255.673 Q165.516,255.673 166.43,256.759 Q167.344,257.845 167.344,259.868 L167.344,260.47 L161.617,260.47 Q161.649,261.72 162.348,262.489 Q163.047,263.259 164.125,263.259 Q164.891,263.259 165.422,262.946 Q165.953,262.634 166.352,262.118 L167.235,262.805 Q166.172,264.438 164.047,264.438 z M163.867,256.86 Q162.992,256.86 162.399,257.497 Q161.805,258.134 161.664,259.282 L165.899,259.282 L165.899,259.173 Q165.836,258.071 165.305,257.466 Q164.774,256.86 163.867,256.86 z" fill="#261C15"/>
    <path d="M172.407,263.259 Q173.18,263.259 173.758,262.79 Q174.336,262.321 174.399,261.618 L175.766,261.618 Q175.727,262.345 175.266,263.001 Q174.805,263.657 174.035,264.048 Q173.266,264.438 172.407,264.438 Q170.68,264.438 169.66,263.286 Q168.641,262.134 168.641,260.134 L168.641,259.891 Q168.641,258.657 169.094,257.696 Q169.547,256.735 170.395,256.204 Q171.242,255.673 172.399,255.673 Q173.821,255.673 174.762,256.524 Q175.703,257.376 175.766,258.735 L174.399,258.735 Q174.336,257.915 173.778,257.388 Q173.219,256.86 172.399,256.86 Q171.297,256.86 170.692,257.653 Q170.086,258.446 170.086,259.946 L170.086,260.22 Q170.086,261.68 170.688,262.47 Q171.289,263.259 172.407,263.259 z" fill="#261C15"/>
    <path d="M179.352,253.782 L179.352,255.829 L180.93,255.829 L180.93,256.946 L179.352,256.946 L179.352,262.188 Q179.352,262.696 179.563,262.95 Q179.774,263.204 180.282,263.204 Q180.532,263.204 180.969,263.11 L180.969,264.282 Q180.399,264.438 179.86,264.438 Q178.891,264.438 178.399,263.852 Q177.907,263.266 177.907,262.188 L177.907,256.946 L176.367,256.946 L176.367,255.829 L177.907,255.829 L177.907,253.782 z" fill="#261C15"/>
    <path d="M186.703,257.126 Q186.375,257.071 185.992,257.071 Q184.571,257.071 184.063,258.282 L184.063,264.282 L182.617,264.282 L182.617,255.829 L184.024,255.829 L184.047,256.805 Q184.758,255.673 186.063,255.673 Q186.485,255.673 186.703,255.782 z" fill="#261C15"/>
    <path d="M187.492,259.977 Q187.492,258.735 187.981,257.743 Q188.469,256.751 189.34,256.212 Q190.211,255.673 191.328,255.673 Q193.055,255.673 194.121,256.868 Q195.188,258.063 195.188,260.048 L195.188,260.149 Q195.188,261.384 194.715,262.364 Q194.242,263.345 193.364,263.891 Q192.485,264.438 191.344,264.438 Q189.625,264.438 188.559,263.243 Q187.492,262.048 187.492,260.079 z M188.946,260.149 Q188.946,261.555 189.598,262.407 Q190.25,263.259 191.344,263.259 Q192.446,263.259 193.094,262.395 Q193.742,261.532 193.742,259.977 Q193.742,258.587 193.082,257.723 Q192.422,256.86 191.328,256.86 Q190.258,256.86 189.602,257.712 Q188.946,258.563 188.946,260.149 z" fill="#261C15"/>
    <path d="M196.649,259.985 Q196.649,258.04 197.571,256.856 Q198.492,255.673 199.985,255.673 Q201.469,255.673 202.336,256.688 L202.336,252.282 L203.782,252.282 L203.782,264.282 L202.453,264.282 L202.383,263.376 Q201.516,264.438 199.969,264.438 Q198.5,264.438 197.574,263.235 Q196.649,262.032 196.649,260.095 z M198.094,260.149 Q198.094,261.587 198.688,262.399 Q199.282,263.212 200.328,263.212 Q201.703,263.212 202.336,261.977 L202.336,258.095 Q201.688,256.899 200.344,256.899 Q199.282,256.899 198.688,257.72 Q198.094,258.54 198.094,260.149 z" fill="#261C15"/>
    <path d="M209.532,264.438 Q207.813,264.438 206.735,263.309 Q205.657,262.18 205.657,260.29 L205.657,260.024 Q205.657,258.766 206.137,257.778 Q206.617,256.79 207.481,256.231 Q208.344,255.673 209.352,255.673 Q211,255.673 211.914,256.759 Q212.828,257.845 212.828,259.868 L212.828,260.47 L207.102,260.47 Q207.133,261.72 207.832,262.489 Q208.532,263.259 209.61,263.259 Q210.375,263.259 210.907,262.946 Q211.438,262.634 211.836,262.118 L212.719,262.805 Q211.657,264.438 209.532,264.438 z M209.352,256.86 Q208.477,256.86 207.883,257.497 Q207.289,258.134 207.149,259.282 L211.383,259.282 L211.383,259.173 Q211.321,258.071 210.789,257.466 Q210.258,256.86 209.352,256.86 z" fill="#261C15"/>
    <path d="M217.836,259.743 Q217.836,261.485 217.379,263.083 Q216.922,264.68 215.981,266.032 Q215.039,267.384 214.008,267.954 L213.703,267.071 Q214.907,266.149 215.637,264.208 Q216.367,262.266 216.383,259.899 L216.383,259.649 Q216.383,258.009 216.039,256.598 Q215.696,255.188 215.082,254.071 Q214.469,252.954 213.703,252.329 L214.008,251.446 Q215.039,252.016 215.973,253.352 Q216.907,254.688 217.371,256.298 Q217.836,257.907 217.836,259.743 z" fill="#261C15"/>
    <path d="M625.6,241.747 Q626.76,241.747 627.627,241.044 Q628.495,240.341 628.588,239.286 L630.639,239.286 Q630.58,240.376 629.889,241.36 Q629.198,242.345 628.043,242.93 Q626.889,243.516 625.6,243.516 Q623.01,243.516 621.481,241.788 Q619.952,240.059 619.952,237.059 L619.952,236.696 Q619.952,234.845 620.631,233.403 Q621.311,231.962 622.582,231.165 Q623.854,230.368 625.588,230.368 Q627.721,230.368 629.133,231.645 Q630.545,232.923 630.639,234.962 L628.588,234.962 Q628.495,233.731 627.657,232.94 Q626.819,232.149 625.588,232.149 Q623.936,232.149 623.028,233.339 Q622.12,234.528 622.12,236.778 L622.12,237.188 Q622.12,239.38 623.022,240.563 Q623.924,241.747 625.6,241.747 z" fill="#261C15"/>
    <path d="M632.502,236.825 Q632.502,234.962 633.235,233.473 Q633.967,231.985 635.274,231.177 Q636.58,230.368 638.256,230.368 Q640.846,230.368 642.446,232.161 Q644.045,233.954 644.045,236.93 L644.045,237.083 Q644.045,238.934 643.336,240.405 Q642.627,241.876 641.309,242.696 Q639.991,243.516 638.28,243.516 Q635.702,243.516 634.102,241.723 Q632.502,239.93 632.502,236.977 z M634.682,237.083 Q634.682,239.192 635.661,240.47 Q636.639,241.747 638.28,241.747 Q639.932,241.747 640.905,240.452 Q641.877,239.157 641.877,236.825 Q641.877,234.739 640.887,233.444 Q639.897,232.149 638.256,232.149 Q636.651,232.149 635.666,233.427 Q634.682,234.704 634.682,237.083 z" fill="#261C15"/>
    <path d="M657.475,237.083 Q657.475,239.977 656.151,241.747 Q654.827,243.516 652.565,243.516 Q650.256,243.516 648.932,242.052 L648.932,248.157 L646.764,248.157 L646.764,230.602 L648.745,230.602 L648.85,232.009 Q650.174,230.368 652.53,230.368 Q654.815,230.368 656.145,232.091 Q657.475,233.813 657.475,236.884 z M655.307,236.837 Q655.307,234.692 654.393,233.45 Q653.479,232.208 651.885,232.208 Q649.916,232.208 648.932,233.954 L648.932,240.013 Q649.905,241.747 651.909,241.747 Q653.467,241.747 654.387,240.511 Q655.307,239.274 655.307,236.837 z" fill="#261C15"/>
    <path d="M670.94,237.083 Q670.94,239.977 669.616,241.747 Q668.291,243.516 666.03,243.516 Q663.721,243.516 662.397,242.052 L662.397,248.157 L660.229,248.157 L660.229,230.602 L662.209,230.602 L662.315,232.009 Q663.639,230.368 665.995,230.368 Q668.28,230.368 669.61,232.091 Q670.94,233.813 670.94,236.884 z M668.772,236.837 Q668.772,234.692 667.858,233.45 Q666.944,232.208 665.35,232.208 Q663.381,232.208 662.397,233.954 L662.397,240.013 Q663.37,241.747 665.373,241.747 Q666.932,241.747 667.852,240.511 Q668.772,239.274 668.772,236.837 z" fill="#261C15"/>
    <path d="M678.955,243.516 Q676.377,243.516 674.76,241.823 Q673.143,240.13 673.143,237.294 L673.143,236.895 Q673.143,235.009 673.864,233.526 Q674.584,232.044 675.879,231.206 Q677.174,230.368 678.686,230.368 Q681.159,230.368 682.53,231.997 Q683.901,233.626 683.901,236.661 L683.901,237.563 L675.311,237.563 Q675.358,239.438 676.407,240.593 Q677.455,241.747 679.073,241.747 Q680.221,241.747 681.018,241.278 Q681.815,240.809 682.412,240.036 L683.737,241.067 Q682.143,243.516 678.955,243.516 z M678.686,232.149 Q677.373,232.149 676.483,233.104 Q675.592,234.059 675.381,235.782 L681.733,235.782 L681.733,235.618 Q681.639,233.966 680.842,233.057 Q680.045,232.149 678.686,232.149 z" fill="#261C15"/>
    <path d="M692.537,232.548 Q692.045,232.466 691.471,232.466 Q689.338,232.466 688.577,234.282 L688.577,243.282 L686.409,243.282 L686.409,230.602 L688.518,230.602 L688.553,232.067 Q689.62,230.368 691.577,230.368 Q692.209,230.368 692.537,230.532 z" fill="#261C15"/>
    <path d="M705.557,241.747 Q706.717,241.747 707.584,241.044 Q708.452,240.341 708.545,239.286 L710.596,239.286 Q710.537,240.376 709.846,241.36 Q709.155,242.345 708,242.93 Q706.846,243.516 705.557,243.516 Q702.967,243.516 701.438,241.788 Q699.909,240.059 699.909,237.059 L699.909,236.696 Q699.909,234.845 700.588,233.403 Q701.268,231.962 702.539,231.165 Q703.811,230.368 705.545,230.368 Q707.678,230.368 709.09,231.645 Q710.502,232.923 710.596,234.962 L708.545,234.962 Q708.452,233.731 707.614,232.94 Q706.776,232.149 705.545,232.149 Q703.893,232.149 702.985,233.339 Q702.077,234.528 702.077,236.778 L702.077,237.188 Q702.077,239.38 702.979,240.563 Q703.881,241.747 705.557,241.747 z" fill="#261C15"/>
    <path d="M720.862,243.282 Q720.674,242.907 720.557,241.946 Q719.045,243.516 716.948,243.516 Q715.073,243.516 713.871,242.456 Q712.67,241.395 712.67,239.766 Q712.67,237.786 714.176,236.69 Q715.682,235.595 718.412,235.595 L720.522,235.595 L720.522,234.598 Q720.522,233.462 719.842,232.788 Q719.162,232.114 717.838,232.114 Q716.678,232.114 715.893,232.7 Q715.108,233.286 715.108,234.118 L712.928,234.118 Q712.928,233.169 713.602,232.284 Q714.276,231.399 715.43,230.884 Q716.584,230.368 717.967,230.368 Q720.159,230.368 721.401,231.464 Q722.643,232.559 722.69,234.481 L722.69,240.317 Q722.69,242.063 723.135,243.095 L723.135,243.282 z M717.264,241.63 Q718.284,241.63 719.198,241.102 Q720.112,240.575 720.522,239.731 L720.522,237.13 L718.823,237.13 Q714.838,237.13 714.838,239.462 Q714.838,240.481 715.518,241.055 Q716.198,241.63 717.264,241.63 z" fill="#261C15"/>
    <path d="M729.03,227.532 L729.03,230.602 L731.397,230.602 L731.397,232.278 L729.03,232.278 L729.03,240.141 Q729.03,240.903 729.346,241.284 Q729.662,241.665 730.424,241.665 Q730.799,241.665 731.455,241.524 L731.455,243.282 Q730.6,243.516 729.791,243.516 Q728.338,243.516 727.6,242.638 Q726.862,241.759 726.862,240.141 L726.862,232.278 L724.553,232.278 L724.553,230.602 L726.862,230.602 L726.862,227.532 z" fill="#261C15"/>
    <path d="M736.096,232.138 Q737.537,230.368 739.846,230.368 Q743.866,230.368 743.901,234.903 L743.901,243.282 L741.733,243.282 L741.733,234.891 Q741.721,233.52 741.106,232.864 Q740.491,232.208 739.19,232.208 Q738.135,232.208 737.338,232.77 Q736.541,233.333 736.096,234.247 L736.096,243.282 L733.928,243.282 L733.928,225.282 L736.096,225.282 z" fill="#261C15"/>
    <path d="M746.573,236.825 Q746.573,234.962 747.305,233.473 Q748.037,231.985 749.344,231.177 Q750.651,230.368 752.327,230.368 Q754.916,230.368 756.516,232.161 Q758.116,233.954 758.116,236.93 L758.116,237.083 Q758.116,238.934 757.407,240.405 Q756.698,241.876 755.379,242.696 Q754.061,243.516 752.35,243.516 Q749.772,243.516 748.172,241.723 Q746.573,239.93 746.573,236.977 z M748.752,237.083 Q748.752,239.192 749.731,240.47 Q750.709,241.747 752.35,241.747 Q754.002,241.747 754.975,240.452 Q755.948,239.157 755.948,236.825 Q755.948,234.739 754.957,233.444 Q753.967,232.149 752.327,232.149 Q750.721,232.149 749.737,233.427 Q748.752,234.704 748.752,237.083 z" fill="#261C15"/>
    <path d="M760.307,236.837 Q760.307,233.919 761.69,232.143 Q763.073,230.368 765.311,230.368 Q767.537,230.368 768.838,231.891 L768.838,225.282 L771.006,225.282 L771.006,243.282 L769.014,243.282 L768.909,241.923 Q767.608,243.516 765.287,243.516 Q763.084,243.516 761.696,241.712 Q760.307,239.907 760.307,237.001 z M762.475,237.083 Q762.475,239.239 763.366,240.458 Q764.256,241.677 765.827,241.677 Q767.889,241.677 768.838,239.825 L768.838,234.001 Q767.866,232.208 765.85,232.208 Q764.256,232.208 763.366,233.438 Q762.475,234.669 762.475,237.083 z" fill="#261C15"/>
    <path d="M779.631,243.516 Q777.053,243.516 775.436,241.823 Q773.819,240.13 773.819,237.294 L773.819,236.895 Q773.819,235.009 774.539,233.526 Q775.26,232.044 776.555,231.206 Q777.85,230.368 779.362,230.368 Q781.834,230.368 783.205,231.997 Q784.577,233.626 784.577,236.661 L784.577,237.563 L775.987,237.563 Q776.034,239.438 777.082,240.593 Q778.131,241.747 779.748,241.747 Q780.897,241.747 781.694,241.278 Q782.491,240.809 783.088,240.036 L784.412,241.067 Q782.819,243.516 779.631,243.516 z M779.362,232.149 Q778.049,232.149 777.159,233.104 Q776.268,234.059 776.057,235.782 L782.409,235.782 L782.409,235.618 Q782.315,233.966 781.518,233.057 Q780.721,232.149 779.362,232.149 z" fill="#261C15"/>
    <path d="M649.702,259.665 Q649.702,257.899 650.174,256.274 Q650.647,254.649 651.584,253.321 Q652.522,251.993 653.53,251.446 L653.827,252.399 Q652.686,253.274 651.955,255.071 Q651.225,256.868 651.155,259.095 L651.147,259.759 Q651.147,262.774 652.248,264.993 Q652.912,266.321 653.827,267.071 L653.53,267.954 Q652.491,267.376 651.545,266.016 Q649.702,263.36 649.702,259.665 z" fill="#261C15"/>
    <path d="M662.366,260.149 Q662.366,262.079 661.483,263.259 Q660.6,264.438 659.092,264.438 Q657.553,264.438 656.67,263.462 L656.67,267.532 L655.225,267.532 L655.225,255.829 L656.545,255.829 L656.616,256.766 Q657.498,255.673 659.069,255.673 Q660.592,255.673 661.479,256.821 Q662.366,257.97 662.366,260.016 z M660.92,259.985 Q660.92,258.556 660.311,257.727 Q659.702,256.899 658.639,256.899 Q657.327,256.899 656.67,258.063 L656.67,262.102 Q657.319,263.259 658.655,263.259 Q659.694,263.259 660.307,262.434 Q660.92,261.61 660.92,259.985 z" fill="#261C15"/>
    <path d="M663.819,259.977 Q663.819,258.735 664.307,257.743 Q664.795,256.751 665.666,256.212 Q666.537,255.673 667.655,255.673 Q669.381,255.673 670.448,256.868 Q671.514,258.063 671.514,260.048 L671.514,260.149 Q671.514,261.384 671.041,262.364 Q670.569,263.345 669.69,263.891 Q668.811,264.438 667.67,264.438 Q665.952,264.438 664.885,263.243 Q663.819,262.048 663.819,260.079 z M665.272,260.149 Q665.272,261.556 665.924,262.407 Q666.577,263.259 667.67,263.259 Q668.772,263.259 669.42,262.395 Q670.069,261.532 670.069,259.977 Q670.069,258.587 669.409,257.723 Q668.748,256.86 667.655,256.86 Q666.584,256.86 665.928,257.712 Q665.272,258.563 665.272,260.149 z" fill="#261C15"/>
    <path d="M678.248,262.04 Q678.248,261.454 677.807,261.13 Q677.366,260.806 676.268,260.571 Q675.17,260.337 674.526,260.009 Q673.881,259.681 673.573,259.227 Q673.264,258.774 673.264,258.149 Q673.264,257.11 674.143,256.391 Q675.022,255.673 676.389,255.673 Q677.827,255.673 678.721,256.415 Q679.616,257.157 679.616,258.313 L678.162,258.313 Q678.162,257.72 677.659,257.29 Q677.155,256.86 676.389,256.86 Q675.6,256.86 675.155,257.204 Q674.709,257.548 674.709,258.102 Q674.709,258.626 675.123,258.891 Q675.537,259.157 676.62,259.399 Q677.702,259.641 678.373,259.977 Q679.045,260.313 679.37,260.786 Q679.694,261.259 679.694,261.938 Q679.694,263.071 678.787,263.755 Q677.881,264.438 676.436,264.438 Q675.42,264.438 674.639,264.079 Q673.858,263.72 673.416,263.075 Q672.975,262.431 672.975,261.681 L674.42,261.681 Q674.459,262.407 675.002,262.833 Q675.545,263.259 676.436,263.259 Q677.256,263.259 677.752,262.927 Q678.248,262.595 678.248,262.04 z" fill="#261C15"/>
    <path d="M683.147,264.282 L681.702,264.282 L681.702,255.829 L683.147,255.829 z M681.584,253.587 Q681.584,253.235 681.799,252.993 Q682.014,252.751 682.436,252.751 Q682.858,252.751 683.077,252.993 Q683.295,253.235 683.295,253.587 Q683.295,253.938 683.077,254.173 Q682.858,254.407 682.436,254.407 Q682.014,254.407 681.799,254.173 Q681.584,253.938 681.584,253.587 z" fill="#261C15"/>
    <path d="M687.42,253.782 L687.42,255.829 L688.998,255.829 L688.998,256.946 L687.42,256.946 L687.42,262.188 Q687.42,262.696 687.631,262.95 Q687.842,263.204 688.35,263.204 Q688.6,263.204 689.037,263.11 L689.037,264.282 Q688.467,264.438 687.928,264.438 Q686.959,264.438 686.467,263.852 Q685.975,263.266 685.975,262.188 L685.975,256.946 L684.436,256.946 L684.436,255.829 L685.975,255.829 L685.975,253.782 z" fill="#261C15"/>
    <path d="M692.256,264.282 L690.811,264.282 L690.811,255.829 L692.256,255.829 z M690.694,253.587 Q690.694,253.235 690.909,252.993 Q691.123,252.751 691.545,252.751 Q691.967,252.751 692.186,252.993 Q692.405,253.235 692.405,253.587 Q692.405,253.938 692.186,254.173 Q691.967,254.407 691.545,254.407 Q691.123,254.407 690.909,254.173 Q690.694,253.938 690.694,253.587 z" fill="#261C15"/>
    <path d="M697.358,262.321 L699.452,255.829 L700.928,255.829 L697.897,264.282 L696.795,264.282 L693.733,255.829 L695.209,255.829 z" fill="#261C15"/>
    <path d="M705.725,264.438 Q704.006,264.438 702.928,263.309 Q701.85,262.181 701.85,260.29 L701.85,260.024 Q701.85,258.766 702.33,257.778 Q702.811,256.79 703.674,256.231 Q704.537,255.673 705.545,255.673 Q707.194,255.673 708.108,256.759 Q709.022,257.845 709.022,259.868 L709.022,260.47 L703.295,260.47 Q703.327,261.72 704.026,262.489 Q704.725,263.259 705.803,263.259 Q706.569,263.259 707.1,262.946 Q707.631,262.634 708.03,262.118 L708.912,262.806 Q707.85,264.438 705.725,264.438 z M705.545,256.86 Q704.67,256.86 704.077,257.497 Q703.483,258.134 703.342,259.282 L707.577,259.282 L707.577,259.173 Q707.514,258.071 706.983,257.466 Q706.452,256.86 705.545,256.86 z" fill="#261C15"/>
    <path d="M718.162,264.438 Q716.444,264.438 715.366,263.309 Q714.287,262.181 714.287,260.29 L714.287,260.024 Q714.287,258.766 714.768,257.778 Q715.248,256.79 716.112,256.231 Q716.975,255.673 717.983,255.673 Q719.631,255.673 720.545,256.759 Q721.459,257.845 721.459,259.868 L721.459,260.47 L715.733,260.47 Q715.764,261.72 716.463,262.489 Q717.162,263.259 718.241,263.259 Q719.006,263.259 719.537,262.946 Q720.069,262.634 720.467,262.118 L721.35,262.806 Q720.287,264.438 718.162,264.438 z M717.983,256.86 Q717.108,256.86 716.514,257.497 Q715.92,258.134 715.78,259.282 L720.014,259.282 L720.014,259.173 Q719.952,258.071 719.42,257.466 Q718.889,256.86 717.983,256.86 z" fill="#261C15"/>
    <path d="M724.702,264.282 L723.256,264.282 L723.256,252.282 L724.702,252.282 z" fill="#261C15"/>
    <path d="M730.522,264.438 Q728.803,264.438 727.725,263.309 Q726.647,262.181 726.647,260.29 L726.647,260.024 Q726.647,258.766 727.127,257.778 Q727.608,256.79 728.471,256.231 Q729.334,255.673 730.342,255.673 Q731.991,255.673 732.905,256.759 Q733.819,257.845 733.819,259.868 L733.819,260.47 L728.092,260.47 Q728.123,261.72 728.823,262.489 Q729.522,263.259 730.6,263.259 Q731.366,263.259 731.897,262.946 Q732.428,262.634 732.827,262.118 L733.709,262.806 Q732.647,264.438 730.522,264.438 z M730.342,256.86 Q729.467,256.86 728.873,257.497 Q728.28,258.134 728.139,259.282 L732.373,259.282 L732.373,259.173 Q732.311,258.071 731.78,257.466 Q731.248,256.86 730.342,256.86 z" fill="#261C15"/>
    <path d="M738.881,263.259 Q739.655,263.259 740.233,262.79 Q740.811,262.321 740.873,261.618 L742.241,261.618 Q742.202,262.345 741.741,263.001 Q741.28,263.657 740.51,264.048 Q739.741,264.438 738.881,264.438 Q737.155,264.438 736.135,263.286 Q735.116,262.134 735.116,260.134 L735.116,259.891 Q735.116,258.657 735.569,257.696 Q736.022,256.735 736.87,256.204 Q737.717,255.673 738.873,255.673 Q740.295,255.673 741.237,256.524 Q742.178,257.376 742.241,258.735 L740.873,258.735 Q740.811,257.915 740.252,257.388 Q739.694,256.86 738.873,256.86 Q737.772,256.86 737.166,257.653 Q736.561,258.446 736.561,259.946 L736.561,260.22 Q736.561,261.681 737.162,262.47 Q737.764,263.259 738.881,263.259 z" fill="#261C15"/>
    <path d="M745.827,253.782 L745.827,255.829 L747.405,255.829 L747.405,256.946 L745.827,256.946 L745.827,262.188 Q745.827,262.696 746.037,262.95 Q746.248,263.204 746.756,263.204 Q747.006,263.204 747.444,263.11 L747.444,264.282 Q746.873,264.438 746.334,264.438 Q745.366,264.438 744.873,263.852 Q744.381,263.266 744.381,262.188 L744.381,256.946 L742.842,256.946 L742.842,255.829 L744.381,255.829 L744.381,253.782 z" fill="#261C15"/>
    <path d="M753.178,257.126 Q752.85,257.071 752.467,257.071 Q751.045,257.071 750.537,258.282 L750.537,264.282 L749.092,264.282 L749.092,255.829 L750.498,255.829 L750.522,256.806 Q751.233,255.673 752.537,255.673 Q752.959,255.673 753.178,255.782 z" fill="#261C15"/>
    <path d="M753.967,259.977 Q753.967,258.735 754.455,257.743 Q754.944,256.751 755.815,256.212 Q756.686,255.673 757.803,255.673 Q759.53,255.673 760.596,256.868 Q761.662,258.063 761.662,260.048 L761.662,260.149 Q761.662,261.384 761.19,262.364 Q760.717,263.345 759.838,263.891 Q758.959,264.438 757.819,264.438 Q756.1,264.438 755.034,263.243 Q753.967,262.048 753.967,260.079 z M755.42,260.149 Q755.42,261.556 756.073,262.407 Q756.725,263.259 757.819,263.259 Q758.92,263.259 759.569,262.395 Q760.217,261.532 760.217,259.977 Q760.217,258.587 759.557,257.723 Q758.897,256.86 757.803,256.86 Q756.733,256.86 756.077,257.712 Q755.42,258.563 755.42,260.149 z" fill="#261C15"/>
    <path d="M763.123,259.985 Q763.123,258.04 764.045,256.856 Q764.967,255.673 766.459,255.673 Q767.944,255.673 768.811,256.688 L768.811,252.282 L770.256,252.282 L770.256,264.282 L768.928,264.282 L768.858,263.376 Q767.991,264.438 766.444,264.438 Q764.975,264.438 764.049,263.235 Q763.123,262.032 763.123,260.095 z M764.569,260.149 Q764.569,261.587 765.162,262.399 Q765.756,263.212 766.803,263.212 Q768.178,263.212 768.811,261.977 L768.811,258.095 Q768.162,256.899 766.819,256.899 Q765.756,256.899 765.162,257.72 Q764.569,258.54 764.569,260.149 z" fill="#261C15"/>
    <path d="M776.006,264.438 Q774.287,264.438 773.209,263.309 Q772.131,262.181 772.131,260.29 L772.131,260.024 Q772.131,258.766 772.612,257.778 Q773.092,256.79 773.955,256.231 Q774.819,255.673 775.827,255.673 Q777.475,255.673 778.389,256.759 Q779.303,257.845 779.303,259.868 L779.303,260.47 L773.577,260.47 Q773.608,261.72 774.307,262.489 Q775.006,263.259 776.084,263.259 Q776.85,263.259 777.381,262.946 Q777.912,262.634 778.311,262.118 L779.194,262.806 Q778.131,264.438 776.006,264.438 z M775.827,256.86 Q774.952,256.86 774.358,257.497 Q773.764,258.134 773.623,259.282 L777.858,259.282 L777.858,259.173 Q777.795,258.071 777.264,257.466 Q776.733,256.86 775.827,256.86 z" fill="#261C15"/>
    <path d="M784.311,259.743 Q784.311,261.485 783.854,263.083 Q783.397,264.681 782.455,266.032 Q781.514,267.384 780.483,267.954 L780.178,267.071 Q781.381,266.149 782.112,264.208 Q782.842,262.266 782.858,259.899 L782.858,259.649 Q782.858,258.009 782.514,256.598 Q782.17,255.188 781.557,254.071 Q780.944,252.954 780.178,252.329 L780.483,251.446 Q781.514,252.016 782.448,253.352 Q783.381,254.688 783.846,256.298 Q784.311,257.907 784.311,259.743 z" fill="#261C15"/>
    <g>
      <path d="M467.658,496.05 L408.064,496.05" fill-opacity="0" stroke="#000000" stroke-width="2"/>
      <path d="M408.064,492.45 L398.464,496.05 L408.064,499.65 z" fill="#000000" fill-opacity="1" stroke="#000000" stroke-width="2" stroke-opacity="1"/>
    </g>
    <path d="M481.661,499.149 Q481.661,498.024 480.87,497.415 Q480.079,496.806 478.016,496.185 Q475.954,495.564 474.735,494.802 Q472.403,493.337 472.403,490.981 Q472.403,488.919 474.085,487.583 Q475.766,486.247 478.45,486.247 Q480.231,486.247 481.626,486.903 Q483.02,487.56 483.817,488.772 Q484.614,489.985 484.614,491.462 L481.661,491.462 Q481.661,490.126 480.823,489.37 Q479.985,488.614 478.427,488.614 Q476.973,488.614 476.171,489.235 Q475.368,489.856 475.368,490.97 Q475.368,491.907 476.235,492.534 Q477.102,493.161 479.095,493.753 Q481.087,494.345 482.294,495.101 Q483.501,495.856 484.063,496.835 Q484.626,497.814 484.626,499.126 Q484.626,501.259 482.991,502.519 Q481.356,503.778 478.555,503.778 Q476.704,503.778 475.151,503.093 Q473.598,502.407 472.737,501.2 Q471.876,499.993 471.876,498.388 L474.841,498.388 Q474.841,499.841 475.802,500.638 Q476.763,501.435 478.555,501.435 Q480.102,501.435 480.882,500.808 Q481.661,500.181 481.661,499.149 z" fill="#261B15"/>
    <path d="M500.845,495.458 Q500.845,497.966 499.977,499.858 Q499.11,501.751 497.499,502.765 Q495.888,503.778 493.79,503.778 Q491.716,503.778 490.093,502.765 Q488.47,501.751 487.585,499.876 Q486.7,498.001 486.688,495.552 L486.688,494.591 Q486.688,492.095 487.573,490.185 Q488.458,488.274 490.069,487.261 Q491.68,486.247 493.766,486.247 Q495.852,486.247 497.464,487.249 Q499.075,488.251 499.954,490.132 Q500.833,492.013 500.845,494.509 z M497.88,494.567 Q497.88,491.731 496.807,490.22 Q495.735,488.708 493.766,488.708 Q491.845,488.708 490.761,490.214 Q489.677,491.72 489.653,494.474 L489.653,495.458 Q489.653,498.271 490.749,499.806 Q491.845,501.341 493.79,501.341 Q495.759,501.341 496.819,499.841 Q497.88,498.341 497.88,495.458 z" fill="#261B15"/>
    <path d="M508.818,503.228 L510.232,503.228 L510.232,504.751 L508.818,504.751 L508.818,507.283 L506.919,507.283 L506.919,504.751 L502.005,504.751 L501.95,503.595 L506.857,495.908 L508.818,495.908 z M503.943,503.228 L506.919,503.228 L506.919,498.478 L506.779,498.728 z" fill="#261B15"/>
    <path d="M524.306,502.658 Q524.306,500.853 524.79,499.232 Q525.275,497.611 526.212,496.334 Q527.15,495.056 528.197,494.541 L528.572,495.65 Q527.47,496.486 526.786,498.201 Q526.103,499.916 526.04,502.126 L526.033,502.798 Q526.033,505.166 526.701,507.021 Q527.368,508.876 528.572,509.845 L528.197,510.9 Q527.15,510.384 526.208,509.099 Q525.267,507.814 524.786,506.201 Q524.306,504.587 524.306,502.658 z" fill="#261B15"/>
    <path d="M534.908,507.283 Q534.783,507.041 534.689,506.494 Q533.783,507.439 532.47,507.439 Q531.197,507.439 530.392,506.712 Q529.587,505.986 529.587,504.916 Q529.587,503.564 530.591,502.841 Q531.595,502.119 533.462,502.119 L534.626,502.119 L534.626,501.564 Q534.626,500.908 534.259,500.513 Q533.892,500.119 533.142,500.119 Q532.493,500.119 532.079,500.443 Q531.665,500.767 531.665,501.267 L529.767,501.267 Q529.767,500.572 530.228,499.966 Q530.689,499.361 531.482,499.017 Q532.275,498.673 533.251,498.673 Q534.736,498.673 535.618,499.419 Q536.501,500.166 536.525,501.517 L536.525,505.33 Q536.525,506.47 536.845,507.15 L536.845,507.283 z M532.822,505.916 Q533.384,505.916 533.88,505.642 Q534.376,505.369 534.626,504.908 L534.626,503.314 L533.603,503.314 Q532.548,503.314 532.017,503.681 Q531.486,504.048 531.486,504.72 Q531.486,505.267 531.849,505.591 Q532.212,505.916 532.822,505.916 z" fill="#261B15"/>
    <path d="M538.158,502.986 Q538.158,501.001 539.064,499.837 Q539.97,498.673 541.517,498.673 Q542.931,498.673 543.759,499.666 L543.868,498.83 L545.556,498.83 L545.556,510.533 L543.658,510.533 L543.658,506.564 Q542.829,507.439 541.501,507.439 Q539.986,507.439 539.072,506.255 Q538.158,505.072 538.158,502.986 z M540.056,503.15 Q540.056,504.447 540.568,505.185 Q541.079,505.923 541.986,505.923 Q543.111,505.923 543.658,504.962 L543.658,501.119 Q543.111,500.197 542.001,500.197 Q541.095,500.197 540.576,500.923 Q540.056,501.65 540.056,503.15 z" fill="#261B15"/>
    <path d="M551.259,502.783 Q551.259,504.517 550.783,506.13 Q550.306,507.744 549.337,509.068 Q548.368,510.392 547.314,510.9 L546.939,509.845 Q548.111,508.939 548.794,507.076 Q549.478,505.212 549.478,502.822 L549.478,502.642 Q549.478,500.47 548.884,498.685 Q548.29,496.9 547.181,495.822 L546.939,495.603 L547.314,494.541 Q548.314,495.025 549.251,496.259 Q550.189,497.494 550.689,499.021 Q551.189,500.548 551.251,502.173 z" fill="#261B15"/>
    <path d="M517.353,493.818 L509.704,493.818 L509.704,492.513 L513.493,488.38 Q514.314,487.466 514.661,486.853 Q515.009,486.24 515.009,485.622 Q515.009,484.81 514.552,484.31 Q514.095,483.81 513.322,483.81 Q512.4,483.81 511.892,484.372 Q511.384,484.935 511.384,485.912 L509.486,485.912 Q509.486,484.872 509.958,484.04 Q510.431,483.208 511.31,482.747 Q512.189,482.287 513.337,482.287 Q514.993,482.287 515.951,483.119 Q516.908,483.951 516.908,485.419 Q516.908,486.271 516.427,487.205 Q515.947,488.138 514.853,489.326 L512.072,492.302 L517.353,492.302 z" fill="#261B15"/>
    <path d="M522.603,489.747 L518.501,489.747 L518.501,488.216 L522.603,488.216 z" fill="#261B15"/>
    <path d="M388.443,343.88 Q388.443,345.81 387.56,346.989 Q386.677,348.169 385.169,348.169 Q383.63,348.169 382.747,347.192 L382.747,351.263 L381.302,351.263 L381.302,339.56 L382.622,339.56 L382.693,340.497 Q383.576,339.403 385.146,339.403 Q386.669,339.403 387.556,340.552 Q388.443,341.7 388.443,343.747 z M386.997,343.716 Q386.997,342.286 386.388,341.458 Q385.779,340.63 384.716,340.63 Q383.404,340.63 382.747,341.794 L382.747,345.833 Q383.396,346.989 384.732,346.989 Q385.771,346.989 386.384,346.165 Q386.997,345.341 386.997,343.716 z" fill="#261C15"/>
    <path d="M389.896,343.708 Q389.896,342.466 390.384,341.474 Q390.872,340.481 391.743,339.942 Q392.615,339.403 393.732,339.403 Q395.458,339.403 396.525,340.599 Q397.591,341.794 397.591,343.778 L397.591,343.88 Q397.591,345.114 397.118,346.095 Q396.646,347.075 395.767,347.622 Q394.888,348.169 393.747,348.169 Q392.029,348.169 390.962,346.974 Q389.896,345.778 389.896,343.81 z M391.349,343.88 Q391.349,345.286 392.001,346.138 Q392.654,346.989 393.747,346.989 Q394.849,346.989 395.497,346.126 Q396.146,345.263 396.146,343.708 Q396.146,342.317 395.486,341.454 Q394.826,340.591 393.732,340.591 Q392.661,340.591 392.005,341.442 Q391.349,342.294 391.349,343.88 z" fill="#261C15"/>
    <path d="M403.49,340.856 Q403.161,340.802 402.779,340.802 Q401.357,340.802 400.849,342.013 L400.849,348.013 L399.404,348.013 L399.404,339.56 L400.81,339.56 L400.833,340.536 Q401.544,339.403 402.849,339.403 Q403.271,339.403 403.49,339.513 z" fill="#261C15"/>
    <path d="M404.279,343.708 Q404.279,342.466 404.767,341.474 Q405.255,340.481 406.126,339.942 Q406.997,339.403 408.115,339.403 Q409.841,339.403 410.908,340.599 Q411.974,341.794 411.974,343.778 L411.974,343.88 Q411.974,345.114 411.501,346.095 Q411.029,347.075 410.15,347.622 Q409.271,348.169 408.13,348.169 Q406.411,348.169 405.345,346.974 Q404.279,345.778 404.279,343.81 z M405.732,343.88 Q405.732,345.286 406.384,346.138 Q407.036,346.989 408.13,346.989 Q409.232,346.989 409.88,346.126 Q410.529,345.263 410.529,343.708 Q410.529,342.317 409.868,341.454 Q409.208,340.591 408.115,340.591 Q407.044,340.591 406.388,341.442 Q405.732,342.294 405.732,343.88 z" fill="#261C15"/>
    <path d="M419.005,347.177 Q418.161,348.169 416.529,348.169 Q415.177,348.169 414.47,347.384 Q413.763,346.599 413.755,345.06 L413.755,339.56 L415.201,339.56 L415.201,345.02 Q415.201,346.942 416.763,346.942 Q418.419,346.942 418.966,345.708 L418.966,339.56 L420.411,339.56 L420.411,348.013 L419.036,348.013 z" fill="#261C15"/>
    <path d="M427.529,345.77 Q427.529,345.185 427.087,344.86 Q426.646,344.536 425.548,344.302 Q424.451,344.067 423.806,343.739 Q423.161,343.411 422.853,342.958 Q422.544,342.505 422.544,341.88 Q422.544,340.841 423.423,340.122 Q424.302,339.403 425.669,339.403 Q427.107,339.403 428.001,340.145 Q428.896,340.888 428.896,342.044 L427.443,342.044 Q427.443,341.45 426.939,341.02 Q426.435,340.591 425.669,340.591 Q424.88,340.591 424.435,340.935 Q423.99,341.278 423.99,341.833 Q423.99,342.356 424.404,342.622 Q424.818,342.888 425.9,343.13 Q426.982,343.372 427.654,343.708 Q428.326,344.044 428.65,344.517 Q428.974,344.989 428.974,345.669 Q428.974,346.802 428.068,347.485 Q427.161,348.169 425.716,348.169 Q424.701,348.169 423.919,347.81 Q423.138,347.45 422.697,346.806 Q422.255,346.161 422.255,345.411 L423.701,345.411 Q423.74,346.138 424.283,346.563 Q424.826,346.989 425.716,346.989 Q426.536,346.989 427.033,346.657 Q427.529,346.325 427.529,345.77 z" fill="#261C15"/>
    <path d="M439.74,345.77 Q439.74,345.185 439.298,344.86 Q438.857,344.536 437.759,344.302 Q436.661,344.067 436.017,343.739 Q435.372,343.411 435.064,342.958 Q434.755,342.505 434.755,341.88 Q434.755,340.841 435.634,340.122 Q436.513,339.403 437.88,339.403 Q439.318,339.403 440.212,340.145 Q441.107,340.888 441.107,342.044 L439.654,342.044 Q439.654,341.45 439.15,341.02 Q438.646,340.591 437.88,340.591 Q437.091,340.591 436.646,340.935 Q436.201,341.278 436.201,341.833 Q436.201,342.356 436.615,342.622 Q437.029,342.888 438.111,343.13 Q439.193,343.372 439.865,343.708 Q440.536,344.044 440.861,344.517 Q441.185,344.989 441.185,345.669 Q441.185,346.802 440.279,347.485 Q439.372,348.169 437.927,348.169 Q436.911,348.169 436.13,347.81 Q435.349,347.45 434.908,346.806 Q434.466,346.161 434.466,345.411 L435.911,345.411 Q435.951,346.138 436.493,346.563 Q437.036,346.989 437.927,346.989 Q438.747,346.989 439.243,346.657 Q439.74,346.325 439.74,345.77 z" fill="#261C15"/>
    <path d="M446.576,348.169 Q444.857,348.169 443.779,347.04 Q442.701,345.911 442.701,344.02 L442.701,343.755 Q442.701,342.497 443.181,341.509 Q443.661,340.52 444.525,339.962 Q445.388,339.403 446.396,339.403 Q448.044,339.403 448.958,340.489 Q449.872,341.575 449.872,343.599 L449.872,344.2 L444.146,344.2 Q444.177,345.45 444.876,346.22 Q445.576,346.989 446.654,346.989 Q447.419,346.989 447.951,346.677 Q448.482,346.364 448.88,345.849 L449.763,346.536 Q448.701,348.169 446.576,348.169 z M446.396,340.591 Q445.521,340.591 444.927,341.227 Q444.333,341.864 444.193,343.013 L448.427,343.013 L448.427,342.903 Q448.365,341.802 447.833,341.196 Q447.302,340.591 446.396,340.591 z" fill="#261C15"/>
    <path d="M458.685,343.88 Q458.685,345.81 457.802,346.989 Q456.919,348.169 455.411,348.169 Q453.872,348.169 452.99,347.192 L452.99,351.263 L451.544,351.263 L451.544,339.56 L452.865,339.56 L452.935,340.497 Q453.818,339.403 455.388,339.403 Q456.911,339.403 457.798,340.552 Q458.685,341.7 458.685,343.747 z M457.24,343.716 Q457.24,342.286 456.63,341.458 Q456.021,340.63 454.958,340.63 Q453.646,340.63 452.99,341.794 L452.99,345.833 Q453.638,346.989 454.974,346.989 Q456.013,346.989 456.626,346.165 Q457.24,345.341 457.24,343.716 z" fill="#261C15"/>
    <path d="M465.74,348.013 Q465.615,347.763 465.536,347.122 Q464.529,348.169 463.13,348.169 Q461.88,348.169 461.079,347.462 Q460.279,346.755 460.279,345.669 Q460.279,344.349 461.283,343.618 Q462.286,342.888 464.107,342.888 L465.513,342.888 L465.513,342.224 Q465.513,341.466 465.06,341.017 Q464.607,340.567 463.724,340.567 Q462.951,340.567 462.427,340.958 Q461.904,341.349 461.904,341.903 L460.451,341.903 Q460.451,341.27 460.9,340.681 Q461.349,340.091 462.118,339.747 Q462.888,339.403 463.81,339.403 Q465.271,339.403 466.099,340.134 Q466.927,340.864 466.958,342.145 L466.958,346.036 Q466.958,347.2 467.255,347.888 L467.255,348.013 z M463.341,346.911 Q464.021,346.911 464.63,346.56 Q465.24,346.208 465.513,345.645 L465.513,343.911 L464.38,343.911 Q461.724,343.911 461.724,345.466 Q461.724,346.145 462.177,346.528 Q462.63,346.911 463.341,346.911 z" fill="#261C15"/>
    <path d="M473.31,340.856 Q472.982,340.802 472.599,340.802 Q471.177,340.802 470.669,342.013 L470.669,348.013 L469.224,348.013 L469.224,339.56 L470.63,339.56 L470.654,340.536 Q471.365,339.403 472.669,339.403 Q473.091,339.403 473.31,339.513 z" fill="#261C15"/>
    <path d="M479.544,348.013 Q479.419,347.763 479.341,347.122 Q478.333,348.169 476.935,348.169 Q475.685,348.169 474.884,347.462 Q474.083,346.755 474.083,345.669 Q474.083,344.349 475.087,343.618 Q476.091,342.888 477.911,342.888 L479.318,342.888 L479.318,342.224 Q479.318,341.466 478.865,341.017 Q478.411,340.567 477.529,340.567 Q476.755,340.567 476.232,340.958 Q475.708,341.349 475.708,341.903 L474.255,341.903 Q474.255,341.27 474.704,340.681 Q475.154,340.091 475.923,339.747 Q476.693,339.403 477.615,339.403 Q479.076,339.403 479.904,340.134 Q480.732,340.864 480.763,342.145 L480.763,346.036 Q480.763,347.2 481.06,347.888 L481.06,348.013 z M477.146,346.911 Q477.826,346.911 478.435,346.56 Q479.044,346.208 479.318,345.645 L479.318,343.911 L478.185,343.911 Q475.529,343.911 475.529,345.466 Q475.529,346.145 475.982,346.528 Q476.435,346.911 477.146,346.911 z" fill="#261C15"/>
    <path d="M484.99,337.513 L484.99,339.56 L486.568,339.56 L486.568,340.677 L484.99,340.677 L484.99,345.919 Q484.99,346.427 485.201,346.681 Q485.411,346.935 485.919,346.935 Q486.169,346.935 486.607,346.841 L486.607,348.013 Q486.036,348.169 485.497,348.169 Q484.529,348.169 484.036,347.583 Q483.544,346.997 483.544,345.919 L483.544,340.677 L482.005,340.677 L482.005,339.56 L483.544,339.56 L483.544,337.513 z" fill="#261C15"/>
    <path d="M487.716,343.708 Q487.716,342.466 488.204,341.474 Q488.693,340.481 489.564,339.942 Q490.435,339.403 491.552,339.403 Q493.279,339.403 494.345,340.599 Q495.411,341.794 495.411,343.778 L495.411,343.88 Q495.411,345.114 494.939,346.095 Q494.466,347.075 493.587,347.622 Q492.708,348.169 491.568,348.169 Q489.849,348.169 488.783,346.974 Q487.716,345.778 487.716,343.81 z M489.169,343.88 Q489.169,345.286 489.822,346.138 Q490.474,346.989 491.568,346.989 Q492.669,346.989 493.318,346.126 Q493.966,345.263 493.966,343.708 Q493.966,342.317 493.306,341.454 Q492.646,340.591 491.552,340.591 Q490.482,340.591 489.826,341.442 Q489.169,342.294 489.169,343.88 z" fill="#261C15"/>
    <path d="M501.31,340.856 Q500.982,340.802 500.599,340.802 Q499.177,340.802 498.669,342.013 L498.669,348.013 L497.224,348.013 L497.224,339.56 L498.63,339.56 L498.654,340.536 Q499.365,339.403 500.669,339.403 Q501.091,339.403 501.31,339.513 z" fill="#261C15"/>
  </g>
</svg>
