<?xml version="1.0" standalone="yes"?><!DOCTYPE svg PUBLIC "-//W3C//DTD SVG 1.1//EN" "http://www.w3.org/Graphics/SVG/1.1/DTD/svg11.dtd"[
<!ENTITY E14 'shape-rendering:geometricPrecision;'><!ENTITY E4 'stroke-dasharray:9.88 9.88 3.29 3.29 ;stroke:rgb(192,192,192);fill:none;stroke-linecap:butt;stroke-miterlimit:9;opacity:1;stroke-width:1.814882;stroke-linejoin:miter;'><!ENTITY E5 'stroke:rgb(38,28,21);fill:none;stroke-linecap:round;stroke-miterlimit:9;opacity:1;stroke-width:3.629764;stroke-linejoin:miter;'><!ENTITY E12 'stroke-dasharray:9.88 9.88 ;stroke:rgb(192,192,192);fill:none;stroke-linecap:butt;stroke-miterlimit:9;opacity:1;stroke-width:1.814882;stroke-linejoin:miter;'><!ENTITY E6 'fill-opacity:1;stroke:none;font-size:25.41pt;fill:rgb(38,28,21);font-family:Roboto;opacity:1;'><!ENTITY E15 'matrix(1.00 0.00 0.00 1.00 154.00 40.00 ) '><!ENTITY E17 'stroke:rgb(0,0,0);fill:none;stroke-linecap:butt;stroke-miterlimit:9;opacity:1;stroke-width:1.814882;stroke-linejoin:miter;'><!ENTITY E8 'stroke:rgb(38,28,21);fill:none;stroke-linecap:square;stroke-miterlimit:9;opacity:1;stroke-width:3.629764;stroke-linejoin:miter;'><!ENTITY E20 'stroke:none;fill-opacity:1;opacity:1;fill:rgb(255,0,0);'><!ENTITY E21 'stroke:rgb(255,255,255);fill:none;stroke-linecap:butt;stroke-miterlimit:9;opacity:0;stroke-width:0;stroke-linejoin:miter;'><!ENTITY E9 'fill-opacity:1;stroke:none;font-size:39.47pt;fill:rgb(38,28,21);font-family:Roboto;opacity:1;'><!ENTITY E16 'stroke:none;fill-opacity:1;opacity:1;fill:rgb(123,104,238);'><!ENTITY E10 'matrix(0.00 -1.00 1.00 0.00 -357.99 496.01 ) '><!ENTITY E7 'matrix(1.00 0.00 0.00 1.00 0.00 0.00 ) '>
]><svg id="SvgGdi_output" xmlns="http://www.w3.org/2000/svg"><rect id="background" height="100.00%" style="fill:rgb(240,240,240);" width="100.00%" y="0.00" x="0.00" /><g id="root_group" style="text-rendering:auto;shape-rendering:geometricPrecision;"><rect id="1043" height="968.00" width="1004.00" y="-2.00" x="-2.00" style="fill:url(#1044_LinearGradientBrush);" /><rect id="1047" height="774.00" width="814.00" y="40.00" x="154.00" style="stroke:none;fill-opacity:0;opacity:0;fill:rgb(255,255,255);" /><line y1="67.64" style="&E4;" id="1048" x2="968.00" y2="67.64" x1="154.00" /><line y1="195.36" style="&E4;" id="1049" x2="968.00" y2="195.36" x1="154.00" /><line y1="323.08" style="&E4;" id="1050" x2="968.00" y2="323.08" x1="154.00" /><line y1="450.80" style="&E4;" id="1051" x2="968.00" y2="450.80" x1="154.00" /><line y1="578.52" style="&E4;" id="1052" x2="968.00" y2="578.52" x1="154.00" /><line y1="706.24" style="&E4;" id="1053" x2="968.00" y2="706.24" x1="154.00" /><polyline style="&E5;" points="154.00 814.00 154.00 40.00 " id="1054" /><polyline style="&E5;" points="144.93 67.64 154.05 67.64 " id="1057" /><polyline style="&E5;" points="144.93 195.36 154.05 195.36 " id="1058" /><polyline style="&E5;" points="144.93 323.08 154.05 323.08 " id="1059" /><polyline style="&E5;" points="144.93 450.80 154.05 450.80 " id="1060" /><polyline style="&E5;" points="144.93 578.52 154.05 578.52 " id="1061" /><polyline style="&E5;" points="144.93 706.24 154.05 706.24 " id="1062" /><text id="1063" style="&E6;" transform="&E7;" x="103.25" y="47.31"><tspan dy="25.41pt" id="1065">14</tspan></text><text id="1067" style="&E6;" transform="&E7;" x="103.25" y="175.03"><tspan dy="25.41pt" id="1069">12</tspan></text><text id="1071" style="&E6;" transform="&E7;" x="103.25" y="302.75"><tspan dy="25.41pt" id="1073">10</tspan></text><text id="1075" style="&E6;" transform="&E7;" x="122.27" y="430.47"><tspan dy="25.41pt" id="1077">8</tspan></text><text id="1079" style="&E6;" transform="&E7;" x="122.27" y="558.19"><tspan dy="25.41pt" id="1081">6</tspan></text><text id="1083" style="&E6;" transform="&E7;" x="122.27" y="685.91"><tspan dy="25.41pt" id="1085">4</tspan></text><polyline style="&E8;" points="149.46 42.00 154.00 42.00 " id="1089" /><polyline style="&E8;" points="149.46 93.00 154.00 93.00 " id="1092" /><polyline style="&E8;" points="149.46 119.00 154.00 119.00 " id="1093" /><polyline style="&E8;" points="149.46 144.00 154.00 144.00 " id="1094" /><polyline style="&E8;" points="149.46 170.00 154.00 170.00 " id="1095" /><polyline style="&E8;" points="149.46 221.00 154.00 221.00 " id="1098" /><polyline style="&E8;" points="149.46 246.00 154.00 246.00 " id="1099" /><polyline style="&E8;" points="149.46 272.00 154.00 272.00 " id="1100" /><polyline style="&E8;" points="149.46 298.00 154.00 298.00 " id="1101" /><polyline style="&E8;" points="149.46 349.00 154.00 349.00 " id="1104" /><polyline style="&E8;" points="149.46 374.00 154.00 374.00 " id="1105" /><polyline style="&E8;" points="149.46 400.00 154.00 400.00 " id="1106" /><polyline style="&E8;" points="149.46 425.00 154.00 425.00 " id="1107" /><polyline style="&E8;" points="149.46 476.00 154.00 476.00 " id="1110" /><polyline style="&E8;" points="149.46 502.00 154.00 502.00 " id="1111" /><polyline style="&E8;" points="149.46 527.00 154.00 527.00 " id="1112" /><polyline style="&E8;" points="149.46 553.00 154.00 553.00 " id="1113" /><polyline style="&E8;" points="149.46 604.00 154.00 604.00 " id="1116" /><polyline style="&E8;" points="149.46 630.00 154.00 630.00 " id="1117" /><polyline style="&E8;" points="149.46 655.00 154.00 655.00 " id="1118" /><polyline style="&E8;" points="149.46 681.00 154.00 681.00 " id="1119" /><polyline style="&E8;" points="149.46 732.00 154.00 732.00 " id="1122" /><polyline style="&E8;" points="149.46 757.00 154.00 757.00 " id="1123" /><polyline style="&E8;" points="149.46 783.00 154.00 783.00 " id="1124" /><polyline style="&E8;" points="149.46 808.00 154.00 808.00 " id="1125" /><text id="1126" style="&E9;" transform="&E10;" x="8.72" y="396.07"><tspan dy="39.47pt" id="1128">R / </tspan></text><text id="1130" transform="&E10;" x="88.88" y="394.76" style="fill-opacity:1;stroke:none;font-size:39.47pt;fill:rgb(38,28,21);font-family:Symbol;opacity:1;"><tspan dy="39.47pt" id="1132">W</tspan></text><text id="1134" style="&E9;" transform="&E10;" x="129.30" y="396.07"><tspan dy="39.47pt" id="1136"></tspan></text><polyline style="&E5;" points="968.00 814.00 968.00 40.00 " id="1138" /><line y1="814.00" style="&E12;" id="1139" x2="221.50" y2="40.00" x1="221.50" /><line y1="814.00" style="&E12;" id="1140" x2="390.25" y2="40.00" x1="390.25" /><line y1="814.00" style="&E12;" id="1141" x2="559.00" y2="40.00" x1="559.00" /><line y1="814.00" style="&E12;" id="1142" x2="727.75" y2="40.00" x1="727.75" /><line y1="814.00" style="&E12;" id="1143" x2="896.50" y2="40.00" x1="896.50" /><polyline style="&E5;" points="154.00 814.00 968.00 814.00 " id="1144" /><polyline style="&E5;" points="221.50 823.13 221.50 814.00 " id="1147" /><polyline style="&E5;" points="390.25 823.13 390.25 814.00 " id="1148" /><polyline style="&E5;" points="559.00 823.13 559.00 814.00 " id="1149" /><polyline style="&E5;" points="727.75 823.13 727.75 814.00 " id="1150" /><polyline style="&E5;" points="896.50 823.13 896.50 814.00 " id="1151" /><text id="1152" style="&E6;" transform="&E7;" x="211.99" y="826.70"><tspan dy="25.41pt" id="1154">1</tspan></text><text id="1156" style="&E6;" transform="&E7;" x="380.74" y="826.70"><tspan dy="25.41pt" id="1158">2</tspan></text><text id="1160" style="&E6;" transform="&E7;" x="549.49" y="826.70"><tspan dy="25.41pt" id="1162">3</tspan></text><text id="1164" style="&E6;" transform="&E7;" x="718.24" y="826.70"><tspan dy="25.41pt" id="1166">4</tspan></text><text id="1168" style="&E6;" transform="&E7;" x="886.99" y="826.70"><tspan dy="25.41pt" id="1170">5</tspan></text><polyline style="&E8;" points="154.00 818.54 154.00 814.00 " id="1174" /><polyline style="&E8;" points="187.75 818.54 187.75 814.00 " id="1175" /><polyline style="&E8;" points="255.25 818.54 255.25 814.00 " id="1178" /><polyline style="&E8;" points="289.00 818.54 289.00 814.00 " id="1179" /><polyline style="&E8;" points="322.75 818.54 322.75 814.00 " id="1180" /><polyline style="&E8;" points="356.50 818.54 356.50 814.00 " id="1181" /><polyline style="&E8;" points="424.00 818.54 424.00 814.00 " id="1184" /><polyline style="&E8;" points="457.75 818.54 457.75 814.00 " id="1185" /><polyline style="&E8;" points="491.50 818.54 491.50 814.00 " id="1186" /><polyline style="&E8;" points="525.25 818.54 525.25 814.00 " id="1187" /><polyline style="&E8;" points="592.75 818.54 592.75 814.00 " id="1190" /><polyline style="&E8;" points="626.50 818.54 626.50 814.00 " id="1191" /><polyline style="&E8;" points="660.25 818.54 660.25 814.00 " id="1192" /><polyline style="&E8;" points="694.00 818.54 694.00 814.00 " id="1193" /><polyline style="&E8;" points="761.50 818.54 761.50 814.00 " id="1196" /><polyline style="&E8;" points="795.25 818.54 795.25 814.00 " id="1197" /><polyline style="&E8;" points="829.00 818.54 829.00 814.00 " id="1198" /><polyline style="&E8;" points="862.75 818.54 862.75 814.00 " id="1199" /><polyline style="&E8;" points="930.25 818.54 930.25 814.00 " id="1202" /><polyline style="&E8;" points="964.00 818.54 964.00 814.00 " id="1203" /><text id="1204" style="&E9;" transform="&E7;" x="352.54" y="869.36"><tspan dy="39.47pt" id="1206">Number of Layers</tspan></text><polyline style="&E5;" points="154.00 40.00 968.00 40.00 " id="1208" /><g id="1209_BeginContainer" style="clip-path:url(#1210_SetClip);shape-rendering:geometricPrecision;"><g style="&E14;" id="1212_BeginContainer"><ellipse id="1213" cy="705.83" cx="67.50" transform="&E15;" rx="8.17" ry="8.17" style="&E16;" /><ellipse id="1214" cy="705.83" cx="67.50" transform="&E15;" rx="8.17" ry="8.17" style="&E17;" /><ellipse id="1215" cy="539.81" cx="236.25" transform="&E15;" rx="8.17" ry="8.17" style="&E16;" /><ellipse id="1216" cy="539.81" cx="236.25" transform="&E15;" rx="8.17" ry="8.17" style="&E17;" /><ellipse id="1217" cy="388.80" cx="405.00" transform="&E15;" rx="8.17" ry="8.17" style="&E16;" /><ellipse id="1218" cy="388.80" cx="405.00" transform="&E15;" rx="8.17" ry="8.17" style="&E17;" /><ellipse id="1219" cy="233.10" cx="573.75" transform="&E15;" rx="8.17" ry="8.17" style="&E16;" /><ellipse id="1220" cy="233.10" cx="573.75" transform="&E15;" rx="8.17" ry="8.17" style="&E17;" /><ellipse id="1221" cy="64.17" cx="742.50" transform="&E15;" rx="8.17" ry="8.17" style="&E16;" /><ellipse id="1222" cy="64.17" cx="742.50" transform="&E15;" rx="8.17" ry="8.17" style="&E17;" /></g><g style="&E14;" id="1223_BeginContainer"><polyline transform="&E15;" id="1224" points="67.50 704.35 236.25 545.34 405.00 386.34 573.75 227.34 742.50 68.33 " style="stroke:rgb(0,0,255);fill:none;stroke-linecap:butt;stroke-miterlimit:9;opacity:1;stroke-width:3.629764;stroke-linejoin:round;" /></g><g style="&E14;" id="1225_BeginContainer"><ellipse id="1226" cy="704.35" cx="67.50" transform="&E15;" rx="3.63" ry="3.63" style="&E20;" /><ellipse id="1227" cy="704.35" cx="67.50" transform="&E15;" rx="3.63" ry="3.63" style="&E21;" /><ellipse id="1228" cy="545.34" cx="236.25" transform="&E15;" rx="3.63" ry="3.63" style="&E20;" /><ellipse id="1229" cy="545.34" cx="236.25" transform="&E15;" rx="3.63" ry="3.63" style="&E21;" /><ellipse id="1230" cy="386.34" cx="405.00" transform="&E15;" rx="3.63" ry="3.63" style="&E20;" /><ellipse id="1231" cy="386.34" cx="405.00" transform="&E15;" rx="3.63" ry="3.63" style="&E21;" /><ellipse id="1232" cy="227.34" cx="573.75" transform="&E15;" rx="3.63" ry="3.63" style="&E20;" /><ellipse id="1233" cy="227.34" cx="573.75" transform="&E15;" rx="3.63" ry="3.63" style="&E21;" /><ellipse id="1234" cy="68.33" cx="742.50" transform="&E15;" rx="3.63" ry="3.63" style="&E20;" /><ellipse id="1235" cy="68.33" cx="742.50" transform="&E15;" rx="3.63" ry="3.63" style="&E21;" /></g></g></g><defs id="clips_hatches_and_gradients"><linearGradient y1="-2.00" gradientUnits="userSpaceOnUse" spreadMethod="repeat" id="1044_LinearGradientBrush" x2="1002.00" y2="966.00" x1="-2.00"><stop offset="0.00%" style="stop-color:rgb(255,255,255);" id="1045" /><stop offset="100.00%" style="stop-color:rgb(255,255,255);" id="1046" /></linearGradient><clipPath id="1055_SetClip"><rect x="144.93" y="40.00" width="9.07" height="774.00" id="1056" /></clipPath><clipPath id="1087_SetClip"><rect x="149.46" y="40.00" width="4.54" height="774.00" id="1088" /></clipPath><clipPath id="1090_SetClip"><rect x="149.46" y="40.00" width="4.54" height="774.00" id="1091" /></clipPath><clipPath id="1096_SetClip"><rect x="149.46" y="40.00" width="4.54" height="774.00" id="1097" /></clipPath><clipPath id="1102_SetClip"><rect x="149.46" y="40.00" width="4.54" height="774.00" id="1103" /></clipPath><clipPath id="1108_SetClip"><rect x="149.46" y="40.00" width="4.54" height="774.00" id="1109" /></clipPath><clipPath id="1114_SetClip"><rect x="149.46" y="40.00" width="4.54" height="774.00" id="1115" /></clipPath><clipPath id="1120_SetClip"><rect x="149.46" y="40.00" width="4.54" height="774.00" id="1121" /></clipPath><clipPath id="1145_SetClip"><rect x="154.00" y="40.00" width="814.00" height="783.07" id="1146" /></clipPath><clipPath id="1172_SetClip"><rect x="154.00" y="40.00" width="814.00" height="778.54" id="1173" /></clipPath><clipPath id="1176_SetClip"><rect x="154.00" y="40.00" width="814.00" height="778.54" id="1177" /></clipPath><clipPath id="1182_SetClip"><rect x="154.00" y="40.00" width="814.00" height="778.54" id="1183" /></clipPath><clipPath id="1188_SetClip"><rect x="154.00" y="40.00" width="814.00" height="778.54" id="1189" /></clipPath><clipPath id="1194_SetClip"><rect x="154.00" y="40.00" width="814.00" height="778.54" id="1195" /></clipPath><clipPath id="1200_SetClip"><rect x="154.00" y="40.00" width="814.00" height="778.54" id="1201" /></clipPath><clipPath id="1210_SetClip"><rect x="154.00" y="40.00" width="814.00" height="774.00" id="1211" /></clipPath></defs></svg>