<?xml version="1.0" encoding="UTF-8"?>
<!DOCTYPE svg PUBLIC "-//W3C//DTD SVG 1.1//EN" "http://www.w3.org/Graphics/SVG/1.1/DTD/svg11.dtd">
<svg version="1.1" xmlns="http://www.w3.org/2000/svg" xmlns:xlink="http://www.w3.org/1999/xlink" x="0" y="0" width="473.455" height="102.051" viewBox="0, 0, 473.455, 102.051">
  <g id="Layer_1" transform="translate(-305.688, -27.483)">
    <path d="M397.351,78.249 L385.623,78.249 L383.133,69.519 L378.431,87.084 L373.452,69.413 L368.971,86.979 L364.236,69.681 L359.598,86.973 L354.839,69.758 L352.421,78.186 L339.805,78.186 L339.805,113.398 L425.046,112.715" fill-opacity="0" stroke="#01B636" stroke-width="2" stroke-linejoin="bevel"/>
    <path d="M437.774,77.684 L453.432,77.684" fill-opacity="0" stroke="#01B636" stroke-width="2"/>
    <path d="M397.351,68.849 L437.774,68.849 L437.774,86.519 L397.351,86.519 L397.351,68.849 z" fill-opacity="0" stroke="#01B636" stroke-width="2"/>
    <path d="M407.188,79.836 L411.746,79.836 L411.746,81.019 L405.395,81.019 L405.395,80.058 L409.807,73.683 L405.424,73.683 L405.424,72.488 L411.606,72.488 L411.606,73.425 z" fill="#01B636"/>
    <path d="M416.488,80.437 L413.913,80.437 L413.913,83.148 L412.801,83.148 L412.801,76.75 L416.866,76.75 L416.866,77.646 L413.913,77.646 L413.913,79.549 L416.488,79.549 z" fill="#01B636"/>
    <path d="M418.857,82.261 L421.761,82.261 L421.761,83.148 L417.745,83.148 L417.745,76.75 L418.857,76.75 z" fill="#01B636"/>
    <path d="M427.224,81.566 L428.208,76.75 L429.311,76.75 L427.835,83.148 L426.771,83.148 L425.554,78.477 L424.31,83.148 L423.242,83.148 L421.766,76.75 L422.869,76.75 L423.862,81.558 L425.084,76.75 L426.015,76.75 z" fill="#01B636"/>
    <path d="M453.986,68.849 L494.409,68.849 L494.409,86.519 L453.986,86.519 L453.986,68.849 z" fill-opacity="0" stroke="#01B636" stroke-width="2"/>
    <path d="M463.823,79.836 L468.381,79.836 L468.381,81.019 L462.03,81.019 L462.03,80.058 L466.442,73.683 L462.059,73.683 L462.059,72.488 L468.241,72.488 L468.241,73.425 z" fill="#01B636"/>
    <path d="M473.123,80.437 L470.548,80.437 L470.548,83.148 L469.436,83.148 L469.436,76.75 L473.501,76.75 L473.501,77.646 L470.548,77.646 L470.548,79.549 L473.123,79.549 z" fill="#01B636"/>
    <path d="M477.724,81.501 Q477.724,81.079 477.427,80.85 Q477.131,80.622 476.357,80.389 Q475.584,80.156 475.127,79.87 Q474.252,79.321 474.252,78.438 Q474.252,77.664 474.883,77.163 Q475.514,76.662 476.52,76.662 Q477.188,76.662 477.711,76.908 Q478.234,77.154 478.533,77.609 Q478.831,78.064 478.831,78.618 L477.724,78.618 Q477.724,78.117 477.41,77.833 Q477.096,77.55 476.511,77.55 Q475.966,77.55 475.665,77.783 Q475.364,78.016 475.364,78.433 Q475.364,78.785 475.689,79.02 Q476.015,79.255 476.762,79.477 Q477.509,79.699 477.961,79.982 Q478.414,80.266 478.625,80.633 Q478.836,81 478.836,81.492 Q478.836,82.292 478.223,82.764 Q477.61,83.236 476.559,83.236 Q475.865,83.236 475.283,82.979 Q474.701,82.722 474.378,82.27 Q474.055,81.817 474.055,81.215 L475.166,81.215 Q475.166,81.76 475.527,82.059 Q475.887,82.357 476.559,82.357 Q477.14,82.357 477.432,82.122 Q477.724,81.887 477.724,81.501 z" fill="#01B636"/>
    <path d="M484.83,81.566 L485.814,76.75 L486.917,76.75 L485.441,83.148 L484.377,83.148 L483.16,78.477 L481.916,83.148 L480.849,83.148 L479.372,76.75 L480.475,76.75 L481.468,81.558 L482.69,76.75 L483.621,76.75 z" fill="#01B636"/>
    <path d="M494.108,77.684 L509.766,77.684 L509.766,112.896 L431.774,112.81" fill-opacity="0" stroke="#01B636" stroke-width="2"/>
    <path d="M421.737,125.034 L425.046,112.715 L421.737,100.397" fill-opacity="0" stroke="#01B636" stroke-width="2"/>
    <path d="M428.464,125.034 L431.774,112.715 L428.464,100.397" fill-opacity="0" stroke="#01B636" stroke-width="2"/>
    <path d="M510.515,95.227 L523.131,95.227 L525.549,86.8 L530.307,104.014 L534.945,86.723 L539.68,104.02 L544.161,86.455 L549.14,104.125 L553.843,86.56 L556.332,95.29 L568.061,95.29" fill-opacity="0" stroke="#01B636" stroke-width="2" stroke-linejoin="bevel"/>
    <path d="M568.061,95.291 L580.677,95.291 L583.095,86.864 L587.853,104.079 L592.491,86.787 L597.226,104.085 L601.707,86.519 L606.686,104.19 L611.389,86.624 L613.878,95.354 L625.607,95.354" fill-opacity="0" stroke="#01B636" stroke-width="2" stroke-linejoin="bevel"/>
    <path d="M625.607,95.291 L638.223,95.291 L640.641,86.864 L645.399,104.079 L650.037,86.787 L654.772,104.085 L659.253,86.519 L664.232,104.19 L668.935,86.624 L671.424,95.354 L688.581,95.354" fill-opacity="0" stroke="#01B636" stroke-width="2" stroke-linejoin="bevel"/>
    <path d="M721.314,113.055 L746.127,112.928 L746.127,77.684 L734.398,77.684 L731.909,68.954 L727.206,86.519 L722.227,68.849 L717.746,86.414 L713.011,69.117 L708.373,86.408 L703.615,69.193 L701.197,77.621 L688.581,77.621 L688.581,112.833 L714.139,113.055" fill-opacity="0" stroke="#01B636" stroke-width="2" stroke-linejoin="bevel"/>
    <path d="M763.283,95.036 L746.127,95.036" fill-opacity="0" stroke="#01B636" stroke-width="2"/>
    <path d="M714.645,112.715" fill-opacity="0" stroke="#01B636" stroke-width="2"/>
    <path d="M721.372,112.81" fill-opacity="0" stroke="#01B636" stroke-width="2"/>
    <path d="M711.335,125.034 L714.645,112.715 L711.336,100.397" fill-opacity="0" stroke="#01B636" stroke-width="2"/>
    <path d="M718.063,125.034 L721.372,112.715 L718.063,100.397" fill-opacity="0" stroke="#01B636" stroke-width="2"/>
    <path d="M339.805,95.354 L322.649,95.354" fill-opacity="0" stroke="#01B636" stroke-width="2"/>
    <path d="M322.649,41.54 L322.649,95.354" fill-opacity="0" stroke="#CF0000" stroke-width="2"/>
    <path d="M569.27,41.54 L569.27,95.354" fill-opacity="0" stroke="#CF0000" stroke-width="2"/>
    <path d="M626.401,41.54 L626.401,95.354" fill-opacity="0" stroke="#3248CF" stroke-width="2"/>
    <path d="M763.283,41.54 L763.283,95.354" fill-opacity="0" stroke="#2844D8" stroke-width="2"/>
    <path d="M312.965,34.931 L314.278,28.509 L315.748,28.509 L313.78,37.04 L312.362,37.04 L310.739,30.811 L309.08,37.04 L307.656,37.04 L305.688,28.509 L307.158,28.509 L308.483,34.919 L310.112,28.509 L311.354,28.509 z" fill="#E60000"/>
    <path d="M321.819,33.231 L318.315,33.231 L318.315,35.856 L322.41,35.856 L322.41,37.04 L316.832,37.04 L316.832,28.509 L322.369,28.509 L322.369,29.704 L318.315,29.704 L318.315,32.059 L321.819,32.059 z" fill="#E60000"/>
    <path d="M326.489,33.571 Q326.489,32.218 326.852,31.002 Q327.215,29.786 327.918,28.828 Q328.621,27.87 329.406,27.483 L329.688,28.315 Q328.862,28.942 328.349,30.228 Q327.836,31.515 327.789,33.173 L327.783,33.677 Q327.783,35.452 328.284,36.844 Q328.785,38.235 329.688,38.962 L329.406,39.753 Q328.621,39.366 327.915,38.402 Q327.209,37.438 326.849,36.228 Q326.489,35.018 326.489,33.571 z" fill="#E60000"/>
    <path d="M333.942,32.347 L336.168,32.347 L336.168,33.647 L333.942,33.647 L333.942,36.184 L332.559,36.184 L332.559,33.647 L330.321,33.647 L330.321,32.347 L332.559,32.347 L332.559,29.973 L333.942,29.973 z" fill="#E60000"/>
    <path d="M340.082,33.665 Q340.082,34.966 339.725,36.176 Q339.367,37.386 338.641,38.379 Q337.914,39.372 337.123,39.753 L336.842,38.962 Q337.721,38.282 338.234,36.885 Q338.746,35.487 338.746,33.694 L338.746,33.559 Q338.746,31.931 338.301,30.592 Q337.856,29.253 337.024,28.444 L336.842,28.28 L337.123,27.483 Q337.873,27.847 338.576,28.772 Q339.28,29.698 339.655,30.844 Q340.03,31.989 340.076,33.208 z" fill="#E60000"/>
    <path d="M561.985,33.753 L560.333,33.753 L560.333,37.04 L558.851,37.04 L558.851,28.509 L561.851,28.509 Q563.327,28.509 564.13,29.171 Q564.933,29.833 564.933,31.087 Q564.933,31.942 564.52,32.519 Q564.107,33.097 563.368,33.407 L565.284,36.964 L565.284,37.04 L563.696,37.04 z M560.333,32.563 L561.857,32.563 Q562.607,32.563 563.028,32.185 Q563.45,31.807 563.45,31.151 Q563.45,30.466 563.061,30.091 Q562.671,29.716 561.898,29.704 L560.333,29.704 z" fill="#E60000"/>
    <path d="M571.325,33.231 L567.821,33.231 L567.821,35.856 L571.917,35.856 L571.917,37.04 L566.339,37.04 L566.339,28.509 L571.876,28.509 L571.876,29.704 L567.821,29.704 L567.821,32.059 L571.325,32.059 z" fill="#E60000"/>
    <path d="M619.975,33.753 L618.323,33.753 L618.323,37.04 L616.84,37.04 L616.84,28.509 L619.84,28.509 Q621.317,28.509 622.12,29.171 Q622.922,29.833 622.922,31.087 Q622.922,31.942 622.509,32.519 Q622.096,33.097 621.358,33.407 L623.274,36.964 L623.274,37.04 L621.686,37.04 z M618.323,32.563 L619.846,32.563 Q620.596,32.563 621.018,32.185 Q621.44,31.807 621.44,31.151 Q621.44,30.466 621.05,30.091 Q620.661,29.716 619.887,29.704 L618.323,29.704 z" fill="#2844D8"/>
    <path d="M629.315,33.231 L625.811,33.231 L625.811,35.856 L629.907,35.856 L629.907,37.04 L624.329,37.04 L624.329,28.509 L629.866,28.509 L629.866,29.704 L625.811,29.704 L625.811,32.059 L629.315,32.059 z" fill="#2844D8"/>
    <path d="M575.464,39.894 L574.401,39.894 L574.401,34.757 L572.832,35.293 L572.832,34.392 L575.328,33.473 L575.464,33.473 z" fill="#E60000"/>
    <path d="M634.913,39.894 L630.61,39.894 L630.61,39.16 L632.742,36.835 Q633.203,36.321 633.399,35.976 Q633.594,35.631 633.594,35.284 Q633.594,34.827 633.337,34.546 Q633.08,34.264 632.645,34.264 Q632.126,34.264 631.841,34.581 Q631.555,34.897 631.555,35.447 L630.487,35.447 Q630.487,34.862 630.753,34.394 Q631.019,33.926 631.513,33.667 Q632.008,33.407 632.654,33.407 Q633.585,33.407 634.124,33.876 Q634.662,34.344 634.662,35.17 Q634.662,35.649 634.392,36.174 Q634.122,36.699 633.506,37.367 L631.942,39.041 L634.913,39.041 z" fill="#2844D8"/>
    <path d="M757.316,34.263 Q757.187,35.628 756.308,36.392 Q755.429,37.157 753.97,37.157 Q752.951,37.157 752.174,36.674 Q751.398,36.19 750.976,35.3 Q750.554,34.409 750.537,33.231 L750.537,32.434 Q750.537,31.227 750.965,30.307 Q751.392,29.388 752.192,28.89 Q752.992,28.391 754.041,28.391 Q755.453,28.391 756.314,29.159 Q757.175,29.927 757.316,31.327 L755.84,31.327 Q755.734,30.407 755.303,30 Q754.873,29.593 754.041,29.593 Q753.074,29.593 752.555,30.299 Q752.037,31.005 752.025,32.37 L752.025,33.126 Q752.025,34.509 752.52,35.235 Q753.015,35.962 753.97,35.962 Q754.843,35.962 755.283,35.569 Q755.722,35.177 755.84,34.263 z" fill="#2844D8"/>
    <path d="M763.627,33.231 L760.123,33.231 L760.123,35.856 L764.218,35.856 L764.218,37.04 L758.64,37.04 L758.64,28.509 L764.177,28.509 L764.177,29.704 L760.123,29.704 L760.123,32.059 L763.627,32.059 z" fill="#2844D8"/>
    <path d="M768.297,33.571 Q768.297,32.218 768.66,31.002 Q769.023,29.786 769.726,28.828 Q770.429,27.87 771.215,27.483 L771.496,28.315 Q770.67,28.942 770.157,30.228 Q769.644,31.515 769.597,33.173 L769.591,33.677 Q769.591,35.452 770.092,36.844 Q770.593,38.235 771.496,38.962 L771.215,39.753 Q770.429,39.366 769.723,38.402 Q769.017,37.438 768.657,36.228 Q768.297,35.018 768.297,33.571 z" fill="#2844D8"/>
    <path d="M775.222,33.987 L772.146,33.987 L772.146,32.839 L775.222,32.839 z" fill="#2844D8"/>
    <path d="M779.142,33.665 Q779.142,34.966 778.785,36.176 Q778.427,37.386 777.701,38.379 Q776.974,39.372 776.183,39.753 L775.902,38.962 Q776.781,38.282 777.294,36.885 Q777.806,35.487 777.806,33.694 L777.806,33.559 Q777.806,31.931 777.361,30.592 Q776.916,29.253 776.084,28.444 L775.902,28.28 L776.183,27.483 Q776.933,27.847 777.636,28.772 Q778.34,29.698 778.715,30.844 Q779.09,31.989 779.136,33.208 z" fill="#2844D8"/>
  </g>
</svg>
