<?xml version="1.0" encoding="UTF-8"?>
<!DOCTYPE svg PUBLIC "-//W3C//DTD SVG 1.1//EN" "http://www.w3.org/Graphics/SVG/1.1/DTD/svg11.dtd">
<svg version="1.1" xmlns="http://www.w3.org/2000/svg" xmlns:xlink="http://www.w3.org/1999/xlink" x="0" y="0" width="135.15" height="95.583" viewBox="0, 0, 135.15, 95.583">
  <g id="Layer_1" transform="translate(-489.829, -342.383)">
    <path d="M554.972,371.931 L512.485,371.931 L512.485,407.143 L525.101,407.143 L527.52,398.716 L532.278,415.93 L536.916,398.639 L541.651,415.936 L546.132,398.371 L551.111,416.041 L555.813,398.476 L558.303,407.206 L581,407.206" fill-opacity="0" stroke="#01B636" stroke-width="2" stroke-linejoin="bevel"/>
    <path d="M512.485,389.346 L495.329,389.346" fill-opacity="0" stroke="#01B636" stroke-width="2"/>
    <path d="M587.727,406.761 L603.323,406.729 L603.323,371.516 L561.7,371.611" fill-opacity="0" stroke="#01B636" stroke-width="2"/>
    <path d="M577.69,418.985 L581,406.666 L577.69,394.348" fill-opacity="0" stroke="#01B636" stroke-width="2"/>
    <path d="M584.418,418.985 L587.727,406.666 L584.418,394.348" fill-opacity="0" stroke="#01B636" stroke-width="2"/>
    <path d="M554.972,360.223 L554.972,384.67" fill-opacity="0" stroke="#01B636" stroke-width="2"/>
    <path d="M561.7,360.223 L561.7,384.67" fill-opacity="0" stroke="#01B636" stroke-width="2"/>
    <path d="M620.479,389.122 L603.323,389.122" fill-opacity="0" stroke="#01B636" stroke-width="2"/>
    <path d="M538.774,429.838 L536.571,429.838 L536.571,434.221 L534.594,434.221 L534.594,422.846 L538.594,422.846 Q540.563,422.846 541.634,423.728 Q542.704,424.611 542.704,426.283 Q542.704,427.424 542.153,428.193 Q541.602,428.963 540.618,429.377 L543.173,434.119 L543.173,434.221 L541.055,434.221 z M536.571,428.252 L538.602,428.252 Q539.602,428.252 540.165,427.748 Q540.727,427.244 540.727,426.369 Q540.727,425.455 540.208,424.955 Q539.688,424.455 538.657,424.439 L536.571,424.439 z" fill="#01B636"/>
    <path d="M545.667,437.966 L544.243,437.966 L544.243,431.626 L545.667,431.626 z M544.155,429.98 Q544.155,429.652 544.363,429.435 Q544.571,429.218 544.958,429.218 Q545.344,429.218 545.555,429.435 Q545.766,429.652 545.766,429.98 Q545.766,430.302 545.555,430.516 Q545.344,430.73 544.958,430.73 Q544.571,430.73 544.363,430.516 Q544.155,430.302 544.155,429.98 z" fill="#01B636"/>
    <path d="M581.717,430.674 Q581.545,432.494 580.373,433.513 Q579.202,434.533 577.256,434.533 Q575.897,434.533 574.862,433.888 Q573.827,433.244 573.264,432.056 Q572.702,430.869 572.678,429.299 L572.678,428.236 Q572.678,426.627 573.248,425.4 Q573.819,424.174 574.885,423.51 Q575.952,422.846 577.35,422.846 Q579.233,422.846 580.381,423.869 Q581.53,424.892 581.717,426.76 L579.748,426.76 Q579.608,425.533 579.034,424.99 Q578.459,424.447 577.35,424.447 Q576.061,424.447 575.37,425.388 Q574.678,426.33 574.663,428.15 L574.663,429.158 Q574.663,431.002 575.323,431.971 Q575.983,432.939 577.256,432.939 Q578.42,432.939 579.006,432.416 Q579.592,431.892 579.748,430.674 z" fill="#01B636"/>
    <path d="M582.789,433.848 Q582.789,432.383 583.469,431.495 Q584.149,430.607 585.291,430.607 Q586.299,430.607 586.92,431.31 L586.92,428.064 L588.344,428.064 L588.344,437.064 L587.055,437.064 L586.985,436.408 Q586.346,437.182 585.28,437.182 Q584.166,437.182 583.478,436.285 Q582.789,435.389 582.789,433.848 z M584.213,433.971 Q584.213,434.937 584.585,435.479 Q584.957,436.021 585.643,436.021 Q586.516,436.021 586.92,435.242 L586.92,432.535 Q586.528,431.773 585.655,431.773 Q584.963,431.773 584.588,432.321 Q584.213,432.869 584.213,433.971 z" fill="#01B636"/>
    <path d="M591.344,437.064 L589.92,437.064 L589.92,428.064 L591.344,428.064 z" fill="#01B636"/>
    <path d="M558.94,350.211 Q558.768,352.031 557.597,353.051 Q556.425,354.071 554.479,354.071 Q553.12,354.071 552.085,353.426 Q551.05,352.781 550.487,351.594 Q549.925,350.406 549.901,348.836 L549.901,347.774 Q549.901,346.164 550.472,344.938 Q551.042,343.711 552.108,343.047 Q553.175,342.383 554.573,342.383 Q556.456,342.383 557.604,343.406 Q558.753,344.43 558.94,346.297 L556.972,346.297 Q556.831,345.071 556.257,344.528 Q555.683,343.985 554.573,343.985 Q553.284,343.985 552.593,344.926 Q551.901,345.867 551.886,347.688 L551.886,348.696 Q551.886,350.539 552.546,351.508 Q553.206,352.477 554.479,352.477 Q555.643,352.477 556.229,351.953 Q556.815,351.43 556.972,350.211 z" fill="#01B636"/>
    <path d="M560.013,353.385 Q560.013,351.92 560.692,351.033 Q561.372,350.145 562.515,350.145 Q563.522,350.145 564.143,350.848 L564.143,347.602 L565.567,347.602 L565.567,356.602 L564.278,356.602 L564.208,355.946 Q563.569,356.719 562.503,356.719 Q561.39,356.719 560.701,355.823 Q560.013,354.926 560.013,353.385 z M561.436,353.508 Q561.436,354.475 561.809,355.017 Q562.181,355.559 562.866,355.559 Q563.739,355.559 564.143,354.78 L564.143,352.073 Q563.751,351.311 562.878,351.311 Q562.186,351.311 561.811,351.859 Q561.436,352.407 561.436,353.508 z" fill="#01B636"/>
  </g>
</svg>
