<?xml version="1.0" encoding="UTF-8"?>
<!DOCTYPE svg PUBLIC "-//W3C//DTD SVG 1.1//EN" "http://www.w3.org/Graphics/SVG/1.1/DTD/svg11.dtd">
<svg version="1.1" xmlns="http://www.w3.org/2000/svg" xmlns:xlink="http://www.w3.org/1999/xlink" x="0" y="0" width="151.788" height="186.703" viewBox="0, 0, 151.788, 186.703">
  <g id="Layer_1" transform="translate(-512.263, -270.004)">
    <path d="M523.049,435.495 L571.543,435.048 L573.961,426.621 L578.72,443.836 L583.358,426.544 L588.092,443.841 L592.574,426.276 L597.553,443.947 L602.255,426.381 L604.745,435.111 L653.166,435.495" fill-opacity="0" stroke="#01B636" stroke-width="2" stroke-linejoin="bevel"/>
    <path d="M558.677,435.495 L559.162,380.801 L550.735,378.383 L567.95,373.625 L550.658,368.987 L567.956,364.252 L550.39,359.771 L568.061,354.791 L550.495,350.089 L559.226,347.599 L559.226,335.871 L574.336,336.045" fill-opacity="0" stroke="#01B636" stroke-width="2" stroke-linejoin="bevel"/>
    <path d="M616.223,435.495 L616.708,380.801 L608.281,378.383 L625.496,373.625 L608.204,368.987 L625.502,364.252 L607.936,359.771 L625.607,354.791 L608.042,350.089 L616.772,347.599 L616.772,335.871 L601.661,335.697" fill-opacity="0" stroke="#01B636" stroke-width="2" stroke-linejoin="bevel"/>
    <path d="M523.049,435.495 L523.535,380.801 L515.107,378.383 L532.322,373.625 L515.031,368.987 L532.328,364.252 L514.763,359.771 L532.433,354.791 L514.868,350.089 L523.598,347.599 L523.903,289.004 L573.69,289.004" fill-opacity="0" stroke="#01B636" stroke-width="2" stroke-linejoin="bevel"/>
    <path d="M653.166,435.495 L653.652,380.801 L645.225,378.383 L662.44,373.625 L645.148,368.987 L662.446,364.252 L644.88,359.771 L662.551,354.791 L644.985,350.089 L653.715,347.599 L653.827,289.004 L600.594,289.004" fill-opacity="0" stroke="#01B636" stroke-width="2" stroke-linejoin="bevel"/>
    <path d="M587.094,349.545 C579.638,349.545 573.594,343.501 573.594,336.045 C573.594,328.589 579.638,322.545 587.094,322.545 C594.55,322.545 600.594,328.589 600.594,336.045 C600.594,343.501 594.55,349.545 587.094,349.545 z" fill-opacity="0" stroke="#01B636" stroke-width="2"/>
    <path d="M586.582,339.243 L589.473,330.344 L591.645,330.344 L587.551,341.719 L585.637,341.719 L581.559,330.344 L583.723,330.344 z" fill="#00BB00"/>
    <path d="M587.094,302.504 C579.638,302.504 573.594,296.46 573.594,289.004 C573.594,281.548 579.638,275.504 587.094,275.504 C594.55,275.504 600.594,281.548 600.594,289.004 C600.594,296.46 594.55,302.504 587.094,302.504 z" fill-opacity="0" stroke="#01B636" stroke-width="2"/>
    <path d="M578.287,456.59 L576.863,456.59 L576.863,447.59 L578.287,447.59 z" fill="#00BB00"/>
    <path d="M579.57,453.362 Q579.57,452.43 579.939,451.683 Q580.308,450.936 580.976,450.535 Q581.644,450.133 582.511,450.133 Q583.794,450.133 584.594,450.959 Q585.394,451.786 585.458,453.151 L585.464,453.485 Q585.464,454.422 585.104,455.161 Q584.744,455.899 584.073,456.303 Q583.402,456.707 582.523,456.707 Q581.181,456.707 580.375,455.814 Q579.57,454.92 579.57,453.432 z M580.994,453.485 Q580.994,454.463 581.398,455.017 Q581.802,455.571 582.523,455.571 Q583.244,455.571 583.645,455.008 Q584.046,454.446 584.046,453.362 Q584.046,452.401 583.633,451.838 Q583.22,451.276 582.511,451.276 Q581.814,451.276 581.404,451.83 Q580.994,452.383 580.994,453.485 z" fill="#00BB00"/>
    <path d="M590.457,456.59 Q590.363,456.409 590.292,455.998 Q589.613,456.707 588.628,456.707 Q587.673,456.707 587.07,456.163 Q586.466,455.618 586.466,454.815 Q586.466,453.801 587.219,453.259 Q587.972,452.717 589.373,452.717 L590.246,452.717 L590.246,452.301 Q590.246,451.809 589.97,451.513 Q589.695,451.217 589.132,451.217 Q588.646,451.217 588.335,451.46 Q588.025,451.704 588.025,452.079 L586.601,452.079 Q586.601,451.557 586.947,451.103 Q587.292,450.649 587.887,450.391 Q588.482,450.133 589.214,450.133 Q590.328,450.133 590.99,450.693 Q591.652,451.252 591.669,452.266 L591.669,455.125 Q591.669,455.981 591.91,456.491 L591.91,456.59 z M588.892,455.565 Q589.314,455.565 589.686,455.36 Q590.058,455.155 590.246,454.809 L590.246,453.614 L589.478,453.614 Q588.687,453.614 588.289,453.889 Q587.89,454.164 587.89,454.668 Q587.89,455.079 588.163,455.322 Q588.435,455.565 588.892,455.565 z" fill="#00BB00"/>
    <path d="M592.894,453.373 Q592.894,451.909 593.574,451.021 Q594.253,450.133 595.396,450.133 Q596.404,450.133 597.025,450.836 L597.025,447.59 L598.449,447.59 L598.449,456.59 L597.16,456.59 L597.089,455.934 Q596.451,456.707 595.384,456.707 Q594.271,456.707 593.583,455.811 Q592.894,454.914 592.894,453.373 z M594.318,453.497 Q594.318,454.463 594.69,455.005 Q595.062,455.547 595.748,455.547 Q596.621,455.547 597.025,454.768 L597.025,452.061 Q596.632,451.299 595.759,451.299 Q595.068,451.299 594.693,451.847 Q594.318,452.395 594.318,453.497 z" fill="#00BB00"/>
    <path d="M623.834,418.757 Q623.453,418.757 623.254,419.071 Q623.055,419.384 622.903,420.111 Q622.75,420.838 622.516,421.324 Q622,422.39 621.022,422.39 Q620.201,422.39 619.651,421.699 Q619.1,421.007 619.1,419.941 Q619.1,418.804 619.662,418.104 Q620.225,417.404 621.121,417.404 L621.121,418.828 Q620.711,418.828 620.439,419.132 Q620.166,419.437 620.166,419.941 Q620.166,420.41 620.383,420.706 Q620.6,421.002 620.963,421.002 Q621.291,421.002 621.473,420.726 Q621.655,420.451 621.839,419.613 Q622.024,418.775 622.279,418.298 Q622.533,417.82 622.891,417.589 Q623.248,417.357 623.758,417.357 Q624.614,417.357 625.144,418.066 Q625.674,418.775 625.674,419.923 Q625.674,420.703 625.393,421.312 Q625.112,421.922 624.619,422.261 Q624.127,422.601 623.559,422.601 L623.559,421.218 Q624.063,421.189 624.335,420.838 Q624.608,420.486 624.608,419.906 Q624.608,419.343 624.394,419.05 Q624.18,418.757 623.834,418.757 z" fill="#00BB00"/>
    <path d="M625.674,413.326 Q625.674,414.679 624.822,415.52 Q623.969,416.361 622.551,416.361 L622.375,416.361 Q621.426,416.361 620.679,415.995 Q619.932,415.629 619.516,414.966 Q619.1,414.304 619.1,413.49 Q619.1,412.195 619.926,411.489 Q620.752,410.783 622.264,410.783 L622.838,410.783 L622.838,414.925 Q623.623,414.861 624.08,414.401 Q624.537,413.941 624.537,413.244 Q624.537,412.265 623.746,411.65 L624.479,410.882 Q625.047,411.263 625.361,411.899 Q625.674,412.535 625.674,413.326 z M620.242,413.496 Q620.242,414.082 620.653,414.442 Q621.063,414.802 621.795,414.902 L621.795,412.189 L621.69,412.189 Q620.975,412.236 620.609,412.57 Q620.242,412.904 620.242,413.496 z" fill="#00BB00"/>
    <path d="M619.217,408.357 L619.949,408.316 Q619.1,407.613 619.1,406.47 Q619.1,404.49 621.367,404.455 L625.557,404.455 L625.557,405.879 L621.449,405.879 Q620.846,405.879 620.556,406.139 Q620.266,406.4 620.266,406.992 Q620.266,407.853 621.045,408.275 L625.557,408.275 L625.557,409.699 L619.217,409.699 z" fill="#00BB00"/>
    <path d="M623.834,399.451 Q623.453,399.451 623.254,399.764 Q623.055,400.078 622.903,400.804 Q622.75,401.531 622.516,402.017 Q622,403.084 621.022,403.084 Q620.201,403.084 619.651,402.392 Q619.1,401.701 619.1,400.634 Q619.1,399.498 619.662,398.798 Q620.225,398.097 621.121,398.097 L621.121,399.521 Q620.711,399.521 620.439,399.826 Q620.166,400.131 620.166,400.634 Q620.166,401.103 620.383,401.399 Q620.6,401.695 620.963,401.695 Q621.291,401.695 621.473,401.42 Q621.655,401.144 621.839,400.306 Q622.024,399.468 622.279,398.991 Q622.533,398.513 622.891,398.282 Q623.248,398.05 623.758,398.05 Q624.614,398.05 625.144,398.759 Q625.674,399.468 625.674,400.617 Q625.674,401.396 625.393,402.006 Q625.112,402.615 624.619,402.955 Q624.127,403.295 623.559,403.295 L623.559,401.912 Q624.063,401.882 624.335,401.531 Q624.608,401.179 624.608,400.599 Q624.608,400.037 624.394,399.744 Q624.18,399.451 623.834,399.451 z" fill="#00BB00"/>
    <path d="M625.674,394.019 Q625.674,395.373 624.822,396.214 Q623.969,397.054 622.551,397.054 L622.375,397.054 Q621.426,397.054 620.679,396.688 Q619.932,396.322 619.516,395.66 Q619.1,394.998 619.1,394.183 Q619.1,392.888 619.926,392.182 Q620.752,391.476 622.264,391.476 L622.838,391.476 L622.838,395.619 Q623.623,395.554 624.08,395.094 Q624.537,394.634 624.537,393.937 Q624.537,392.959 623.746,392.343 L624.479,391.576 Q625.047,391.957 625.361,392.592 Q625.674,393.228 625.674,394.019 z M620.242,394.189 Q620.242,394.775 620.653,395.135 Q621.063,395.496 621.795,395.595 L621.795,392.882 L621.69,392.882 Q620.975,392.929 620.609,393.263 Q620.242,393.597 620.242,394.189 z" fill="#00BB00"/>
    <path d="M611.814,285.004 L611.814,279.719 L610.847,279.719 L610.847,278.664 L611.814,278.664 L611.814,278.084 Q611.814,277.029 612.4,276.455 Q612.986,275.881 614.04,275.881 Q614.415,275.881 614.837,275.986 L614.802,277.1 Q614.568,277.053 614.257,277.053 Q613.238,277.053 613.238,278.102 L613.238,278.664 L614.527,278.664 L614.527,279.719 L613.238,279.719 L613.238,285.004 z" fill="#00BB00"/>
    <path d="M615.3,281.775 Q615.3,280.844 615.669,280.097 Q616.038,279.35 616.706,278.948 Q617.374,278.547 618.242,278.547 Q619.525,278.547 620.325,279.373 Q621.124,280.199 621.189,281.565 L621.195,281.898 Q621.195,282.836 620.834,283.574 Q620.474,284.313 619.803,284.717 Q619.132,285.121 618.253,285.121 Q616.911,285.121 616.106,284.228 Q615.3,283.334 615.3,281.846 z M616.724,281.898 Q616.724,282.877 617.128,283.431 Q617.533,283.984 618.253,283.984 Q618.974,283.984 619.375,283.422 Q619.777,282.859 619.777,281.775 Q619.777,280.815 619.364,280.252 Q618.951,279.69 618.242,279.69 Q617.544,279.69 617.134,280.243 Q616.724,280.797 616.724,281.898 z" fill="#00BB00"/>
    <path d="M625.718,279.965 Q625.437,279.918 625.138,279.918 Q624.16,279.918 623.82,280.668 L623.82,285.004 L622.396,285.004 L622.396,278.664 L623.755,278.664 L623.79,279.373 Q624.306,278.547 625.22,278.547 Q625.525,278.547 625.724,278.629 z" fill="#00BB00"/>
    <path d="M629.111,283.984 Q629.644,283.984 629.995,283.674 Q630.347,283.363 630.37,282.906 L631.712,282.906 Q631.689,283.498 631.343,284.011 Q630.997,284.523 630.406,284.822 Q629.814,285.121 629.128,285.121 Q627.798,285.121 627.019,284.26 Q626.24,283.398 626.24,281.881 L626.24,281.734 Q626.24,280.287 627.013,279.417 Q627.786,278.547 629.122,278.547 Q630.253,278.547 630.965,279.206 Q631.677,279.865 631.712,280.938 L630.37,280.938 Q630.347,280.393 629.998,280.041 Q629.65,279.69 629.111,279.69 Q628.419,279.69 628.044,280.19 Q627.669,280.691 627.663,281.711 L627.663,281.94 Q627.663,282.971 628.036,283.478 Q628.408,283.984 629.111,283.984 z" fill="#00BB00"/>
    <path d="M635.579,285.121 Q634.226,285.121 633.385,284.269 Q632.544,283.416 632.544,281.998 L632.544,281.822 Q632.544,280.873 632.911,280.126 Q633.277,279.379 633.939,278.963 Q634.601,278.547 635.415,278.547 Q636.71,278.547 637.416,279.373 Q638.122,280.199 638.122,281.711 L638.122,282.285 L633.98,282.285 Q634.044,283.07 634.504,283.527 Q634.964,283.984 635.661,283.984 Q636.64,283.984 637.255,283.193 L638.023,283.926 Q637.642,284.494 637.006,284.808 Q636.37,285.121 635.579,285.121 z M635.41,279.69 Q634.824,279.69 634.463,280.1 Q634.103,280.51 634.003,281.242 L636.716,281.242 L636.716,281.137 Q636.669,280.422 636.335,280.056 Q636.001,279.69 635.41,279.69 z" fill="#00BB00"/>
    <g>
      <path d="M586.648,289.004 L587.47,289.004" fill-opacity="0" stroke="#00BB00" stroke-width="1"/>
      <path d="M587.47,292.004 L595.47,289.004 L587.47,286.004 z" fill="#00BB00" fill-opacity="1" stroke="#00BB00" stroke-width="1" stroke-opacity="1"/>
    </g>
    <path d="M577.542,289.004 L587.648,289.004" fill-opacity="0" stroke="#00BB00" stroke-width="2"/>
  </g>
</svg>
