<?xml version="1.0" encoding="UTF-8"?>
<!DOCTYPE svg PUBLIC "-//W3C//DTD SVG 1.1//EN" "http://www.w3.org/Graphics/SVG/1.1/DTD/svg11.dtd">
<svg version="1.1" xmlns="http://www.w3.org/2000/svg" xmlns:xlink="http://www.w3.org/1999/xlink" x="0" y="0" width="176.561" height="94.409" viewBox="0, 0, 176.561, 94.409">
  <g id="Layer_1" transform="translate(-200.447, -276.898)">
    <path d="M255.837,340.074 L280.65,339.947 L280.65,304.703 L268.921,304.703 L266.432,295.973 L261.729,313.539 L256.75,295.868 L252.269,313.433 L247.534,296.136 L242.896,313.428 L238.138,296.213 L235.72,304.64 L223.104,304.64 L223.104,339.853 L248.662,340.074" fill-opacity="0" stroke="#01B636" stroke-width="2" stroke-linejoin="bevel"/>
    <path d="M248.662,327.724 L248.662,352.171" fill-opacity="0" stroke="#01B636" stroke-width="2"/>
    <path d="M255.389,327.724 L255.389,352.171" fill-opacity="0" stroke="#01B636" stroke-width="2"/>
    <path d="M223.104,322.056 L205.947,322.056" fill-opacity="0" stroke="#01B636" stroke-width="2"/>
    <path d="M330.54,340.074 L355.352,339.947 L355.352,304.703 L343.624,304.703 L341.134,295.973 L336.432,313.539 L331.453,295.868 L326.972,313.433 L322.237,296.136 L317.599,313.428 L312.841,296.213 L310.422,304.64 L297.806,304.64 L297.806,339.853 L323.364,340.074" fill-opacity="0" stroke="#01B636" stroke-width="2" stroke-linejoin="bevel"/>
    <path d="M323.364,327.724 L323.364,352.171" fill-opacity="0" stroke="#01B636" stroke-width="2"/>
    <path d="M330.092,327.724 L330.092,352.171" fill-opacity="0" stroke="#01B636" stroke-width="2"/>
    <path d="M297.806,322.056 L280.65,322.056" fill-opacity="0" stroke="#01B636" stroke-width="2"/>
    <path d="M372.509,322.056 L355.352,322.056" fill-opacity="0" stroke="#01B636" stroke-width="2"/>
    <path d="M248.052,283.89 L245.849,283.89 L245.849,288.273 L243.873,288.273 L243.873,276.898 L247.873,276.898 Q249.841,276.898 250.912,277.781 Q251.982,278.663 251.982,280.335 Q251.982,281.476 251.431,282.246 Q250.88,283.015 249.896,283.429 L252.451,288.171 L252.451,288.273 L250.334,288.273 z M245.849,282.304 L247.88,282.304 Q248.88,282.304 249.443,281.8 Q250.005,281.296 250.005,280.421 Q250.005,279.507 249.486,279.007 Q248.966,278.507 247.935,278.492 L245.849,278.492 z" fill="#01B636"/>
    <path d="M323.013,283.89 L320.81,283.89 L320.81,288.273 L318.833,288.273 L318.833,276.898 L322.833,276.898 Q324.802,276.898 325.872,277.781 Q326.943,278.663 326.943,280.335 Q326.943,281.476 326.392,282.246 Q325.841,283.015 324.857,283.429 L327.411,288.171 L327.411,288.273 L325.294,288.273 z M320.81,282.304 L322.841,282.304 Q323.841,282.304 324.404,281.8 Q324.966,281.296 324.966,280.421 Q324.966,279.507 324.447,279.007 Q323.927,278.507 322.896,278.492 L320.81,278.492 z" fill="#01B636"/>
    <path d="M257.453,291.368 L256.035,291.368 L256.035,284.519 L253.943,285.233 L253.943,284.032 L257.271,282.808 L257.453,282.808 z" fill="#01B636"/>
    <path d="M334.036,291.369 L328.3,291.369 L328.3,290.391 L331.142,287.291 Q331.757,286.606 332.018,286.146 Q332.279,285.686 332.279,285.223 Q332.279,284.613 331.936,284.238 Q331.593,283.863 331.013,283.863 Q330.322,283.863 329.941,284.285 Q329.56,284.707 329.56,285.44 L328.136,285.44 Q328.136,284.66 328.491,284.036 Q328.845,283.412 329.504,283.066 Q330.163,282.721 331.025,282.721 Q332.267,282.721 332.985,283.345 Q333.702,283.969 333.702,285.07 Q333.702,285.709 333.342,286.409 Q332.982,287.109 332.161,288 L330.075,290.233 L334.036,290.233 z" fill="#01B636"/>
    <path d="M256.485,364.508 Q256.314,366.328 255.142,367.347 Q253.97,368.367 252.024,368.367 Q250.665,368.367 249.63,367.722 Q248.595,367.078 248.032,365.89 Q247.47,364.703 247.446,363.133 L247.446,362.07 Q247.446,360.461 248.017,359.234 Q248.587,358.008 249.653,357.343 Q250.72,356.679 252.118,356.679 Q254.001,356.679 255.149,357.703 Q256.298,358.726 256.485,360.593 L254.517,360.593 Q254.376,359.367 253.802,358.824 Q253.228,358.281 252.118,358.281 Q250.829,358.281 250.138,359.222 Q249.446,360.164 249.431,361.984 L249.431,362.992 Q249.431,364.836 250.091,365.804 Q250.751,366.773 252.024,366.773 Q253.188,366.773 253.774,366.25 Q254.36,365.726 254.517,364.508 z" fill="#01B636"/>
    <path d="M331.188,364.508 Q331.016,366.328 329.844,367.347 Q328.672,368.367 326.727,368.367 Q325.368,368.367 324.332,367.722 Q323.297,367.078 322.735,365.89 Q322.172,364.703 322.149,363.133 L322.149,362.07 Q322.149,360.461 322.719,359.234 Q323.289,358.008 324.356,357.343 Q325.422,356.679 326.821,356.679 Q328.703,356.679 329.852,357.703 Q331,358.726 331.188,360.593 L329.219,360.593 Q329.078,359.367 328.504,358.824 Q327.93,358.281 326.821,358.281 Q325.532,358.281 324.84,359.222 Q324.149,360.164 324.133,361.984 L324.133,362.992 Q324.133,364.836 324.793,365.804 Q325.453,366.773 326.727,366.773 Q327.891,366.773 328.477,366.25 Q329.063,365.726 329.219,364.508 z" fill="#01B636"/>
    <path d="M261.128,371.306 L259.71,371.306 L259.71,364.456 L257.618,365.171 L257.618,363.97 L260.946,362.745 L261.128,362.745 z" fill="#01B636"/>
    <path d="M337.711,371.307 L331.975,371.307 L331.975,370.329 L334.817,367.229 Q335.432,366.543 335.693,366.083 Q335.953,365.623 335.953,365.161 Q335.953,364.551 335.611,364.176 Q335.268,363.801 334.688,363.801 Q333.996,363.801 333.616,364.223 Q333.235,364.645 333.235,365.377 L331.811,365.377 Q331.811,364.598 332.165,363.974 Q332.52,363.35 333.179,363.004 Q333.838,362.659 334.7,362.659 Q335.942,362.659 336.66,363.283 Q337.377,363.907 337.377,365.008 Q337.377,365.647 337.017,366.347 Q336.657,367.047 335.836,367.938 L333.75,370.17 L337.711,370.17 z" fill="#01B636"/>
  </g>
</svg>
