<?xml version="1.0" encoding="UTF-8"?>
<!DOCTYPE svg PUBLIC "-//W3C//DTD SVG 1.1//EN" "http://www.w3.org/Graphics/SVG/1.1/DTD/svg11.dtd">
<svg version="1.1" xmlns="http://www.w3.org/2000/svg" xmlns:xlink="http://www.w3.org/1999/xlink" x="0" y="0" width="221.82" height="97.81" viewBox="0, 0, 221.82, 97.81">
  <g id="Layer_1" transform="translate(-455.415, -218.59)">
    <path d="M590.497,251.102 L530.977,251.03 L530.977,286.242 L543.593,286.242 L546.011,277.814 L550.769,295.029 L555.407,277.738 L560.142,295.035 L564.623,277.47 L569.602,295.14 L574.305,277.575 L576.794,286.305 L599.007,286.305" fill-opacity="0" stroke="#01B636" stroke-width="2" stroke-linejoin="bevel"/>
    <path d="M457.915,268.5 L470.531,268.5 L472.949,260.072 L477.708,277.287 L482.346,259.995 L487.081,277.293 L491.562,259.727 L496.541,277.398 L501.243,259.833 L503.733,268.563 L530.977,268.445" fill-opacity="0" stroke="#01B636" stroke-width="2" stroke-linejoin="bevel"/>
    <path d="M597.225,251.197 L655.578,251.773 L655.578,286.985 L639.429,286.985" fill-opacity="0" stroke="#01B636" stroke-width="2"/>
    <path d="M587.188,263.42 L590.497,251.102 L587.188,238.783" fill-opacity="0" stroke="#01B636" stroke-width="2"/>
    <path d="M593.915,263.42 L597.225,251.102 L593.915,238.783" fill-opacity="0" stroke="#01B636" stroke-width="2"/>
    <path d="M621.324,288.502 L622.752,282.301 L624.719,282.301 L622.271,291.283 L620.611,291.283 L618.685,285.115 L616.792,291.283 L615.132,291.283 L612.675,282.301 L614.642,282.301 L616.095,288.436 L617.938,282.301 L619.457,282.301 z" fill="#01B636"/>
    <path d="M599.007,278.088 L639.429,278.088 L639.429,295.759 L599.007,295.759 L599.007,278.088 z" fill-opacity="0" stroke="#01B636" stroke-width="2"/>
    <path d="M672.735,268.563 L655.578,268.563" fill-opacity="0" stroke="#01B636" stroke-width="2"/>
    <path d="M486.092,290.527 L483.888,290.527 L483.888,294.91 L481.912,294.91 L481.912,283.535 L485.912,283.535 Q487.881,283.535 488.951,284.418 Q490.021,285.301 490.021,286.973 Q490.021,288.113 489.47,288.883 Q488.92,289.652 487.935,290.066 L490.49,294.808 L490.49,294.91 L488.373,294.91 z M483.888,288.941 L485.92,288.941 Q486.92,288.941 487.482,288.437 Q488.045,287.933 488.045,287.058 Q488.045,286.144 487.525,285.644 Q487.006,285.144 485.974,285.129 L483.888,285.129 z" fill="#01B636"/>
    <path d="M589.884,226.418 Q589.713,228.238 588.541,229.258 Q587.369,230.277 585.423,230.277 Q584.064,230.277 583.029,229.633 Q581.994,228.988 581.431,227.801 Q580.869,226.613 580.845,225.043 L580.845,223.981 Q580.845,222.371 581.416,221.145 Q581.986,219.918 583.052,219.254 Q584.119,218.59 585.517,218.59 Q587.4,218.59 588.548,219.613 Q589.697,220.637 589.884,222.504 L587.916,222.504 Q587.775,221.277 587.201,220.734 Q586.627,220.192 585.517,220.192 Q584.228,220.192 583.537,221.133 Q582.845,222.074 582.83,223.895 L582.83,224.902 Q582.83,226.746 583.49,227.715 Q584.15,228.684 585.423,228.684 Q586.588,228.684 587.173,228.16 Q587.759,227.637 587.916,226.418 z" fill="#01B636"/>
    <path d="M555.983,308.698 L553.78,308.698 L553.78,313.081 L551.804,313.081 L551.804,301.706 L555.804,301.706 Q557.772,301.706 558.843,302.589 Q559.913,303.471 559.913,305.143 Q559.913,306.284 559.362,307.053 Q558.811,307.823 557.827,308.237 L560.382,312.979 L560.382,313.081 L558.265,313.081 z M553.78,307.112 L555.811,307.112 Q556.811,307.112 557.374,306.608 Q557.936,306.104 557.936,305.229 Q557.936,304.315 557.417,303.815 Q556.897,303.315 555.866,303.299 L553.78,303.299 z" fill="#01B636"/>
    <path d="M492.984,298.656 L491.56,298.656 L491.56,292.316 L492.984,292.316 z M491.472,290.669 Q491.472,290.341 491.68,290.124 Q491.888,289.908 492.275,289.908 Q492.662,289.908 492.873,290.124 Q493.084,290.341 493.084,290.669 Q493.084,290.992 492.873,291.205 Q492.662,291.419 492.275,291.419 Q491.888,291.419 491.68,291.205 Q491.472,290.992 491.472,290.669 z" fill="#01B636"/>
    <path d="M563.966,315.263 Q564.499,315.263 564.851,314.953 Q565.202,314.642 565.226,314.185 L566.567,314.185 Q566.544,314.777 566.198,315.29 Q565.852,315.802 565.261,316.101 Q564.669,316.4 563.983,316.4 Q562.653,316.4 561.874,315.539 Q561.095,314.677 561.095,313.16 L561.095,313.013 Q561.095,311.566 561.868,310.696 Q562.642,309.826 563.977,309.826 Q565.108,309.826 565.82,310.485 Q566.532,311.144 566.567,312.216 L565.226,312.216 Q565.202,311.672 564.853,311.32 Q564.505,310.968 563.966,310.968 Q563.274,310.968 562.899,311.469 Q562.524,311.97 562.518,312.99 L562.518,313.218 Q562.518,314.25 562.891,314.756 Q563.263,315.263 563.966,315.263 z" fill="#01B636"/>
    <path d="M569.427,308.402 L569.427,309.943 L570.546,309.943 L570.546,310.998 L569.427,310.998 L569.427,314.537 Q569.427,314.9 569.57,315.061 Q569.714,315.222 570.083,315.222 Q570.329,315.222 570.581,315.164 L570.581,316.265 Q570.095,316.4 569.643,316.4 Q568.003,316.4 568.003,314.589 L568.003,310.998 L566.96,310.998 L566.96,309.943 L568.003,309.943 L568.003,308.402 z" fill="#01B636"/>
    <path d="M590.957,229.592 Q590.957,228.127 591.636,227.239 Q592.316,226.352 593.459,226.352 Q594.466,226.352 595.088,227.055 L595.088,223.809 L596.511,223.809 L596.511,232.809 L595.222,232.809 L595.152,232.153 Q594.513,232.926 593.447,232.926 Q592.334,232.926 591.645,232.03 Q590.957,231.133 590.957,229.592 z M592.38,229.715 Q592.38,230.682 592.753,231.224 Q593.125,231.766 593.81,231.766 Q594.683,231.766 595.088,230.987 L595.088,228.28 Q594.695,227.518 593.822,227.518 Q593.13,227.518 592.755,228.066 Q592.38,228.613 592.38,229.715 z" fill="#01B636"/>
    <path d="M599.511,232.809 L598.088,232.809 L598.088,223.809 L599.511,223.809 z" fill="#01B636"/>
  </g>
</svg>
