<?xml version="1.0" encoding="UTF-8"?>
<!DOCTYPE svg PUBLIC "-//W3C//DTD SVG 1.1//EN" "http://www.w3.org/Graphics/SVG/1.1/DTD/svg11.dtd">
<svg version="1.1" xmlns="http://www.w3.org/2000/svg" xmlns:xlink="http://www.w3.org/1999/xlink" x="0" y="0" width="851" height="729" viewBox="0, 0, 851, 729">
  <g id="Background">
    <rect x="0" y="0" width="851" height="729" fill="#F7F7F2"/>
  </g>
  <g id="Layer_1">
    <g>
      <path d="M89.561,664.12 L89.544,52.059" fill-opacity="0" stroke="#000000" stroke-width="3"/>
      <path d="M93.744,52.059 L89.544,40.859 L85.344,52.059 z" fill="#000000" fill-opacity="1" stroke="#000000" stroke-width="3" stroke-opacity="1"/>
    </g>
    <path d="M17.99,78.344 L787.808,78.513" fill-opacity="0" stroke="#000000" stroke-width="2" stroke-dasharray="6,4"/>
    <path d="M112.281,108.661 C111.774,121.586 101.931,130.31 89.363,130.944 L89.061,130.929 L89.061,108.661 L112.281,108.661 z" fill="#C1C1C1"/>
    <path d="M89.846,85.54 C102.522,85.54 112.798,95.816 112.798,108.492 C112.798,121.168 102.522,131.444 89.846,131.444 L89.544,131.429 L89.544,85.556 L89.846,85.54 z" fill-opacity="0" stroke="#000000" stroke-width="3"/>
    <path d="M356.666,33.965 C355.253,69.943 327.855,94.227 292.87,95.994 L292.027,95.951" fill-opacity="0" stroke="#000000" stroke-width="3"/>
    <path d="M356.166,393.195 C354.753,357.216 327.355,332.933 292.37,331.166 L291.527,331.209 L291.527,393.195 L356.166,393.195 z" fill="#C1C1C1"/>
    <path d="M356.666,393.695 C355.253,357.716 327.855,333.433 292.87,331.666 L292.027,331.709" fill-opacity="0" stroke="#000000" stroke-width="3"/>
    <g>
      <path d="M292.027,664.12 L292.027,56.965" fill-opacity="0" stroke="#000000" stroke-width="3"/>
      <path d="M296.227,56.965 L292.027,45.765 L287.827,56.965 z" fill="#000000" fill-opacity="1" stroke="#000000" stroke-width="3" stroke-opacity="1"/>
    </g>
    <path d="M293.225,304.032 C343.39,304.032 384.057,308.853 384.057,314.8 C384.057,320.746 343.39,325.567 293.225,325.567 L292.027,325.56 L292.027,304.039 L293.225,304.032 z" fill-opacity="0" stroke="#000000" stroke-width="3"/>
    <path d="M559.462,11.378 C558.05,47.356 530.651,71.64 495.666,73.407 L494.824,73.364" fill-opacity="0" stroke="#000000" stroke-width="3"/>
    <path d="M558.962,544.461 C557.55,508.483 530.151,484.2 495.166,482.433 L494.324,482.476 L494.324,544.461 L558.962,544.461 z" fill="#C1C1C1"/>
    <g>
      <path d="M494.824,664.12 L494.824,56.966" fill-opacity="0" stroke="#000000" stroke-width="3"/>
      <path d="M499.024,56.966 L494.824,45.766 L490.624,56.966 z" fill="#000000" fill-opacity="1" stroke="#000000" stroke-width="3" stroke-opacity="1"/>
    </g>
    <path d="M496.021,469.566 C546.186,469.566 586.853,474.387 586.853,480.333 C586.853,486.28 546.186,491.101 496.021,491.101 L494.824,491.094 L494.824,469.573 L496.021,469.566 z" fill-opacity="0" stroke="#000000" stroke-width="3"/>
    <path d="M559.462,544.961 C558.05,508.983 530.651,484.7 495.666,482.933 L494.824,482.976" fill-opacity="0" stroke="#000000" stroke-width="3"/>
    <path d="M761.929,11.378 C760.516,47.356 733.118,71.64 698.133,73.407 L697.291,73.364" fill-opacity="0" stroke="#000000" stroke-width="3"/>
    <path d="M761.429,624.48 C760.016,588.501 732.618,564.218 697.633,562.451 L696.791,562.494 L696.791,624.48 L761.429,624.48 z" fill="#C1C1C1"/>
    <g>
      <path d="M697.291,664.12 L697.291,56.965" fill-opacity="0" stroke="#000000" stroke-width="3"/>
      <path d="M701.491,56.965 L697.291,45.765 L693.091,56.965 z" fill="#000000" fill-opacity="1" stroke="#000000" stroke-width="3" stroke-opacity="1"/>
    </g>
    <path d="M698.488,535.317 C748.653,535.317 789.32,540.138 789.32,546.085 C789.32,552.031 748.653,556.852 698.488,556.852 L697.291,556.845 L697.291,535.324 L698.488,535.317 z" fill-opacity="0" stroke="#000000" stroke-width="3"/>
    <path d="M761.929,624.979 C760.516,589.001 733.118,564.718 698.133,562.951 L697.291,562.994" fill-opacity="0" stroke="#000000" stroke-width="3"/>
    <path d="M21.1,66.895 L29.525,66.895 L29.525,68.113 L19.646,68.113 L19.646,51.051 L21.1,51.051 z" fill="#000000"/>
    <path d="M33.533,68.113 L32.127,68.113 L32.127,55.434 L33.533,55.434 z M31.881,51.766 Q31.881,51.367 32.139,51.092 Q32.396,50.816 32.842,50.816 Q33.287,50.816 33.551,51.092 Q33.814,51.367 33.814,51.766 Q33.814,52.164 33.551,52.434 Q33.287,52.703 32.842,52.703 Q32.396,52.703 32.139,52.434 Q31.881,52.164 31.881,51.766 z" fill="#000000"/>
    <path d="M37.142,69.578 L35.865,69.578 L42.99,51.051 L44.256,51.051 z" fill="#000000"/>
    <path d="M48.65,66.895 L57.076,66.895 L57.076,68.113 L47.197,68.113 L47.197,51.051 L48.65,51.051 z" fill="#000000"/>
    <path d="M61.084,68.113 L59.678,68.113 L59.678,55.434 L61.084,55.434 z M59.432,51.766 Q59.432,51.367 59.689,51.092 Q59.947,50.816 60.392,50.816 Q60.838,50.816 61.101,51.092 Q61.365,51.367 61.365,51.766 Q61.365,52.164 61.101,52.434 Q60.838,52.703 60.392,52.703 Q59.947,52.703 59.689,52.434 Q59.432,52.164 59.432,51.766 z" fill="#000000"/>
    <path d="M67.986,51.866 L71.447,51.866 L71.447,52.741 L67.986,52.741 L67.986,56.507 L67.041,56.507 L67.041,52.741 L63.65,52.741 L63.65,51.866 L67.041,51.866 L67.041,48.226 L67.986,48.226 z" fill="#000000"/>
    <path d="M85.564,109.161 L59.568,109.161" fill-opacity="0" stroke="#000000" stroke-width="3"/>
    <g>
      <path d="M72.596,90.144 L72.596,97.361" fill-opacity="0" stroke="#000000" stroke-width="2"/>
      <path d="M76.196,90.144 L72.596,80.544 L68.996,90.144 z" fill="#000000" fill-opacity="1" stroke="#000000" stroke-width="2" stroke-opacity="1"/>
      <path d="M68.996,97.361 L72.596,106.961 L76.196,97.361 z" fill="#000000" fill-opacity="1" stroke="#000000" stroke-width="2" stroke-opacity="1"/>
    </g>
    <path d="M25.42,93.511 Q25.42,95.917 24.537,97.163 Q23.654,98.409 21.935,98.409 Q20.248,98.409 19.35,97.186 Q18.451,95.964 18.428,93.628 L18.428,91.589 Q18.428,89.19 19.318,87.956 Q20.209,86.721 21.92,86.721 Q23.607,86.721 24.498,87.913 Q25.389,89.104 25.42,91.425 z M24.482,91.471 Q24.482,89.518 23.846,88.518 Q23.209,87.518 21.92,87.518 Q20.654,87.518 20.014,88.495 Q19.373,89.471 19.357,91.378 L19.357,93.612 Q19.357,95.557 20.017,96.589 Q20.678,97.62 21.935,97.62 Q23.185,97.62 23.83,96.612 Q24.475,95.604 24.482,93.659 z" fill="#000000"/>
    <path d="M27.49,97.69 Q27.49,97.417 27.666,97.225 Q27.842,97.034 28.154,97.034 Q28.467,97.034 28.646,97.225 Q28.826,97.417 28.826,97.69 Q28.826,97.964 28.646,98.139 Q28.467,98.315 28.154,98.315 Q27.842,98.315 27.666,98.139 Q27.49,97.964 27.49,97.69 z" fill="#000000"/>
    <path d="M38.373,98.253 L31.248,98.253 L31.248,97.534 L35.146,93.112 Q36.115,91.995 36.49,91.268 Q36.865,90.542 36.865,89.854 Q36.865,88.776 36.232,88.147 Q35.6,87.518 34.49,87.518 Q33.342,87.518 32.635,88.253 Q31.928,88.987 31.928,90.159 L30.998,90.159 Q30.998,89.198 31.432,88.409 Q31.865,87.62 32.666,87.171 Q33.467,86.721 34.49,86.721 Q36.053,86.721 36.932,87.542 Q37.81,88.362 37.81,89.776 Q37.81,90.573 37.314,91.518 Q36.818,92.464 35.568,93.878 L32.396,97.464 L38.373,97.464 z" fill="#000000"/>
    <path d="M47.428,98.409 Q46.35,98.409 45.478,97.878 Q44.607,97.346 44.123,96.397 Q43.639,95.448 43.639,94.268 L43.639,93.932 Q43.639,92.714 44.111,91.737 Q44.584,90.761 45.428,90.202 Q46.271,89.643 47.256,89.643 Q48.795,89.643 49.697,90.694 Q50.6,91.745 50.6,93.565 L50.6,94.089 L44.568,94.089 L44.568,94.268 Q44.568,95.706 45.392,96.663 Q46.217,97.62 47.467,97.62 Q48.217,97.62 48.791,97.346 Q49.365,97.073 49.834,96.471 L50.42,96.917 Q49.389,98.409 47.428,98.409 z M47.256,90.44 Q46.201,90.44 45.478,91.214 Q44.756,91.987 44.6,93.292 L49.67,93.292 L49.67,93.19 Q49.631,91.971 48.975,91.206 Q48.318,90.44 47.256,90.44 z" fill="#000000"/>
    <path d="M56.068,96.846 L56.131,97.089 L56.201,96.846 L59.779,86.878 L60.834,86.878 L56.6,98.253 L55.678,98.253 L51.443,86.878 L52.49,86.878 z" fill="#000000"/>
    <path d="M288.027,314.8 L262.031,314.8" fill-opacity="0" stroke="#000000" stroke-width="3"/>
    <g>
      <path d="M275.274,90.144 L275.274,303" fill-opacity="0" stroke="#000000" stroke-width="2"/>
      <path d="M278.874,90.144 L275.274,80.544 L271.674,90.144 z" fill="#000000" fill-opacity="1" stroke="#000000" stroke-width="2" stroke-opacity="1"/>
      <path d="M271.674,303 L275.274,312.6 L278.874,303 z" fill="#000000" fill-opacity="1" stroke="#000000" stroke-width="2" stroke-opacity="1"/>
    </g>
    <path d="M232.722,201.072 L225.597,201.072 L225.597,200.353 L229.495,195.931 Q230.464,194.814 230.839,194.088 Q231.214,193.361 231.214,192.674 Q231.214,191.595 230.581,190.966 Q229.948,190.338 228.839,190.338 Q227.691,190.338 226.984,191.072 Q226.277,191.806 226.277,192.978 L225.347,192.978 Q225.347,192.017 225.78,191.228 Q226.214,190.439 227.015,189.99 Q227.816,189.541 228.839,189.541 Q230.402,189.541 231.28,190.361 Q232.159,191.181 232.159,192.595 Q232.159,193.392 231.663,194.338 Q231.167,195.283 229.917,196.697 L226.745,200.283 L232.722,200.283 z" fill="#000000"/>
    <path d="M234.527,200.509 Q234.527,200.236 234.702,200.045 Q234.878,199.853 235.191,199.853 Q235.503,199.853 235.683,200.045 Q235.863,200.236 235.863,200.509 Q235.863,200.783 235.683,200.959 Q235.503,201.134 235.191,201.134 Q234.878,201.134 234.702,200.959 Q234.527,200.783 234.527,200.509 z" fill="#000000"/>
    <path d="M240.363,194.877 L241.331,194.877 Q242.136,194.877 242.738,194.591 Q243.339,194.306 243.655,193.81 Q243.972,193.314 243.972,192.666 Q243.972,191.572 243.355,190.955 Q242.738,190.338 241.581,190.338 Q240.488,190.338 239.788,190.982 Q239.089,191.627 239.089,192.681 L238.152,192.681 Q238.152,191.799 238.597,191.068 Q239.042,190.338 239.831,189.939 Q240.62,189.541 241.581,189.541 Q243.128,189.541 244.019,190.384 Q244.909,191.228 244.909,192.697 Q244.909,193.517 244.39,194.209 Q243.87,194.9 242.964,195.244 Q244.027,195.541 244.573,196.263 Q245.12,196.986 245.12,197.986 Q245.12,199.447 244.167,200.338 Q243.214,201.228 241.62,201.228 Q240.605,201.228 239.757,200.822 Q238.909,200.416 238.445,199.685 Q237.98,198.955 237.98,197.986 L238.917,197.986 Q238.917,199.072 239.675,199.756 Q240.433,200.439 241.62,200.439 Q242.831,200.439 243.507,199.818 Q244.183,199.197 244.183,198.017 Q244.183,196.877 243.452,196.275 Q242.722,195.674 241.3,195.674 L240.363,195.674 z" fill="#000000"/>
    <path d="M254.464,201.228 Q253.386,201.228 252.515,200.697 Q251.644,200.166 251.159,199.216 Q250.675,198.267 250.675,197.088 L250.675,196.752 Q250.675,195.533 251.148,194.556 Q251.62,193.58 252.464,193.021 Q253.308,192.463 254.292,192.463 Q255.831,192.463 256.734,193.513 Q257.636,194.564 257.636,196.384 L257.636,196.908 L251.605,196.908 L251.605,197.088 Q251.605,198.525 252.429,199.482 Q253.253,200.439 254.503,200.439 Q255.253,200.439 255.827,200.166 Q256.402,199.892 256.87,199.291 L257.456,199.736 Q256.425,201.228 254.464,201.228 z M254.292,193.259 Q253.238,193.259 252.515,194.033 Q251.792,194.806 251.636,196.111 L256.706,196.111 L256.706,196.009 Q256.667,194.791 256.011,194.025 Q255.355,193.259 254.292,193.259 z" fill="#000000"/>
    <path d="M263.105,199.666 L263.167,199.908 L263.237,199.666 L266.816,189.697 L267.87,189.697 L263.636,201.072 L262.714,201.072 L258.48,189.697 L259.527,189.697 z" fill="#000000"/>
    <path d="M491.076,480.333 L465.08,480.333" fill-opacity="0" stroke="#000000" stroke-width="3"/>
    <g>
      <path d="M478.146,90.144 L478.146,468.533" fill-opacity="0" stroke="#000000" stroke-width="2"/>
      <path d="M481.746,90.144 L478.146,80.544 L474.546,90.144 z" fill="#000000" fill-opacity="1" stroke="#000000" stroke-width="2" stroke-opacity="1"/>
      <path d="M474.546,468.533 L478.146,478.133 L481.746,468.533 z" fill="#000000" fill-opacity="1" stroke="#000000" stroke-width="2" stroke-opacity="1"/>
    </g>
    <path d="M434.995,280.175 L436.768,280.175 L436.768,280.964 L434.995,280.964 L434.995,283.839 L434.057,283.839 L434.057,280.964 L428.706,280.964 L428.706,280.433 L433.971,272.464 L434.995,272.464 z M429.854,280.175 L434.057,280.175 L434.057,273.675 L433.643,274.394 z" fill="#000000"/>
    <path d="M438.182,283.276 Q438.182,283.003 438.358,282.811 Q438.534,282.62 438.846,282.62 Q439.159,282.62 439.339,282.811 Q439.518,283.003 439.518,283.276 Q439.518,283.55 439.339,283.726 Q439.159,283.901 438.846,283.901 Q438.534,283.901 438.358,283.726 Q438.182,283.55 438.182,283.276 z" fill="#000000"/>
    <path d="M448.799,279.097 Q448.799,281.503 447.917,282.749 Q447.034,283.995 445.315,283.995 Q443.628,283.995 442.729,282.772 Q441.831,281.55 441.807,279.214 L441.807,277.175 Q441.807,274.776 442.698,273.542 Q443.589,272.308 445.299,272.308 Q446.987,272.308 447.878,273.499 Q448.768,274.69 448.799,277.011 z M447.862,277.058 Q447.862,275.104 447.225,274.104 Q446.589,273.104 445.299,273.104 Q444.034,273.104 443.393,274.081 Q442.753,275.058 442.737,276.964 L442.737,279.198 Q442.737,281.144 443.397,282.175 Q444.057,283.206 445.315,283.206 Q446.565,283.206 447.21,282.198 Q447.854,281.19 447.862,279.245 z" fill="#000000"/>
    <path d="M458.12,283.995 Q457.042,283.995 456.171,283.464 Q455.299,282.933 454.815,281.983 Q454.331,281.034 454.331,279.854 L454.331,279.519 Q454.331,278.3 454.803,277.323 Q455.276,276.347 456.12,275.788 Q456.964,275.229 457.948,275.229 Q459.487,275.229 460.389,276.28 Q461.292,277.331 461.292,279.151 L461.292,279.675 L455.26,279.675 L455.26,279.854 Q455.26,281.292 456.085,282.249 Q456.909,283.206 458.159,283.206 Q458.909,283.206 459.483,282.933 Q460.057,282.659 460.526,282.058 L461.112,282.503 Q460.081,283.995 458.12,283.995 z M457.948,276.026 Q456.893,276.026 456.171,276.8 Q455.448,277.573 455.292,278.878 L460.362,278.878 L460.362,278.776 Q460.323,277.558 459.667,276.792 Q459.01,276.026 457.948,276.026 z" fill="#000000"/>
    <path d="M466.76,282.433 L466.823,282.675 L466.893,282.433 L470.471,272.464 L471.526,272.464 L467.292,283.839 L466.37,283.839 L462.135,272.464 L463.182,272.464 z" fill="#000000"/>
    <path d="M693.415,544.961 L667.418,544.961" fill-opacity="0" stroke="#000000" stroke-width="3"/>
    <g>
      <path d="M680.419,92.744 L680.513,533.161" fill-opacity="0" stroke="#000000" stroke-width="2"/>
      <path d="M684.019,92.743 L680.417,83.144 L676.819,92.745 z" fill="#000000" fill-opacity="1" stroke="#000000" stroke-width="2" stroke-opacity="1"/>
      <path d="M676.913,533.162 L680.515,542.761 L684.113,533.161 z" fill="#000000" fill-opacity="1" stroke="#000000" stroke-width="2" stroke-opacity="1"/>
    </g>
    <path d="M637.455,313.789 L639.228,313.789 L639.228,314.578 L637.455,314.578 L637.455,317.453 L636.517,317.453 L636.517,314.578 L631.166,314.578 L631.166,314.047 L636.431,306.078 L637.455,306.078 z M632.314,313.789 L636.517,313.789 L636.517,307.289 L636.103,308.007 z" fill="#000000"/>
    <path d="M640.642,316.89 Q640.642,316.617 640.818,316.425 Q640.994,316.234 641.306,316.234 Q641.619,316.234 641.799,316.425 Q641.978,316.617 641.978,316.89 Q641.978,317.164 641.799,317.339 Q641.619,317.515 641.306,317.515 Q640.994,317.515 640.818,317.339 Q640.642,317.164 640.642,316.89 z" fill="#000000"/>
    <path d="M651.408,306.617 L646.549,317.453 L645.572,317.453 L650.4,306.875 L643.931,306.875 L643.931,306.078 L651.408,306.078 z" fill="#000000"/>
    <path d="M660.58,317.609 Q659.502,317.609 658.631,317.078 Q657.76,316.547 657.275,315.597 Q656.791,314.648 656.791,313.468 L656.791,313.132 Q656.791,311.914 657.263,310.937 Q657.736,309.961 658.58,309.402 Q659.424,308.843 660.408,308.843 Q661.947,308.843 662.849,309.894 Q663.752,310.945 663.752,312.765 L663.752,313.289 L657.721,313.289 L657.721,313.468 Q657.721,314.906 658.545,315.863 Q659.369,316.82 660.619,316.82 Q661.369,316.82 661.943,316.547 Q662.517,316.273 662.986,315.672 L663.572,316.117 Q662.541,317.609 660.58,317.609 z M660.408,309.64 Q659.353,309.64 658.631,310.414 Q657.908,311.187 657.752,312.492 L662.822,312.492 L662.822,312.39 Q662.783,311.172 662.127,310.406 Q661.471,309.64 660.408,309.64 z" fill="#000000"/>
    <path d="M669.221,316.047 L669.283,316.289 L669.353,316.047 L672.931,306.078 L673.986,306.078 L669.752,317.453 L668.83,317.453 L664.596,306.078 L665.642,306.078 z" fill="#000000"/>
    <path d="M311.226,280.621 L305.378,280.621 L305.378,296.453 L303.937,296.453 L303.937,280.621 L298.101,280.621 L298.101,279.39 L311.226,279.39 z" fill="#000000"/>
    <path d="M315.222,296.453 L313.815,296.453 L313.815,283.773 L315.222,283.773 z M313.569,280.105 Q313.569,279.707 313.827,279.431 Q314.085,279.156 314.53,279.156 Q314.976,279.156 315.239,279.431 Q315.503,279.707 315.503,280.105 Q315.503,280.504 315.239,280.773 Q314.976,281.043 314.53,281.043 Q314.085,281.043 313.827,280.773 Q313.569,280.504 313.569,280.105 z" fill="#000000"/>
    <path d="M370.507,280.095 L372.281,280.095 L372.281,280.884 L370.507,280.884 L370.507,283.759 L369.57,283.759 L369.57,280.884 L364.218,280.884 L364.218,280.353 L369.484,272.384 L370.507,272.384 z M365.367,280.095 L369.57,280.095 L369.57,273.595 L369.156,274.314 z" fill="#000000"/>
    <path d="M377.484,277.978 L380.945,277.978 L380.945,278.853 L377.484,278.853 L377.484,282.619 L376.539,282.619 L376.539,278.853 L373.148,278.853 L373.148,277.978 L376.539,277.978 L376.539,274.338 L377.484,274.338 z" fill="#000000"/>
    <path d="M321.238,277.564 L322.207,277.564 Q323.012,277.564 323.613,277.279 Q324.215,276.994 324.531,276.498 Q324.848,276.002 324.848,275.353 Q324.848,274.259 324.23,273.642 Q323.613,273.025 322.457,273.025 Q321.363,273.025 320.664,273.67 Q319.965,274.314 319.965,275.369 L319.027,275.369 Q319.027,274.486 319.473,273.756 Q319.918,273.025 320.707,272.627 Q321.496,272.228 322.457,272.228 Q324.004,272.228 324.895,273.072 Q325.785,273.916 325.785,275.384 Q325.785,276.205 325.266,276.896 Q324.746,277.588 323.84,277.931 Q324.902,278.228 325.449,278.951 Q325.996,279.674 325.996,280.674 Q325.996,282.134 325.043,283.025 Q324.09,283.916 322.496,283.916 Q321.48,283.916 320.633,283.509 Q319.785,283.103 319.32,282.373 Q318.855,281.642 318.855,280.674 L319.793,280.674 Q319.793,281.759 320.551,282.443 Q321.309,283.127 322.496,283.127 Q323.707,283.127 324.383,282.506 Q325.059,281.884 325.059,280.705 Q325.059,279.564 324.328,278.963 Q323.598,278.361 322.176,278.361 L321.238,278.361 z" fill="#000000"/>
    <path d="M331.879,277.978 L335.34,277.978 L335.34,278.853 L331.879,278.853 L331.879,282.619 L330.934,282.619 L330.934,278.853 L327.543,278.853 L327.543,277.978 L330.934,277.978 L330.934,274.338 L331.879,274.338 z" fill="#000000"/>
    <path d="M335.085,297.918 L333.808,297.918 L340.933,279.39 L342.199,279.39 z" fill="#000000"/>
    <path d="M356.718,280.621 L350.871,280.621 L350.871,296.453 L349.429,296.453 L349.429,280.621 L343.593,280.621 L343.593,279.39 L356.718,279.39 z" fill="#000000"/>
    <path d="M360.714,296.453 L359.308,296.453 L359.308,283.773 L360.714,283.773 z M359.062,280.105 Q359.062,279.707 359.32,279.431 Q359.578,279.156 360.023,279.156 Q360.468,279.156 360.732,279.431 Q360.996,279.707 360.996,280.105 Q360.996,280.504 360.732,280.773 Q360.468,281.043 360.023,281.043 Q359.578,281.043 359.32,280.773 Q359.062,280.504 359.062,280.105 z" fill="#000000"/>
    <path d="M513.526,456.746 Q513.233,459.441 511.598,460.871 Q509.963,462.3 507.244,462.3 Q505.346,462.3 503.887,461.351 Q502.428,460.402 501.631,458.662 Q500.834,456.921 500.823,454.683 L500.823,452.468 Q500.823,450.195 501.619,448.437 Q502.416,446.679 503.91,445.724 Q505.405,444.769 507.35,444.769 Q510.092,444.769 511.68,446.251 Q513.268,447.734 513.526,450.347 L512.073,450.347 Q511.534,445.999 507.35,445.999 Q505.03,445.999 503.653,447.734 Q502.276,449.468 502.276,452.527 L502.276,454.613 Q502.276,457.566 503.618,459.324 Q504.959,461.081 507.244,461.081 Q509.506,461.081 510.655,459.997 Q511.803,458.914 512.073,456.746 z" fill="#000000"/>
    <path d="M515.928,455.539 Q515.928,453.71 516.637,452.246 Q517.346,450.781 518.641,449.966 Q519.936,449.152 521.576,449.152 Q524.108,449.152 525.678,450.927 Q527.248,452.703 527.248,455.632 L527.248,455.925 Q527.248,457.765 526.539,459.236 Q525.83,460.706 524.541,461.503 Q523.252,462.3 521.6,462.3 Q519.08,462.3 517.504,460.525 Q515.928,458.749 515.928,455.82 z M517.334,455.925 Q517.334,458.199 518.512,459.658 Q519.69,461.117 521.6,461.117 Q523.498,461.117 524.676,459.658 Q525.854,458.199 525.854,455.808 L525.854,455.539 Q525.854,454.085 525.315,452.878 Q524.776,451.671 523.803,451.009 Q522.83,450.347 521.576,450.347 Q519.701,450.347 518.518,451.818 Q517.334,453.289 517.334,455.667 z" fill="#000000"/>
    <path d="M584.303,445.709 L586.077,445.709 L586.077,446.498 L584.303,446.498 L584.303,449.373 L583.366,449.373 L583.366,446.498 L578.014,446.498 L578.014,445.966 L583.28,437.998 L584.303,437.998 z M579.163,445.709 L583.366,445.709 L583.366,439.209 L582.952,439.927 z" fill="#000000"/>
    <path d="M591.28,443.591 L594.741,443.591 L594.741,444.466 L591.28,444.466 L591.28,448.232 L590.335,448.232 L590.335,444.466 L586.944,444.466 L586.944,443.591 L590.335,443.591 L590.335,439.951 L591.28,439.951 z" fill="#000000"/>
    <path d="M530.034,443.177 L531.003,443.177 Q531.808,443.177 532.409,442.892 Q533.011,442.607 533.327,442.111 Q533.644,441.615 533.644,440.966 Q533.644,439.873 533.027,439.255 Q532.409,438.638 531.253,438.638 Q530.159,438.638 529.46,439.283 Q528.761,439.927 528.761,440.982 L527.824,440.982 Q527.824,440.099 528.269,439.369 Q528.714,438.638 529.503,438.24 Q530.292,437.841 531.253,437.841 Q532.8,437.841 533.691,438.685 Q534.581,439.529 534.581,440.998 Q534.581,441.818 534.062,442.509 Q533.542,443.201 532.636,443.544 Q533.699,443.841 534.245,444.564 Q534.792,445.287 534.792,446.287 Q534.792,447.748 533.839,448.638 Q532.886,449.529 531.292,449.529 Q530.277,449.529 529.429,449.123 Q528.581,448.716 528.117,447.986 Q527.652,447.255 527.652,446.287 L528.589,446.287 Q528.589,447.373 529.347,448.056 Q530.105,448.74 531.292,448.74 Q532.503,448.74 533.179,448.119 Q533.855,447.498 533.855,446.318 Q533.855,445.177 533.124,444.576 Q532.394,443.974 530.972,443.974 L530.034,443.974 z" fill="#000000"/>
    <path d="M540.675,443.591 L544.136,443.591 L544.136,444.466 L540.675,444.466 L540.675,448.232 L539.73,448.232 L539.73,444.466 L536.339,444.466 L536.339,443.591 L539.73,443.591 L539.73,439.951 L540.675,439.951 z" fill="#000000"/>
    <path d="M543.673,463.531 L542.395,463.531 L549.52,445.003 L550.786,445.003 z" fill="#000000"/>
    <path d="M565.809,456.746 Q565.516,459.441 563.882,460.871 Q562.247,462.3 559.528,462.3 Q557.63,462.3 556.171,461.351 Q554.712,460.402 553.915,458.662 Q553.118,456.921 553.106,454.683 L553.106,452.468 Q553.106,450.195 553.903,448.437 Q554.7,446.679 556.194,445.724 Q557.688,444.769 559.634,444.769 Q562.376,444.769 563.964,446.251 Q565.552,447.734 565.809,450.347 L564.356,450.347 Q563.817,445.999 559.634,445.999 Q557.313,445.999 555.936,447.734 Q554.559,449.468 554.559,452.527 L554.559,454.613 Q554.559,457.566 555.901,459.324 Q557.243,461.081 559.528,461.081 Q561.79,461.081 562.938,459.997 Q564.087,458.914 564.356,456.746 z" fill="#000000"/>
    <path d="M568.212,455.539 Q568.212,453.71 568.921,452.246 Q569.63,450.781 570.925,449.966 Q572.219,449.152 573.86,449.152 Q576.391,449.152 577.962,450.927 Q579.532,452.703 579.532,455.632 L579.532,455.925 Q579.532,457.765 578.823,459.236 Q578.114,460.706 576.825,461.503 Q575.536,462.3 573.884,462.3 Q571.364,462.3 569.788,460.525 Q568.212,458.749 568.212,455.82 z M569.618,455.925 Q569.618,458.199 570.796,459.658 Q571.973,461.117 573.884,461.117 Q575.782,461.117 576.96,459.658 Q578.137,458.199 578.137,455.808 L578.137,455.539 Q578.137,454.085 577.598,452.878 Q577.059,451.671 576.087,451.009 Q575.114,450.347 573.86,450.347 Q571.985,450.347 570.802,451.818 Q569.618,453.289 569.618,455.667 z" fill="#000000"/>
    <path d="M715.596,522.131 Q715.303,524.826 713.668,526.256 Q712.033,527.686 709.315,527.686 Q707.416,527.686 705.957,526.736 Q704.498,525.787 703.701,524.047 Q702.905,522.307 702.893,520.068 L702.893,517.854 Q702.893,515.58 703.69,513.822 Q704.487,512.065 705.981,511.109 Q707.475,510.154 709.42,510.154 Q712.162,510.154 713.75,511.637 Q715.338,513.119 715.596,515.732 L714.143,515.732 Q713.604,511.385 709.42,511.385 Q707.1,511.385 705.723,513.119 Q704.346,514.854 704.346,517.912 L704.346,519.998 Q704.346,522.951 705.688,524.709 Q707.03,526.467 709.315,526.467 Q711.576,526.467 712.725,525.383 Q713.873,524.299 714.143,522.131 z" fill="#000000"/>
    <path d="M717.998,520.924 Q717.998,519.096 718.707,517.631 Q719.416,516.166 720.711,515.352 Q722.006,514.537 723.647,514.537 Q726.178,514.537 727.748,516.313 Q729.319,518.088 729.319,521.018 L729.319,521.311 Q729.319,523.15 728.61,524.621 Q727.901,526.092 726.612,526.889 Q725.323,527.686 723.67,527.686 Q721.151,527.686 719.574,525.91 Q717.998,524.135 717.998,521.205 z M719.405,521.311 Q719.405,523.584 720.582,525.043 Q721.76,526.502 723.67,526.502 Q725.569,526.502 726.746,525.043 Q727.924,523.584 727.924,521.193 L727.924,520.924 Q727.924,519.471 727.385,518.264 Q726.846,517.057 725.873,516.395 Q724.901,515.732 723.647,515.732 Q721.772,515.732 720.588,517.203 Q719.405,518.674 719.405,521.053 z" fill="#000000"/>
    <path d="M782.71,508.563 L783.678,508.563 Q784.483,508.563 785.085,508.277 Q785.686,507.992 786.003,507.496 Q786.319,507 786.319,506.352 Q786.319,505.258 785.702,504.641 Q785.085,504.024 783.928,504.024 Q782.835,504.024 782.135,504.668 Q781.436,505.313 781.436,506.367 L780.499,506.367 Q780.499,505.485 780.944,504.754 Q781.389,504.024 782.178,503.625 Q782.967,503.227 783.928,503.227 Q785.475,503.227 786.366,504.07 Q787.256,504.914 787.256,506.383 Q787.256,507.203 786.737,507.895 Q786.217,508.586 785.311,508.93 Q786.374,509.227 786.921,509.949 Q787.467,510.672 787.467,511.672 Q787.467,513.133 786.514,514.024 Q785.561,514.914 783.967,514.914 Q782.952,514.914 782.104,514.508 Q781.256,514.102 780.792,513.371 Q780.327,512.641 780.327,511.672 L781.264,511.672 Q781.264,512.758 782.022,513.442 Q782.78,514.125 783.967,514.125 Q785.178,514.125 785.854,513.504 Q786.53,512.883 786.53,511.703 Q786.53,510.563 785.799,509.961 Q785.069,509.36 783.647,509.36 L782.71,509.36 z" fill="#000000"/>
    <path d="M793.35,508.977 L796.811,508.977 L796.811,509.852 L793.35,509.852 L793.35,513.617 L792.405,513.617 L792.405,509.852 L789.014,509.852 L789.014,508.977 L792.405,508.977 L792.405,505.336 L793.35,505.336 z" fill="#000000"/>
    <path d="M737.152,514.758 L730.027,514.758 L730.027,514.039 L733.925,509.617 Q734.894,508.5 735.269,507.774 Q735.644,507.047 735.644,506.36 Q735.644,505.281 735.011,504.652 Q734.378,504.024 733.269,504.024 Q732.12,504.024 731.413,504.758 Q730.706,505.492 730.706,506.664 L729.777,506.664 Q729.777,505.703 730.21,504.914 Q730.644,504.125 731.445,503.676 Q732.245,503.227 733.269,503.227 Q734.831,503.227 735.71,504.047 Q736.589,504.867 736.589,506.281 Q736.589,507.078 736.093,508.024 Q735.597,508.969 734.347,510.383 L731.175,513.969 L737.152,513.969 z" fill="#000000"/>
    <path d="M742.745,508.977 L746.206,508.977 L746.206,509.852 L742.745,509.852 L742.745,513.617 L741.8,513.617 L741.8,509.852 L738.409,509.852 L738.409,508.977 L741.8,508.977 L741.8,505.336 L742.745,505.336 z" fill="#000000"/>
    <path d="M745.743,528.916 L744.465,528.916 L751.59,510.389 L752.856,510.389 z" fill="#000000"/>
    <path d="M767.88,522.131 Q767.587,524.826 765.952,526.256 Q764.317,527.686 761.598,527.686 Q759.7,527.686 758.241,526.736 Q756.782,525.787 755.985,524.047 Q755.188,522.307 755.176,520.068 L755.176,517.854 Q755.176,515.58 755.973,513.822 Q756.77,512.065 758.264,511.109 Q759.758,510.154 761.704,510.154 Q764.446,510.154 766.034,511.637 Q767.622,513.119 767.88,515.732 L766.426,515.732 Q765.887,511.385 761.704,511.385 Q759.383,511.385 758.006,513.119 Q756.63,514.854 756.63,517.912 L756.63,519.998 Q756.63,522.951 757.971,524.709 Q759.313,526.467 761.598,526.467 Q763.86,526.467 765.008,525.383 Q766.157,524.299 766.426,522.131 z" fill="#000000"/>
    <path d="M770.282,520.924 Q770.282,519.096 770.991,517.631 Q771.7,516.166 772.995,515.352 Q774.29,514.537 775.93,514.537 Q778.462,514.537 780.032,516.313 Q781.602,518.088 781.602,521.018 L781.602,521.311 Q781.602,523.15 780.893,524.621 Q780.184,526.092 778.895,526.889 Q777.606,527.686 775.954,527.686 Q773.434,527.686 771.858,525.91 Q770.282,524.135 770.282,521.205 z M771.688,521.311 Q771.688,523.584 772.866,525.043 Q774.044,526.502 775.954,526.502 Q777.852,526.502 779.03,525.043 Q780.208,523.584 780.208,521.193 L780.208,520.924 Q780.208,519.471 779.669,518.264 Q779.13,517.057 778.157,516.395 Q777.184,515.732 775.93,515.732 Q774.055,515.732 772.872,517.203 Q771.688,518.674 771.688,521.053 z" fill="#000000"/>
    <path d="M367.978,365.485 Q367.978,364.067 366.982,363.241 Q365.986,362.415 363.338,361.671 Q360.689,360.926 359.47,360.048 Q357.736,358.805 357.736,356.79 Q357.736,354.833 359.347,353.608 Q360.959,352.383 363.466,352.383 Q365.166,352.383 366.507,353.04 Q367.849,353.696 368.588,354.868 Q369.326,356.04 369.326,357.481 L367.873,357.481 Q367.873,355.735 366.677,354.674 Q365.482,353.614 363.466,353.614 Q361.509,353.614 360.349,354.487 Q359.189,355.36 359.189,356.766 Q359.189,358.067 360.232,358.887 Q361.275,359.708 363.572,360.335 Q365.869,360.962 367.052,361.635 Q368.236,362.309 368.834,363.247 Q369.431,364.184 369.431,365.462 Q369.431,367.477 367.82,368.696 Q366.209,369.915 363.572,369.915 Q361.767,369.915 360.261,369.27 Q358.756,368.626 357.976,367.466 Q357.197,366.305 357.197,364.805 L358.638,364.805 Q358.638,366.61 359.986,367.653 Q361.334,368.696 363.572,368.696 Q365.564,368.696 366.771,367.817 Q367.978,366.938 367.978,365.485 z" fill="#000000"/>
    <path d="M378.199,354.547 L371.074,354.547 L371.074,353.829 L374.972,349.407 Q375.941,348.29 376.316,347.563 Q376.691,346.836 376.691,346.149 Q376.691,345.071 376.058,344.442 Q375.425,343.813 374.316,343.813 Q373.168,343.813 372.461,344.547 Q371.754,345.282 371.754,346.454 L370.824,346.454 Q370.824,345.493 371.257,344.704 Q371.691,343.915 372.492,343.465 Q373.293,343.016 374.316,343.016 Q375.879,343.016 376.757,343.836 Q377.636,344.657 377.636,346.071 Q377.636,346.868 377.14,347.813 Q376.644,348.758 375.394,350.172 L372.222,353.758 L378.199,353.758 z" fill="#000000"/>
    <path d="M382.996,349.922 L379.254,349.922 L379.254,349.133 L382.996,349.133 z" fill="#000000"/>
    <path d="M385.06,368.837 Q385.06,368.426 385.324,368.139 Q385.588,367.852 386.056,367.852 Q386.525,367.852 386.795,368.139 Q387.064,368.426 387.064,368.837 Q387.064,369.247 386.795,369.51 Q386.525,369.774 386.056,369.774 Q385.588,369.774 385.324,369.51 Q385.06,369.247 385.06,368.837 z M385.084,358.02 Q385.084,357.61 385.348,357.323 Q385.611,357.036 386.08,357.036 Q386.549,357.036 386.818,357.323 Q387.088,357.61 387.088,358.02 Q387.088,358.43 386.818,358.694 Q386.549,358.958 386.08,358.958 Q385.611,358.958 385.348,358.694 Q385.084,358.43 385.084,358.02 z" fill="#000000"/>
    <path d="M393.334,360.387 L394.787,360.387 Q395.994,360.387 396.896,359.96 Q397.799,359.532 398.273,358.788 Q398.748,358.044 398.748,357.071 Q398.748,355.43 397.822,354.505 Q396.896,353.579 395.162,353.579 Q393.521,353.579 392.473,354.546 Q391.424,355.512 391.424,357.094 L390.017,357.094 Q390.017,355.77 390.685,354.674 Q391.353,353.579 392.537,352.981 Q393.721,352.383 395.162,352.383 Q397.482,352.383 398.818,353.649 Q400.154,354.915 400.154,357.118 Q400.154,358.348 399.375,359.385 Q398.596,360.423 397.236,360.938 Q398.83,361.383 399.65,362.467 Q400.471,363.551 400.471,365.051 Q400.471,367.243 399.041,368.579 Q397.611,369.915 395.221,369.915 Q393.697,369.915 392.426,369.305 Q391.154,368.696 390.457,367.6 Q389.76,366.505 389.76,365.051 L391.166,365.051 Q391.166,366.68 392.303,367.706 Q393.439,368.731 395.221,368.731 Q397.037,368.731 398.051,367.799 Q399.064,366.868 399.064,365.098 Q399.064,363.387 397.969,362.485 Q396.873,361.583 394.74,361.583 L393.334,361.583 z" fill="#000000"/>
    <path d="M413.935,363.469 Q413.935,366.434 412.623,368.174 Q411.31,369.915 409.107,369.915 Q406.506,369.915 405.123,368.087 L405.123,374.555 L403.728,374.555 L403.728,357.001 L405.029,357.001 L405.099,358.794 Q406.471,356.766 409.072,356.766 Q411.346,356.766 412.64,358.489 Q413.935,360.212 413.935,363.27 z M412.529,363.223 Q412.529,360.798 411.533,359.391 Q410.537,357.985 408.756,357.985 Q407.467,357.985 406.541,358.606 Q405.615,359.227 405.123,360.411 L405.123,366.493 Q405.627,367.583 406.564,368.157 Q407.502,368.731 408.779,368.731 Q410.549,368.731 411.539,367.319 Q412.529,365.907 412.529,363.223 z" fill="#000000"/>
    <path d="M419.368,343.086 L419.368,343.907 L419.259,343.907 Q417.22,343.907 416.048,345.106 Q414.876,346.305 414.751,348.438 Q415.22,347.79 415.947,347.434 Q416.673,347.079 417.572,347.079 Q419.072,347.079 419.958,348.114 Q420.845,349.149 420.845,350.821 Q420.845,351.93 420.431,352.821 Q420.017,353.711 419.243,354.207 Q418.47,354.704 417.478,354.704 Q415.845,354.704 414.822,353.52 Q413.798,352.336 413.798,350.461 L413.798,349.524 Q413.798,346.469 415.189,344.793 Q416.579,343.118 419.134,343.086 z M417.423,347.883 Q416.532,347.883 415.763,348.411 Q414.993,348.938 414.736,349.75 L414.736,350.547 Q414.736,352.032 415.497,352.969 Q416.259,353.907 417.478,353.907 Q418.572,353.907 419.247,353.04 Q419.923,352.172 419.923,350.852 Q419.923,349.508 419.247,348.696 Q418.572,347.883 417.423,347.883 z" fill="#000000"/>
    <path d="M575.346,520.212 Q575.346,522.567 574.531,524.348 Q573.717,526.13 572.205,527.091 Q570.694,528.051 568.713,528.051 Q565.725,528.051 563.885,525.913 Q562.045,523.774 562.045,520.141 L562.045,518.383 Q562.045,516.051 562.871,514.253 Q563.697,512.454 565.209,511.487 Q566.721,510.52 568.69,510.52 Q570.658,510.52 572.164,511.469 Q573.67,512.419 574.49,514.153 Q575.311,515.887 575.346,518.173 z M573.904,518.36 Q573.904,515.278 572.51,513.532 Q571.115,511.786 568.69,511.786 Q566.311,511.786 564.899,513.538 Q563.487,515.29 563.487,518.43 L563.487,520.212 Q563.487,523.247 564.893,525.022 Q566.299,526.798 568.713,526.798 Q571.162,526.798 572.533,525.046 Q573.904,523.294 573.904,520.165 z" fill="#000000"/>
    <path d="M583.613,512.684 L576.488,512.684 L576.488,511.965 L580.387,507.543 Q581.356,506.426 581.731,505.7 Q582.106,504.973 582.106,504.286 Q582.106,503.207 581.473,502.579 Q580.84,501.95 579.731,501.95 Q578.582,501.95 577.875,502.684 Q577.168,503.418 577.168,504.59 L576.238,504.59 Q576.238,503.629 576.672,502.84 Q577.106,502.051 577.906,501.602 Q578.707,501.153 579.731,501.153 Q581.293,501.153 582.172,501.973 Q583.051,502.793 583.051,504.207 Q583.051,505.004 582.555,505.95 Q582.059,506.895 580.809,508.309 L577.637,511.895 L583.613,511.895 z" fill="#000000"/>
    <path d="M588.41,508.059 L584.668,508.059 L584.668,507.27 L588.41,507.27 z" fill="#000000"/>
    <path d="M589.475,526.973 Q589.475,526.563 589.739,526.276 Q590.002,525.989 590.471,525.989 Q590.94,525.989 591.209,526.276 Q591.479,526.563 591.479,526.973 Q591.479,527.383 591.209,527.647 Q590.94,527.911 590.471,527.911 Q590.002,527.911 589.739,527.647 Q589.475,527.383 589.475,526.973 z M589.498,516.157 Q589.498,515.747 589.762,515.46 Q590.026,515.173 590.494,515.173 Q590.963,515.173 591.233,515.46 Q591.502,515.747 591.502,516.157 Q591.502,516.567 591.233,516.831 Q590.963,517.094 590.494,517.094 Q590.026,517.094 589.762,516.831 Q589.498,516.567 589.498,516.157 z" fill="#000000"/>
    <path d="M605.319,527.817 L594.631,527.817 L594.631,526.739 L600.479,520.106 Q601.932,518.43 602.494,517.341 Q603.057,516.251 603.057,515.219 Q603.057,513.602 602.108,512.659 Q601.159,511.716 599.494,511.716 Q597.772,511.716 596.711,512.817 Q595.651,513.919 595.651,515.676 L594.256,515.676 Q594.256,514.235 594.907,513.051 Q595.557,511.868 596.758,511.194 Q597.959,510.52 599.494,510.52 Q601.838,510.52 603.157,511.751 Q604.475,512.981 604.475,515.102 Q604.475,516.298 603.731,517.716 Q602.987,519.133 601.112,521.255 L596.354,526.633 L605.319,526.633 z" fill="#000000"/>
    <path d="M618.35,521.606 Q618.35,524.571 617.037,526.311 Q615.725,528.051 613.522,528.051 Q610.92,528.051 609.537,526.223 L609.537,532.692 L608.143,532.692 L608.143,515.137 L609.444,515.137 L609.514,516.93 Q610.885,514.903 613.487,514.903 Q615.76,514.903 617.055,516.626 Q618.35,518.348 618.35,521.407 z M616.944,521.36 Q616.944,518.934 615.948,517.528 Q614.951,516.122 613.17,516.122 Q611.881,516.122 610.955,516.743 Q610.03,517.364 609.537,518.548 L609.537,524.63 Q610.041,525.719 610.979,526.294 Q611.916,526.868 613.194,526.868 Q614.963,526.868 615.953,525.456 Q616.944,524.044 616.944,521.36 z" fill="#000000"/>
    <path d="M622.783,501.223 L622.783,502.043 L622.674,502.043 Q620.635,502.043 619.463,503.243 Q618.291,504.442 618.166,506.575 Q618.635,505.926 619.361,505.571 Q620.088,505.215 620.986,505.215 Q622.486,505.215 623.373,506.25 Q624.26,507.286 624.26,508.957 Q624.26,510.067 623.846,510.957 Q623.431,511.848 622.658,512.344 Q621.885,512.84 620.892,512.84 Q619.26,512.84 618.236,511.657 Q617.213,510.473 617.213,508.598 L617.213,507.661 Q617.213,504.606 618.603,502.93 Q619.994,501.254 622.549,501.223 z M620.838,506.02 Q619.947,506.02 619.178,506.547 Q618.408,507.075 618.15,507.887 L618.15,508.684 Q618.15,510.168 618.912,511.106 Q619.674,512.043 620.892,512.043 Q621.986,512.043 622.662,511.176 Q623.338,510.309 623.338,508.989 Q623.338,507.645 622.662,506.832 Q621.986,506.02 620.838,506.02 z" fill="#000000"/>
    <path d="M777.194,597.426 Q777.194,599.782 776.38,601.563 Q775.566,603.344 774.054,604.305 Q772.542,605.266 770.562,605.266 Q767.573,605.266 765.734,603.128 Q763.894,600.989 763.894,597.356 L763.894,595.598 Q763.894,593.266 764.72,591.467 Q765.546,589.669 767.058,588.702 Q768.569,587.735 770.538,587.735 Q772.507,587.735 774.013,588.684 Q775.519,589.633 776.339,591.368 Q777.159,593.102 777.194,595.387 z M775.753,595.575 Q775.753,592.493 774.359,590.747 Q772.964,589.001 770.538,589.001 Q768.159,589.001 766.747,590.753 Q765.335,592.505 765.335,595.645 L765.335,597.426 Q765.335,600.462 766.741,602.237 Q768.148,604.012 770.562,604.012 Q773.011,604.012 774.382,602.26 Q775.753,600.508 775.753,597.38 z" fill="#000000"/>
    <path d="M785.462,589.899 L778.337,589.899 L778.337,589.18 L782.235,584.758 Q783.204,583.641 783.579,582.914 Q783.954,582.188 783.954,581.5 Q783.954,580.422 783.321,579.793 Q782.689,579.164 781.579,579.164 Q780.431,579.164 779.724,579.899 Q779.017,580.633 779.017,581.805 L778.087,581.805 Q778.087,580.844 778.521,580.055 Q778.954,579.266 779.755,578.817 Q780.556,578.368 781.579,578.368 Q783.142,578.368 784.021,579.188 Q784.9,580.008 784.9,581.422 Q784.9,582.219 784.403,583.164 Q783.907,584.11 782.657,585.524 L779.485,589.11 L785.462,589.11 z" fill="#000000"/>
    <path d="M790.259,585.274 L786.517,585.274 L786.517,584.485 L790.259,584.485 z" fill="#000000"/>
    <path d="M791.323,604.188 Q791.323,603.778 791.587,603.491 Q791.851,603.204 792.32,603.204 Q792.788,603.204 793.058,603.491 Q793.327,603.778 793.327,604.188 Q793.327,604.598 793.058,604.862 Q792.788,605.126 792.32,605.126 Q791.851,605.126 791.587,604.862 Q791.323,604.598 791.323,604.188 z M791.347,593.372 Q791.347,592.962 791.611,592.674 Q791.874,592.387 792.343,592.387 Q792.812,592.387 793.081,592.674 Q793.351,592.962 793.351,593.372 Q793.351,593.782 793.081,594.046 Q792.812,594.309 792.343,594.309 Q791.874,594.309 791.611,594.046 Q791.347,593.782 791.347,593.372 z" fill="#000000"/>
    <path d="M807.167,605.032 L796.48,605.032 L796.48,603.954 L802.327,597.321 Q803.781,595.645 804.343,594.555 Q804.906,593.465 804.906,592.434 Q804.906,590.817 803.956,589.874 Q803.007,588.93 801.343,588.93 Q799.62,588.93 798.56,590.032 Q797.499,591.133 797.499,592.891 L796.105,592.891 Q796.105,591.45 796.755,590.266 Q797.406,589.083 798.607,588.409 Q799.808,587.735 801.343,587.735 Q803.687,587.735 805.005,588.965 Q806.323,590.196 806.323,592.317 Q806.323,593.512 805.579,594.93 Q804.835,596.348 802.96,598.469 L798.202,603.848 L807.167,603.848 z" fill="#000000"/>
    <path d="M820.198,598.821 Q820.198,601.786 818.886,603.526 Q817.573,605.266 815.37,605.266 Q812.769,605.266 811.386,603.438 L811.386,609.907 L809.991,609.907 L809.991,592.352 L811.292,592.352 L811.363,594.145 Q812.734,592.118 815.335,592.118 Q817.609,592.118 818.904,593.84 Q820.198,595.563 820.198,598.622 z M818.792,598.575 Q818.792,596.149 817.796,594.743 Q816.8,593.337 815.019,593.337 Q813.73,593.337 812.804,593.958 Q811.878,594.579 811.386,595.762 L811.386,601.844 Q811.89,602.934 812.827,603.508 Q813.765,604.083 815.042,604.083 Q816.812,604.083 817.802,602.671 Q818.792,601.258 818.792,598.575 z" fill="#000000"/>
    <path d="M824.632,578.438 L824.632,579.258 L824.522,579.258 Q822.483,579.258 821.311,580.457 Q820.139,581.657 820.014,583.789 Q820.483,583.141 821.21,582.786 Q821.936,582.43 822.835,582.43 Q824.335,582.43 825.221,583.465 Q826.108,584.5 826.108,586.172 Q826.108,587.282 825.694,588.172 Q825.28,589.063 824.507,589.559 Q823.733,590.055 822.741,590.055 Q821.108,590.055 820.085,588.871 Q819.061,587.688 819.061,585.813 L819.061,584.875 Q819.061,581.821 820.452,580.145 Q821.843,578.469 824.397,578.438 z M822.686,583.235 Q821.796,583.235 821.026,583.762 Q820.257,584.289 819.999,585.102 L819.999,585.899 Q819.999,587.383 820.76,588.321 Q821.522,589.258 822.741,589.258 Q823.835,589.258 824.51,588.391 Q825.186,587.524 825.186,586.203 Q825.186,584.86 824.51,584.047 Q823.835,583.235 822.686,583.235 z" fill="#000000"/>
    <path d="M116.263,701.76 L123.728,701.76 L123.728,704.584 L112.747,704.584 L112.747,687.522 L116.263,687.522 z" fill="#000000"/>
    <path d="M129.095,704.584 L125.696,704.584 L125.696,691.904 L129.095,691.904 z M125.497,688.623 Q125.497,687.862 126.007,687.369 Q126.517,686.877 127.396,686.877 Q128.263,686.877 128.778,687.369 Q129.294,687.862 129.294,688.623 Q129.294,689.397 128.772,689.889 Q128.251,690.381 127.396,690.381 Q126.54,690.381 126.019,689.889 Q125.497,689.397 125.497,688.623 z" fill="#000000"/>
    <path d="M162.599,698.488 L162.599,700.347 L162.38,700.347 Q160.849,700.371 159.915,701.144 Q158.982,701.918 158.794,703.293 Q159.701,702.371 161.083,702.371 Q162.568,702.371 163.443,703.433 Q164.318,704.496 164.318,706.23 Q164.318,707.34 163.837,708.238 Q163.357,709.136 162.478,709.636 Q161.599,710.136 160.49,710.136 Q158.693,710.136 157.587,708.886 Q156.482,707.636 156.482,705.551 L156.482,704.738 Q156.482,702.886 157.181,701.469 Q157.88,700.051 159.189,699.273 Q160.498,698.496 162.224,698.488 z M160.396,704.183 Q159.849,704.183 159.404,704.469 Q158.958,704.754 158.748,705.222 L158.748,705.91 Q158.748,707.043 159.193,707.679 Q159.638,708.316 160.443,708.316 Q161.169,708.316 161.619,707.742 Q162.068,707.168 162.068,706.254 Q162.068,705.324 161.615,704.754 Q161.162,704.183 160.396,704.183 z" fill="#000000"/>
    <path d="M135.063,704.051 L136.485,701.527 L138.899,701.527 L136.493,705.668 L139,709.98 L136.579,709.98 L135.071,707.324 L133.571,709.98 L131.141,709.98 L133.649,705.668 L131.25,701.527 L133.672,701.527 z" fill="#000000"/>
    <path d="M154.234,698.901 Q154.035,701.654 152.201,703.237 Q150.367,704.819 147.367,704.819 Q144.085,704.819 142.205,702.61 Q140.324,700.401 140.324,696.545 L140.324,695.502 Q140.324,693.041 141.191,691.166 Q142.058,689.291 143.669,688.289 Q145.281,687.287 147.414,687.287 Q150.367,687.287 152.171,688.869 Q153.976,690.451 154.257,693.311 L150.742,693.311 Q150.613,691.658 149.822,690.914 Q149.031,690.17 147.414,690.17 Q145.656,690.17 144.783,691.43 Q143.91,692.69 143.886,695.338 L143.886,696.627 Q143.886,699.393 144.724,700.67 Q145.562,701.947 147.367,701.947 Q148.996,701.947 149.798,701.203 Q150.601,700.459 150.718,698.901 z" fill="#000000"/>
    <path d="M318.174,697.812 L325.639,697.812 L325.639,700.636 L314.658,700.636 L314.658,683.574 L318.174,683.574 z" fill="#000000"/>
    <path d="M331.006,700.636 L327.607,700.636 L327.607,687.956 L331.006,687.956 z M327.408,684.675 Q327.408,683.913 327.918,683.421 Q328.428,682.929 329.307,682.929 Q330.174,682.929 330.689,683.421 Q331.205,683.913 331.205,684.675 Q331.205,685.449 330.683,685.941 Q330.162,686.433 329.307,686.433 Q328.451,686.433 327.93,685.941 Q327.408,685.449 327.408,684.675 z" fill="#000000"/>
    <path d="M383.182,706.032 L375.385,706.032 L375.385,704.485 L379.065,700.563 Q379.823,699.735 380.186,699.118 Q380.549,698.501 380.549,697.946 Q380.549,697.188 380.166,696.755 Q379.783,696.321 379.073,696.321 Q378.307,696.321 377.866,696.849 Q377.424,697.376 377.424,698.235 L375.158,698.235 Q375.158,697.196 375.655,696.337 Q376.151,695.477 377.057,694.989 Q377.963,694.501 379.112,694.501 Q380.869,694.501 381.842,695.345 Q382.815,696.188 382.815,697.727 Q382.815,698.571 382.377,699.446 Q381.94,700.321 380.877,701.485 L378.291,704.212 L383.182,704.212 z" fill="#000000"/>
    <path d="M336.974,700.102 L338.396,697.579 L340.81,697.579 L338.404,701.72 L340.911,706.032 L338.49,706.032 L336.982,703.376 L335.482,706.032 L333.052,706.032 L335.56,701.72 L333.161,697.579 L335.583,697.579 z" fill="#000000"/>
    <path d="M352.789,686.421 L347.562,686.421 L347.562,700.636 L344.046,700.636 L344.046,686.421 L338.89,686.421 L338.89,683.574 L352.789,683.574 z" fill="#000000"/>
    <path d="M358.144,700.636 L354.746,700.636 L354.746,687.956 L358.144,687.956 z M354.546,684.675 Q354.546,683.913 355.056,683.421 Q355.566,682.929 356.445,682.929 Q357.312,682.929 357.828,683.421 Q358.343,683.913 358.343,684.675 Q358.343,685.449 357.822,685.941 Q357.3,686.433 356.445,686.433 Q355.589,686.433 355.068,685.941 Q354.546,685.449 354.546,684.675 z" fill="#000000"/>
    <path d="M370.003,696.16 Q370.003,695.163 369.3,694.63 Q368.597,694.097 366.769,693.505 Q364.941,692.913 363.874,692.339 Q360.968,690.769 360.968,688.109 Q360.968,686.726 361.747,685.642 Q362.527,684.558 363.986,683.949 Q365.445,683.339 367.261,683.339 Q369.089,683.339 370.519,684.001 Q371.949,684.663 372.74,685.87 Q373.531,687.078 373.531,688.613 L370.015,688.613 Q370.015,687.441 369.277,686.79 Q368.539,686.14 367.203,686.14 Q365.914,686.14 365.199,686.685 Q364.484,687.23 364.484,688.12 Q364.484,688.953 365.322,689.515 Q366.16,690.078 367.789,690.57 Q370.789,691.472 372.16,692.808 Q373.531,694.144 373.531,696.136 Q373.531,698.351 371.855,699.611 Q370.179,700.87 367.343,700.87 Q365.374,700.87 363.757,700.15 Q362.14,699.429 361.29,698.175 Q360.441,696.921 360.441,695.269 L363.968,695.269 Q363.968,698.093 367.343,698.093 Q368.597,698.093 369.3,697.583 Q370.003,697.074 370.003,696.16 z" fill="#000000"/>
    <path d="M522.583,697.812 L530.048,697.812 L530.048,700.636 L519.067,700.636 L519.067,683.574 L522.583,683.574 z" fill="#000000"/>
    <path d="M535.415,700.636 L532.016,700.636 L532.016,687.956 L535.415,687.956 z M531.817,684.675 Q531.817,683.913 532.327,683.421 Q532.837,682.929 533.716,682.929 Q534.583,682.929 535.098,683.421 Q535.614,683.913 535.614,684.675 Q535.614,685.449 535.093,685.941 Q534.571,686.433 533.716,686.433 Q532.86,686.433 532.339,685.941 Q531.817,685.449 531.817,684.675 z" fill="#000000"/>
    <path d="M599.591,706.032 L591.794,706.032 L591.794,704.485 L595.474,700.563 Q596.232,699.735 596.595,699.118 Q596.958,698.501 596.958,697.946 Q596.958,697.188 596.575,696.755 Q596.193,696.321 595.482,696.321 Q594.716,696.321 594.275,696.849 Q593.833,697.376 593.833,698.235 L591.568,698.235 Q591.568,697.196 592.064,696.337 Q592.56,695.477 593.466,694.989 Q594.372,694.501 595.521,694.501 Q597.279,694.501 598.251,695.345 Q599.224,696.188 599.224,697.727 Q599.224,698.571 598.786,699.446 Q598.349,700.321 597.286,701.485 L594.7,704.212 L599.591,704.212 z" fill="#000000"/>
    <path d="M541.383,700.102 L542.805,697.579 L545.219,697.579 L542.813,701.72 L545.32,706.032 L542.899,706.032 L541.391,703.376 L539.891,706.032 L537.461,706.032 L539.969,701.72 L537.57,697.579 L539.992,697.579 z" fill="#000000"/>
    <path d="M560.761,694.953 Q560.562,697.706 558.728,699.288 Q556.894,700.87 553.894,700.87 Q550.612,700.87 548.731,698.661 Q546.851,696.453 546.851,692.597 L546.851,691.554 Q546.851,689.093 547.718,687.218 Q548.585,685.343 550.196,684.341 Q551.808,683.339 553.94,683.339 Q556.894,683.339 558.698,684.921 Q560.503,686.503 560.784,689.363 L557.269,689.363 Q557.14,687.71 556.349,686.966 Q555.558,686.222 553.94,686.222 Q552.183,686.222 551.31,687.482 Q550.437,688.742 550.413,691.39 L550.413,692.679 Q550.413,695.445 551.251,696.722 Q552.089,697.999 553.894,697.999 Q555.522,697.999 556.325,697.255 Q557.128,696.511 557.245,694.953 z" fill="#000000"/>
    <path d="M562.319,694.179 Q562.319,692.292 563.046,690.816 Q563.772,689.339 565.138,688.531 Q566.503,687.722 568.308,687.722 Q570.874,687.722 572.497,689.292 Q574.12,690.863 574.308,693.558 L574.331,694.425 Q574.331,697.343 572.702,699.107 Q571.073,700.87 568.331,700.87 Q565.589,700.87 563.954,699.113 Q562.319,697.355 562.319,694.331 z M565.706,694.425 Q565.706,696.23 566.386,697.185 Q567.065,698.14 568.331,698.14 Q569.562,698.14 570.253,697.197 Q570.944,696.253 570.944,694.179 Q570.944,692.41 570.253,691.437 Q569.562,690.464 568.308,690.464 Q567.065,690.464 566.386,691.431 Q565.706,692.398 565.706,694.425 z" fill="#000000"/>
    <path d="M590.655,692.492 Q590.655,695.011 589.765,696.91 Q588.874,698.808 587.216,699.839 Q585.558,700.87 583.413,700.87 Q581.292,700.87 579.628,699.851 Q577.964,698.831 577.05,696.939 Q576.136,695.046 576.124,692.585 L576.124,691.742 Q576.124,689.222 577.032,687.306 Q577.94,685.39 579.599,684.365 Q581.257,683.339 583.39,683.339 Q585.522,683.339 587.181,684.365 Q588.839,685.39 589.747,687.306 Q590.655,689.222 590.655,691.73 z M587.093,691.718 Q587.093,689.035 586.132,687.64 Q585.171,686.245 583.39,686.245 Q581.62,686.245 580.659,687.622 Q579.698,688.999 579.687,691.66 L579.687,692.492 Q579.687,695.105 580.647,696.546 Q581.608,697.988 583.413,697.988 Q585.183,697.988 586.132,696.599 Q587.081,695.21 587.093,692.55 z" fill="#000000"/>
    <path d="M726.428,697.812 L733.893,697.812 L733.893,700.636 L722.912,700.636 L722.912,683.574 L726.428,683.574 z" fill="#000000"/>
    <path d="M739.26,700.636 L735.862,700.636 L735.862,687.956 L739.26,687.956 z M735.662,684.675 Q735.662,683.913 736.172,683.421 Q736.682,682.929 737.561,682.929 Q738.428,682.929 738.944,683.421 Q739.459,683.913 739.459,684.675 Q739.459,685.449 738.938,685.941 Q738.416,686.433 737.561,686.433 Q736.705,686.433 736.184,685.941 Q735.662,685.449 735.662,684.675 z" fill="#000000"/>
    <path d="M816.319,701.751 L817.608,701.751 L817.608,703.571 L816.319,703.571 L816.319,706.032 L814.061,706.032 L814.061,703.571 L809.397,703.571 L809.296,702.149 L814.038,694.657 L816.319,694.657 z M811.546,701.751 L814.061,701.751 L814.061,697.735 L813.913,697.993 z" fill="#000000"/>
    <path d="M745.228,700.102 L746.65,697.579 L749.064,697.579 L746.658,701.72 L749.166,706.032 L746.744,706.032 L745.236,703.376 L743.736,706.032 L741.306,706.032 L743.814,701.72 L741.416,697.579 L743.838,697.579 z" fill="#000000"/>
    <path d="M764.046,694.953 Q763.846,697.706 762.012,699.288 Q760.178,700.87 757.178,700.87 Q753.897,700.87 752.016,698.661 Q750.135,696.453 750.135,692.597 L750.135,691.554 Q750.135,689.093 751.003,687.218 Q751.87,685.343 753.481,684.341 Q755.093,683.339 757.225,683.339 Q760.178,683.339 761.983,684.921 Q763.788,686.503 764.069,689.363 L760.553,689.363 Q760.425,687.71 759.634,686.966 Q758.843,686.222 757.225,686.222 Q755.468,686.222 754.594,687.482 Q753.721,688.742 753.698,691.39 L753.698,692.679 Q753.698,695.445 754.536,696.722 Q755.374,697.999 757.178,697.999 Q758.807,697.999 759.61,697.255 Q760.413,696.511 760.53,694.953 z" fill="#000000"/>
    <path d="M765.604,694.179 Q765.604,692.292 766.331,690.816 Q767.057,689.339 768.423,688.531 Q769.788,687.722 771.593,687.722 Q774.159,687.722 775.782,689.292 Q777.405,690.863 777.593,693.558 L777.616,694.425 Q777.616,697.343 775.987,699.107 Q774.358,700.87 771.616,700.87 Q768.874,700.87 767.239,699.113 Q765.604,697.355 765.604,694.331 z M768.991,694.425 Q768.991,696.23 769.671,697.185 Q770.35,698.14 771.616,698.14 Q772.846,698.14 773.538,697.197 Q774.229,696.253 774.229,694.179 Q774.229,692.41 773.538,691.437 Q772.846,690.464 771.593,690.464 Q770.35,690.464 769.671,691.431 Q768.991,692.398 768.991,694.425 z" fill="#000000"/>
    <path d="M783.44,694.624 L783.44,700.636 L779.925,700.636 L779.925,683.574 L786.581,683.574 Q788.503,683.574 789.962,684.277 Q791.421,684.98 792.206,686.275 Q792.991,687.57 792.991,689.222 Q792.991,691.73 791.274,693.177 Q789.557,694.624 786.522,694.624 z M783.44,691.777 L786.581,691.777 Q787.975,691.777 788.708,691.12 Q789.44,690.464 789.44,689.245 Q789.44,687.992 788.702,687.218 Q787.964,686.445 786.663,686.421 L783.44,686.421 z" fill="#000000"/>
    <path d="M809.421,692.492 Q809.421,695.011 808.53,696.91 Q807.639,698.808 805.981,699.839 Q804.323,700.87 802.178,700.87 Q800.057,700.87 798.393,699.851 Q796.729,698.831 795.815,696.939 Q794.901,695.046 794.889,692.585 L794.889,691.742 Q794.889,689.222 795.798,687.306 Q796.706,685.39 798.364,684.365 Q800.022,683.339 802.155,683.339 Q804.288,683.339 805.946,684.365 Q807.604,685.39 808.512,687.306 Q809.421,689.222 809.421,691.73 z M805.858,691.718 Q805.858,689.035 804.897,687.64 Q803.936,686.245 802.155,686.245 Q800.385,686.245 799.425,687.622 Q798.464,688.999 798.452,691.66 L798.452,692.492 Q798.452,695.105 799.413,696.546 Q800.374,697.988 802.178,697.988 Q803.948,697.988 804.897,696.599 Q805.846,695.21 805.858,692.55 z" fill="#000000"/>
    <path d="M374.942,52.26 L369.094,52.26 L369.094,68.092 L367.653,68.092 L367.653,52.26 L361.817,52.26 L361.817,51.03 L374.942,51.03 z" fill="#000000"/>
    <path d="M378.938,68.092 L377.532,68.092 L377.532,55.412 L378.938,55.412 z M377.286,51.744 Q377.286,51.346 377.543,51.071 Q377.801,50.795 378.246,50.795 Q378.692,50.795 378.955,51.071 Q379.219,51.346 379.219,51.744 Q379.219,52.143 378.955,52.412 Q378.692,52.682 378.246,52.682 Q377.801,52.682 377.543,52.412 Q377.286,52.143 377.286,51.744 z" fill="#000000"/>
    <path d="M382.407,67.248 Q382.407,66.838 382.67,66.551 Q382.934,66.264 383.403,66.264 Q383.871,66.264 384.141,66.551 Q384.411,66.838 384.411,67.248 Q384.411,67.658 384.141,67.922 Q383.871,68.186 383.403,68.186 Q382.934,68.186 382.67,67.922 Q382.407,67.658 382.407,67.248 z M382.43,56.432 Q382.43,56.022 382.694,55.735 Q382.957,55.448 383.426,55.448 Q383.895,55.448 384.164,55.735 Q384.434,56.022 384.434,56.432 Q384.434,56.842 384.164,57.106 Q383.895,57.369 383.426,57.369 Q382.957,57.369 382.694,57.106 Q382.43,56.842 382.43,56.432 z" fill="#000000"/>
    <path d="M402.012,62.596 L404.672,62.596 L404.672,63.78 L402.012,63.78 L402.012,68.092 L400.606,68.092 L400.606,63.78 L392.579,63.78 L392.579,62.983 L400.477,51.03 L402.012,51.03 z M394.301,62.596 L400.606,62.596 L400.606,52.846 L399.985,53.924 z" fill="#000000"/>
    <path d="M414.516,64.869 Q414.516,63.826 413.678,63.194 Q412.84,62.561 411.153,62.203 Q409.465,61.846 408.534,61.383 Q407.602,60.92 407.151,60.252 Q406.7,59.584 406.7,58.635 Q406.7,57.135 407.954,56.156 Q409.207,55.178 411.164,55.178 Q413.286,55.178 414.569,56.227 Q415.852,57.276 415.852,58.963 L414.446,58.963 Q414.446,57.85 413.514,57.112 Q412.582,56.373 411.164,56.373 Q409.782,56.373 408.944,56.989 Q408.106,57.604 408.106,58.588 Q408.106,59.537 408.803,60.059 Q409.5,60.58 411.346,61.014 Q413.192,61.448 414.112,61.94 Q415.032,62.432 415.477,63.123 Q415.922,63.815 415.922,64.799 Q415.922,66.405 414.627,67.365 Q413.332,68.326 411.246,68.326 Q409.032,68.326 407.655,67.254 Q406.278,66.182 406.278,64.541 L407.684,64.541 Q407.766,65.772 408.721,66.457 Q409.676,67.143 411.246,67.143 Q412.711,67.143 413.614,66.498 Q414.516,65.854 414.516,64.869 z" fill="#000000"/>
    <path d="M423.41,52.905 Q423.41,55.311 422.527,56.557 Q421.644,57.803 419.925,57.803 Q418.238,57.803 417.339,56.581 Q416.441,55.358 416.417,53.022 L416.417,50.983 Q416.417,48.585 417.308,47.35 Q418.199,46.116 419.91,46.116 Q421.597,46.116 422.488,47.307 Q423.378,48.499 423.41,50.819 z M422.472,50.866 Q422.472,48.913 421.835,47.913 Q421.199,46.913 419.91,46.913 Q418.644,46.913 418.003,47.889 Q417.363,48.866 417.347,50.772 L417.347,53.007 Q417.347,54.952 418.007,55.983 Q418.667,57.014 419.925,57.014 Q421.175,57.014 421.82,56.007 Q422.464,54.999 422.472,53.053 z" fill="#000000"/>
    <path d="M564.928,62.772 Q564.635,65.467 563,66.897 Q561.365,68.326 558.647,68.326 Q556.748,68.326 555.289,67.377 Q553.83,66.428 553.033,64.688 Q552.237,62.948 552.225,60.709 L552.225,58.494 Q552.225,56.221 553.022,54.463 Q553.819,52.705 555.313,51.75 Q556.807,50.795 558.752,50.795 Q561.494,50.795 563.082,52.278 Q564.67,53.76 564.928,56.373 L563.475,56.373 Q562.936,52.026 558.752,52.026 Q556.432,52.026 555.055,53.76 Q553.678,55.494 553.678,58.553 L553.678,60.639 Q553.678,63.592 555.02,65.35 Q556.362,67.108 558.647,67.108 Q560.908,67.108 562.057,66.024 Q563.205,64.94 563.475,62.772 z" fill="#000000"/>
    <path d="M567.33,61.565 Q567.33,59.737 568.039,58.272 Q568.748,56.807 570.043,55.992 Q571.338,55.178 572.979,55.178 Q575.51,55.178 577.08,56.953 Q578.651,58.729 578.651,61.658 L578.651,61.951 Q578.651,63.791 577.942,65.262 Q577.233,66.733 575.944,67.53 Q574.654,68.326 573.002,68.326 Q570.483,68.326 568.906,66.551 Q567.33,64.776 567.33,61.846 z M568.737,61.951 Q568.737,64.225 569.914,65.684 Q571.092,67.143 573.002,67.143 Q574.901,67.143 576.078,65.684 Q577.256,64.225 577.256,61.834 L577.256,61.565 Q577.256,60.112 576.717,58.905 Q576.178,57.698 575.205,57.035 Q574.233,56.373 572.979,56.373 Q571.104,56.373 569.92,57.844 Q568.737,59.315 568.737,61.694 z" fill="#000000"/>
    <path d="M581.205,67.248 Q581.205,66.838 581.469,66.551 Q581.733,66.264 582.201,66.264 Q582.67,66.264 582.94,66.551 Q583.209,66.838 583.209,67.248 Q583.209,67.658 582.94,67.922 Q582.67,68.186 582.201,68.186 Q581.733,68.186 581.469,67.922 Q581.205,67.658 581.205,67.248 z M581.229,56.432 Q581.229,56.022 581.492,55.735 Q581.756,55.448 582.225,55.448 Q582.694,55.448 582.963,55.735 Q583.233,56.022 583.233,56.432 Q583.233,56.842 582.963,57.106 Q582.694,57.369 582.225,57.369 Q581.756,57.369 581.492,57.106 Q581.229,56.842 581.229,56.432 z" fill="#000000"/>
    <path d="M600.811,62.596 L603.471,62.596 L603.471,63.78 L600.811,63.78 L600.811,68.092 L599.404,68.092 L599.404,63.78 L591.377,63.78 L591.377,62.983 L599.276,51.03 L600.811,51.03 z M593.1,62.596 L599.404,62.596 L599.404,52.846 L598.783,53.924 z" fill="#000000"/>
    <path d="M613.315,64.869 Q613.315,63.826 612.477,63.194 Q611.639,62.561 609.951,62.203 Q608.264,61.846 607.332,61.383 Q606.401,60.92 605.949,60.252 Q605.498,59.584 605.498,58.635 Q605.498,57.135 606.752,56.156 Q608.006,55.178 609.963,55.178 Q612.084,55.178 613.367,56.227 Q614.651,57.276 614.651,58.963 L613.244,58.963 Q613.244,57.85 612.313,57.112 Q611.381,56.373 609.963,56.373 Q608.58,56.373 607.742,56.989 Q606.904,57.604 606.904,58.588 Q606.904,59.537 607.602,60.059 Q608.299,60.58 610.145,61.014 Q611.99,61.448 612.91,61.94 Q613.83,62.432 614.276,63.123 Q614.721,63.815 614.721,64.799 Q614.721,66.405 613.426,67.365 Q612.131,68.326 610.045,68.326 Q607.83,68.326 606.453,67.254 Q605.076,66.182 605.076,64.541 L606.483,64.541 Q606.565,65.772 607.52,66.457 Q608.475,67.143 610.045,67.143 Q611.51,67.143 612.412,66.498 Q613.315,65.854 613.315,64.869 z" fill="#000000"/>
    <path d="M621.55,52.905 Q621.55,55.311 620.667,56.557 Q619.784,57.803 618.066,57.803 Q616.378,57.803 615.48,56.581 Q614.581,55.358 614.558,53.022 L614.558,50.983 Q614.558,48.585 615.448,47.35 Q616.339,46.116 618.05,46.116 Q619.737,46.116 620.628,47.307 Q621.519,48.499 621.55,50.819 z M620.612,50.866 Q620.612,48.913 619.976,47.913 Q619.339,46.913 618.05,46.913 Q616.784,46.913 616.144,47.889 Q615.503,48.866 615.487,50.772 L615.487,53.007 Q615.487,54.952 616.148,55.983 Q616.808,57.014 618.066,57.014 Q619.316,57.014 619.96,56.007 Q620.605,54.999 620.612,53.053 z" fill="#000000"/>
    <path d="M765.276,64.494 Q764.984,67.189 763.349,68.619 Q761.714,70.049 758.995,70.049 Q757.097,70.049 755.638,69.1 Q754.179,68.15 753.382,66.41 Q752.585,64.67 752.573,62.432 L752.573,60.217 Q752.573,57.943 753.37,56.186 Q754.167,54.428 755.661,53.473 Q757.155,52.518 759.101,52.518 Q761.843,52.518 763.431,54 Q765.019,55.482 765.276,58.096 L763.823,58.096 Q763.284,53.748 759.101,53.748 Q756.78,53.748 755.403,55.482 Q754.026,57.217 754.026,60.275 L754.026,62.361 Q754.026,65.314 755.368,67.072 Q756.71,68.83 758.995,68.83 Q761.257,68.83 762.405,67.746 Q763.554,66.662 763.823,64.494 z" fill="#000000"/>
    <path d="M767.679,63.287 Q767.679,61.459 768.388,59.994 Q769.097,58.529 770.392,57.715 Q771.687,56.9 773.327,56.9 Q775.859,56.9 777.429,58.676 Q778.999,60.451 778.999,63.381 L778.999,63.674 Q778.999,65.514 778.29,66.984 Q777.581,68.455 776.292,69.252 Q775.003,70.049 773.351,70.049 Q770.831,70.049 769.255,68.273 Q767.679,66.498 767.679,63.568 z M769.085,63.674 Q769.085,65.947 770.263,67.406 Q771.441,68.865 773.351,68.865 Q775.249,68.865 776.427,67.406 Q777.605,65.947 777.605,63.557 L777.605,63.287 Q777.605,61.834 777.066,60.627 Q776.526,59.42 775.554,58.758 Q774.581,58.096 773.327,58.096 Q771.452,58.096 770.269,59.566 Q769.085,61.037 769.085,63.416 z" fill="#000000"/>
    <path d="M781.554,68.971 Q781.554,68.561 781.818,68.273 Q782.081,67.986 782.55,67.986 Q783.019,67.986 783.288,68.273 Q783.558,68.561 783.558,68.971 Q783.558,69.381 783.288,69.645 Q783.019,69.908 782.55,69.908 Q782.081,69.908 781.818,69.645 Q781.554,69.381 781.554,68.971 z M781.577,58.154 Q781.577,57.744 781.841,57.457 Q782.105,57.17 782.573,57.17 Q783.042,57.17 783.312,57.457 Q783.581,57.744 783.581,58.154 Q783.581,58.564 783.312,58.828 Q783.042,59.092 782.573,59.092 Q782.105,59.092 781.841,58.828 Q781.577,58.564 781.577,58.154 z" fill="#000000"/>
    <path d="M801.159,64.318 L803.819,64.318 L803.819,65.502 L801.159,65.502 L801.159,69.814 L799.753,69.814 L799.753,65.502 L791.726,65.502 L791.726,64.705 L799.624,52.752 L801.159,52.752 z M793.448,64.318 L799.753,64.318 L799.753,54.568 L799.132,55.647 z" fill="#000000"/>
    <path d="M813.663,66.592 Q813.663,65.549 812.825,64.916 Q811.987,64.283 810.3,63.926 Q808.612,63.568 807.681,63.106 Q806.749,62.643 806.298,61.975 Q805.847,61.307 805.847,60.357 Q805.847,58.857 807.101,57.879 Q808.355,56.9 810.312,56.9 Q812.433,56.9 813.716,57.949 Q814.999,58.998 814.999,60.686 L813.593,60.686 Q813.593,59.572 812.661,58.834 Q811.73,58.096 810.312,58.096 Q808.929,58.096 808.091,58.711 Q807.253,59.326 807.253,60.311 Q807.253,61.26 807.95,61.781 Q808.648,62.303 810.493,62.736 Q812.339,63.17 813.259,63.662 Q814.179,64.154 814.624,64.846 Q815.069,65.537 815.069,66.522 Q815.069,68.127 813.775,69.088 Q812.48,70.049 810.394,70.049 Q808.179,70.049 806.802,68.977 Q805.425,67.904 805.425,66.264 L806.831,66.264 Q806.913,67.494 807.868,68.18 Q808.823,68.865 810.394,68.865 Q811.859,68.865 812.761,68.221 Q813.663,67.576 813.663,66.592 z" fill="#000000"/>
    <path d="M821.899,54.627 Q821.899,57.034 821.016,58.28 Q820.133,59.526 818.414,59.526 Q816.727,59.526 815.828,58.303 Q814.93,57.081 814.906,54.745 L814.906,52.706 Q814.906,50.307 815.797,49.073 Q816.688,47.838 818.399,47.838 Q820.086,47.838 820.977,49.03 Q821.867,50.221 821.899,52.541 z M820.961,52.588 Q820.961,50.635 820.324,49.635 Q819.688,48.635 818.399,48.635 Q817.133,48.635 816.492,49.612 Q815.852,50.588 815.836,52.495 L815.836,54.729 Q815.836,56.674 816.496,57.706 Q817.156,58.737 818.414,58.737 Q819.664,58.737 820.309,57.729 Q820.953,56.721 820.961,54.776 z" fill="#000000"/>
    <g>
      <path d="M96.087,649.827 L152.288,649.827" fill-opacity="0" stroke="#000000" stroke-width="3"/>
      <path d="M152.288,654.027 L163.488,649.827 L152.288,645.627 z" fill="#000000" fill-opacity="1" stroke="#000000" stroke-width="3" stroke-opacity="1"/>
    </g>
    <path d="M185.785,656.62 L184.343,656.62 L174.535,642.019 L174.535,656.62 L173.082,656.62 L173.082,639.558 L174.535,639.558 L184.355,654.171 L184.355,639.558 L185.785,639.558 z" fill="#000000"/>
    <path d="M189.605,649.73 Q189.605,647.175 190.261,644.767 Q190.918,642.359 192.183,640.361 Q193.449,638.363 194.902,637.495 L195.242,638.445 Q194.468,638.995 193.707,640.05 Q192.945,641.105 192.347,642.558 Q191.75,644.011 191.381,645.822 Q191.011,647.632 191.011,649.929 Q191.011,652.378 191.568,654.64 Q192.125,656.902 193.097,658.63 Q194.07,660.359 195.242,661.226 L194.902,662.128 Q193.414,661.238 192.148,659.251 Q190.883,657.265 190.244,654.88 Q189.605,652.495 189.605,649.73 z" fill="#000000"/>
    <path d="M196.871,653.14 Q196.871,650.796 199.508,650.117 Q198.347,649.706 197.72,648.968 Q197.093,648.23 197.093,647.316 Q197.093,645.617 198.418,644.667 Q199.742,643.718 202.062,643.718 Q204.23,643.718 205.677,644.749 Q207.125,645.781 207.125,647.363 L205.73,647.363 Q205.73,646.296 204.67,645.599 Q203.609,644.902 202.062,644.902 Q200.422,644.902 199.467,645.534 Q198.511,646.167 198.511,647.292 Q198.511,649.566 202.109,649.566 L204.183,649.566 L204.183,650.738 L201.933,650.738 Q200.152,650.749 199.22,651.324 Q198.289,651.898 198.289,653.163 Q198.289,654.3 199.314,654.986 Q200.34,655.671 202.062,655.671 Q203.738,655.671 204.834,654.909 Q205.929,654.148 205.929,652.988 L207.336,652.988 Q207.336,654.745 205.853,655.8 Q204.371,656.855 202.062,656.855 Q199.73,656.855 198.301,655.841 Q196.871,654.827 196.871,653.14 z" fill="#000000"/>
    <path d="M214.683,649.906 Q214.683,652.484 214.045,654.868 Q213.406,657.253 212.152,659.234 Q210.898,661.214 209.386,662.128 L209.047,661.226 Q210.195,660.406 211.174,658.683 Q212.152,656.96 212.715,654.669 Q213.277,652.378 213.277,649.695 Q213.277,647.269 212.715,645.013 Q212.152,642.757 211.162,640.982 Q210.172,639.206 209.047,638.398 L209.386,637.495 Q210.863,638.398 212.117,640.378 Q213.371,642.359 214.027,644.773 Q214.683,647.187 214.683,649.906 z" fill="#000000"/>
    <g>
      <path d="M298.26,650.033 L354.461,650.033" fill-opacity="0" stroke="#000000" stroke-width="3"/>
      <path d="M354.461,654.233 L365.661,650.033 L354.461,645.833 z" fill="#000000" fill-opacity="1" stroke="#000000" stroke-width="3" stroke-opacity="1"/>
    </g>
    <path d="M387.958,656.827 L386.517,656.827 L376.708,642.225 L376.708,656.827 L375.255,656.827 L375.255,639.764 L376.708,639.764 L386.529,654.377 L386.529,639.764 L387.958,639.764 z" fill="#000000"/>
    <path d="M391.779,649.936 Q391.779,647.381 392.435,644.973 Q393.091,642.565 394.357,640.567 Q395.622,638.569 397.075,637.702 L397.415,638.651 Q396.642,639.202 395.88,640.256 Q395.118,641.311 394.521,642.764 Q393.923,644.217 393.554,646.028 Q393.185,647.838 393.185,650.135 Q393.185,652.584 393.741,654.846 Q394.298,657.108 395.271,658.836 Q396.243,660.565 397.415,661.432 L397.075,662.334 Q395.587,661.444 394.322,659.457 Q393.056,657.471 392.417,655.086 Q391.779,652.702 391.779,649.936 z" fill="#000000"/>
    <path d="M399.044,653.346 Q399.044,651.002 401.681,650.323 Q400.521,649.912 399.894,649.174 Q399.267,648.436 399.267,647.522 Q399.267,645.823 400.591,644.873 Q401.915,643.924 404.236,643.924 Q406.404,643.924 407.851,644.955 Q409.298,645.987 409.298,647.569 L407.904,647.569 Q407.904,646.502 406.843,645.805 Q405.782,645.108 404.236,645.108 Q402.595,645.108 401.64,645.741 Q400.685,646.373 400.685,647.498 Q400.685,649.772 404.282,649.772 L406.357,649.772 L406.357,650.944 L404.107,650.944 Q402.325,650.955 401.394,651.53 Q400.462,652.104 400.462,653.37 Q400.462,654.506 401.488,655.192 Q402.513,655.877 404.236,655.877 Q405.911,655.877 407.007,655.116 Q408.103,654.354 408.103,653.194 L409.509,653.194 Q409.509,654.952 408.027,656.006 Q406.544,657.061 404.236,657.061 Q401.904,657.061 400.474,656.047 Q399.044,655.034 399.044,653.346 z" fill="#000000"/>
    <path d="M416.857,650.112 Q416.857,652.69 416.218,655.075 Q415.579,657.459 414.325,659.44 Q413.072,661.42 411.56,662.334 L411.22,661.432 Q412.368,660.612 413.347,658.889 Q414.325,657.166 414.888,654.875 Q415.45,652.584 415.45,649.901 Q415.45,647.475 414.888,645.219 Q414.325,642.963 413.335,641.188 Q412.345,639.412 411.22,638.604 L411.56,637.702 Q413.036,638.604 414.29,640.584 Q415.544,642.565 416.2,644.979 Q416.857,647.393 416.857,650.112 z" fill="#000000"/>
    <g>
      <path d="M499.787,650.239 L555.988,650.239" fill-opacity="0" stroke="#000000" stroke-width="3"/>
      <path d="M555.988,654.439 L567.188,650.239 L555.988,646.039 z" fill="#000000" fill-opacity="1" stroke="#000000" stroke-width="3" stroke-opacity="1"/>
    </g>
    <path d="M589.485,657.033 L588.044,657.033 L578.235,642.431 L578.235,657.033 L576.782,657.033 L576.782,639.97 L578.235,639.97 L588.056,654.583 L588.056,639.97 L589.485,639.97 z" fill="#000000"/>
    <path d="M593.306,650.142 Q593.306,647.587 593.962,645.179 Q594.618,642.771 595.884,640.773 Q597.149,638.775 598.603,637.908 L598.942,638.857 Q598.169,639.408 597.407,640.462 Q596.646,641.517 596.048,642.97 Q595.45,644.423 595.081,646.234 Q594.712,648.044 594.712,650.341 Q594.712,652.79 595.269,655.052 Q595.825,657.314 596.798,659.042 Q597.771,660.771 598.942,661.638 L598.603,662.54 Q597.114,661.65 595.849,659.664 Q594.583,657.677 593.944,655.292 Q593.306,652.908 593.306,650.142 z" fill="#000000"/>
    <path d="M600.571,653.552 Q600.571,651.208 603.208,650.529 Q602.048,650.119 601.421,649.38 Q600.794,648.642 600.794,647.728 Q600.794,646.029 602.118,645.08 Q603.442,644.13 605.763,644.13 Q607.931,644.13 609.378,645.162 Q610.825,646.193 610.825,647.775 L609.431,647.775 Q609.431,646.708 608.37,646.011 Q607.31,645.314 605.763,645.314 Q604.122,645.314 603.167,645.947 Q602.212,646.58 602.212,647.705 Q602.212,649.978 605.81,649.978 L607.884,649.978 L607.884,651.15 L605.634,651.15 Q603.853,651.162 602.921,651.736 Q601.989,652.31 601.989,653.576 Q601.989,654.712 603.015,655.398 Q604.04,656.083 605.763,656.083 Q607.439,656.083 608.534,655.322 Q609.63,654.56 609.63,653.4 L611.036,653.4 Q611.036,655.158 609.554,656.212 Q608.071,657.267 605.763,657.267 Q603.431,657.267 602.001,656.253 Q600.571,655.24 600.571,653.552 z" fill="#000000"/>
    <path d="M618.384,650.318 Q618.384,652.896 617.745,655.281 Q617.107,657.665 615.853,659.646 Q614.599,661.626 613.087,662.54 L612.747,661.638 Q613.896,660.818 614.874,659.095 Q615.853,657.372 616.415,655.081 Q616.978,652.79 616.978,650.107 Q616.978,647.681 616.415,645.425 Q615.853,643.169 614.862,641.394 Q613.872,639.619 612.747,638.81 L613.087,637.908 Q614.564,638.81 615.817,640.79 Q617.071,642.771 617.728,645.185 Q618.384,647.599 618.384,650.318 z" fill="#000000"/>
    <g>
      <path d="M702.523,650.239 L758.724,650.239" fill-opacity="0" stroke="#000000" stroke-width="3"/>
      <path d="M758.724,654.439 L769.924,650.239 L758.724,646.039 z" fill="#000000" fill-opacity="1" stroke="#000000" stroke-width="3" stroke-opacity="1"/>
    </g>
    <path d="M792.221,657.033 L790.78,657.033 L780.971,642.431 L780.971,657.033 L779.518,657.033 L779.518,639.97 L780.971,639.97 L790.792,654.583 L790.792,639.97 L792.221,639.97 z" fill="#000000"/>
    <path d="M796.042,650.142 Q796.042,647.587 796.698,645.179 Q797.354,642.771 798.62,640.773 Q799.885,638.775 801.339,637.908 L801.678,638.857 Q800.905,639.408 800.143,640.462 Q799.382,641.517 798.784,642.97 Q798.186,644.423 797.817,646.234 Q797.448,648.044 797.448,650.341 Q797.448,652.79 798.005,655.052 Q798.561,657.314 799.534,659.042 Q800.507,660.771 801.678,661.638 L801.339,662.54 Q799.85,661.65 798.585,659.664 Q797.319,657.677 796.68,655.292 Q796.042,652.908 796.042,650.142 z" fill="#000000"/>
    <path d="M803.307,653.552 Q803.307,651.208 805.944,650.529 Q804.784,650.119 804.157,649.38 Q803.53,648.642 803.53,647.728 Q803.53,646.029 804.854,645.08 Q806.178,644.13 808.499,644.13 Q810.667,644.13 812.114,645.162 Q813.561,646.193 813.561,647.775 L812.167,647.775 Q812.167,646.708 811.106,646.011 Q810.046,645.314 808.499,645.314 Q806.858,645.314 805.903,645.947 Q804.948,646.58 804.948,647.705 Q804.948,649.978 808.546,649.978 L810.62,649.978 L810.62,651.15 L808.37,651.15 Q806.589,651.162 805.657,651.736 Q804.725,652.31 804.725,653.576 Q804.725,654.712 805.751,655.398 Q806.776,656.083 808.499,656.083 Q810.174,656.083 811.27,655.322 Q812.366,654.56 812.366,653.4 L813.772,653.4 Q813.772,655.158 812.29,656.212 Q810.807,657.267 808.499,657.267 Q806.167,657.267 804.737,656.253 Q803.307,655.24 803.307,653.552 z" fill="#000000"/>
    <path d="M821.12,650.318 Q821.12,652.896 820.481,655.281 Q819.842,657.665 818.589,659.646 Q817.335,661.626 815.823,662.54 L815.483,661.638 Q816.632,660.818 817.61,659.095 Q818.589,657.372 819.151,655.081 Q819.714,652.79 819.714,650.107 Q819.714,647.681 819.151,645.425 Q818.589,643.169 817.598,641.394 Q816.608,639.619 815.483,638.81 L815.823,637.908 Q817.299,638.81 818.553,640.79 Q819.807,642.771 820.464,645.185 Q821.12,647.599 821.12,650.318 z" fill="#000000"/>
  </g>
</svg>
