<?xml version="1.0" encoding="UTF-8"?>
<!DOCTYPE svg PUBLIC "-//W3C//DTD SVG 1.1//EN" "http://www.w3.org/Graphics/SVG/1.1/DTD/svg11.dtd">
<svg version="1.1" xmlns="http://www.w3.org/2000/svg" xmlns:xlink="http://www.w3.org/1999/xlink" x="0" y="0" width="332.853" height="252.525" viewBox="0, 0, 332.853, 252.525">
  <g id="Layer_1" transform="translate(-18.449, -23.005)">
    <path d="M18.449,23.005 L351.302,23.005 L351.302,275.53 L18.449,275.53 L18.449,23.005 z" fill="#F7F7F2"/>
    <g>
      <path d="M73.123,28.747 L103.123,28.747 L103.123,58.747 L73.123,58.747 L73.123,28.747 z" fill="#F3B3A6"/>
      <path d="M73.123,28.747 L103.123,28.747 L103.123,58.747 L73.123,58.747 L73.123,28.747 z" fill-opacity="0" stroke="#000000" stroke-width="2"/>
    </g>
    <g>
      <path d="M103.123,58.747 L133.123,58.747 L133.123,88.747 L103.123,88.747 L103.123,58.747 z" fill="#F3B3A6"/>
      <path d="M103.123,58.747 L133.123,58.747 L133.123,88.747 L103.123,88.747 L103.123,58.747 z" fill-opacity="0" stroke="#000000" stroke-width="2"/>
    </g>
    <g>
      <path d="M133.123,28.747 L163.123,28.747 L163.123,58.747 L133.123,58.747 L133.123,28.747 z" fill="#F3B3A6"/>
      <path d="M133.123,28.747 L163.123,28.747 L163.123,58.747 L133.123,58.747 L133.123,28.747 z" fill-opacity="0" stroke="#000000" stroke-width="2"/>
    </g>
    <g>
      <path d="M163.123,58.747 L193.123,58.747 L193.123,88.747 L163.123,88.747 L163.123,58.747 z" fill="#F3B3A6"/>
      <path d="M163.123,58.747 L193.123,58.747 L193.123,88.747 L163.123,88.747 L163.123,58.747 z" fill-opacity="0" stroke="#000000" stroke-width="2"/>
    </g>
    <g>
      <path d="M193.123,28.747 L223.123,28.747 L223.123,58.747 L193.123,58.747 L193.123,28.747 z" fill="#F3B3A6"/>
      <path d="M193.123,28.747 L223.123,28.747 L223.123,58.747 L193.123,58.747 L193.123,28.747 z" fill-opacity="0" stroke="#000000" stroke-width="2"/>
    </g>
    <g>
      <path d="M223.123,58.747 L253.123,58.747 L253.123,88.747 L223.123,88.747 L223.123,58.747 z" fill="#F3B3A6"/>
      <path d="M223.123,58.747 L253.123,58.747 L253.123,88.747 L223.123,88.747 L223.123,58.747 z" fill-opacity="0" stroke="#000000" stroke-width="2"/>
    </g>
    <g>
      <path d="M253.123,28.747 L283.123,28.747 L283.123,58.747 L253.123,58.747 L253.123,28.747 z" fill="#F3B3A6"/>
      <path d="M253.123,28.747 L283.123,28.747 L283.123,58.747 L253.123,58.747 L253.123,28.747 z" fill-opacity="0" stroke="#000000" stroke-width="2"/>
    </g>
    <g>
      <path d="M283.123,58.747 L313.123,58.747 L313.123,88.747 L283.123,88.747 L283.123,58.747 z" fill="#F3B3A6"/>
      <path d="M283.123,58.747 L313.123,58.747 L313.123,88.747 L283.123,88.747 L283.123,58.747 z" fill-opacity="0" stroke="#000000" stroke-width="2"/>
    </g>
    <g>
      <path d="M313.123,28.747 L343.123,28.747 L343.123,58.747 L313.123,58.747 L313.123,28.747 z" fill="#F3B3A6"/>
      <path d="M313.123,28.747 L343.123,28.747 L343.123,58.747 L313.123,58.747 L313.123,28.747 z" fill-opacity="0" stroke="#000000" stroke-width="2"/>
    </g>
    <g>
      <path d="M73.123,88.747 L103.123,88.747 L103.123,118.747 L73.123,118.747 L73.123,88.747 z" fill="#F3B3A6"/>
      <path d="M73.123,88.747 L103.123,88.747 L103.123,118.747 L73.123,118.747 L73.123,88.747 z" fill-opacity="0" stroke="#000000" stroke-width="2"/>
    </g>
    <g>
      <path d="M103.123,118.747 L133.123,118.747 L133.123,148.747 L103.123,148.747 L103.123,118.747 z" fill="#F3B3A6"/>
      <path d="M103.123,118.747 L133.123,118.747 L133.123,148.747 L103.123,148.747 L103.123,118.747 z" fill-opacity="0" stroke="#000000" stroke-width="2"/>
    </g>
    <g>
      <path d="M133.123,88.747 L163.123,88.747 L163.123,118.747 L133.123,118.747 L133.123,88.747 z" fill="#F3B3A6"/>
      <path d="M133.123,88.747 L163.123,88.747 L163.123,118.747 L133.123,118.747 L133.123,88.747 z" fill-opacity="0" stroke="#000000" stroke-width="2"/>
    </g>
    <g>
      <path d="M163.123,118.747 L193.123,118.747 L193.123,148.747 L163.123,148.747 L163.123,118.747 z" fill="#F3B3A6"/>
      <path d="M163.123,118.747 L193.123,118.747 L193.123,148.747 L163.123,148.747 L163.123,118.747 z" fill-opacity="0" stroke="#000000" stroke-width="2"/>
    </g>
    <g>
      <path d="M193.123,88.747 L223.123,88.747 L223.123,118.747 L193.123,118.747 L193.123,88.747 z" fill="#F3B3A6"/>
      <path d="M193.123,88.747 L223.123,88.747 L223.123,118.747 L193.123,118.747 L193.123,88.747 z" fill-opacity="0" stroke="#000000" stroke-width="2"/>
    </g>
    <g>
      <path d="M223.123,118.747 L253.123,118.747 L253.123,148.747 L223.123,148.747 L223.123,118.747 z" fill="#F3B3A6"/>
      <path d="M223.123,118.747 L253.123,118.747 L253.123,148.747 L223.123,148.747 L223.123,118.747 z" fill-opacity="0" stroke="#000000" stroke-width="2"/>
    </g>
    <g>
      <path d="M253.123,88.747 L283.123,88.747 L283.123,118.747 L253.123,118.747 L253.123,88.747 z" fill="#F3B3A6"/>
      <path d="M253.123,88.747 L283.123,88.747 L283.123,118.747 L253.123,118.747 L253.123,88.747 z" fill-opacity="0" stroke="#000000" stroke-width="2"/>
    </g>
    <g>
      <path d="M283.123,118.747 L313.123,118.747 L313.123,148.747 L283.123,148.747 L283.123,118.747 z" fill="#F3B3A6"/>
      <path d="M283.123,118.747 L313.123,118.747 L313.123,148.747 L283.123,148.747 L283.123,118.747 z" fill-opacity="0" stroke="#000000" stroke-width="2"/>
    </g>
    <g>
      <path d="M313.123,88.747 L343.123,88.747 L343.123,118.747 L313.123,118.747 L313.123,88.747 z" fill="#F3B3A6"/>
      <path d="M313.123,88.747 L343.123,88.747 L343.123,118.747 L313.123,118.747 L313.123,88.747 z" fill-opacity="0" stroke="#000000" stroke-width="2"/>
    </g>
    <g>
      <path d="M73.123,148.747 L103.123,148.747 L103.123,178.747 L73.123,178.747 L73.123,148.747 z" fill="#F3B3A6"/>
      <path d="M73.123,148.747 L103.123,148.747 L103.123,178.747 L73.123,178.747 L73.123,148.747 z" fill-opacity="0" stroke="#000000" stroke-width="2"/>
    </g>
    <g>
      <path d="M103.123,178.747 L133.123,178.747 L133.123,208.747 L103.123,208.747 L103.123,178.747 z" fill="#F3B3A6"/>
      <path d="M103.123,178.747 L133.123,178.747 L133.123,208.747 L103.123,208.747 L103.123,178.747 z" fill-opacity="0" stroke="#000000" stroke-width="2"/>
    </g>
    <g>
      <path d="M133.123,148.747 L163.123,148.747 L163.123,178.747 L133.123,178.747 L133.123,148.747 z" fill="#F3B3A6"/>
      <path d="M133.123,148.747 L163.123,148.747 L163.123,178.747 L133.123,178.747 L133.123,148.747 z" fill-opacity="0" stroke="#000000" stroke-width="2"/>
    </g>
    <g>
      <path d="M163.123,178.747 L193.123,178.747 L193.123,208.747 L163.123,208.747 L163.123,178.747 z" fill="#F3B3A6"/>
      <path d="M163.123,178.747 L193.123,178.747 L193.123,208.747 L163.123,208.747 L163.123,178.747 z" fill-opacity="0" stroke="#000000" stroke-width="2"/>
    </g>
    <g>
      <path d="M193.123,148.747 L223.123,148.747 L223.123,178.747 L193.123,178.747 L193.123,148.747 z" fill="#F3B3A6"/>
      <path d="M193.123,148.747 L223.123,148.747 L223.123,178.747 L193.123,178.747 L193.123,148.747 z" fill-opacity="0" stroke="#000000" stroke-width="2"/>
    </g>
    <g>
      <path d="M223.123,178.747 L253.123,178.747 L253.123,208.747 L223.123,208.747 L223.123,178.747 z" fill="#F3B3A6"/>
      <path d="M223.123,178.747 L253.123,178.747 L253.123,208.747 L223.123,208.747 L223.123,178.747 z" fill-opacity="0" stroke="#000000" stroke-width="2"/>
    </g>
    <g>
      <path d="M253.123,148.747 L283.123,148.747 L283.123,178.747 L253.123,178.747 L253.123,148.747 z" fill="#F3B3A6"/>
      <path d="M253.123,148.747 L283.123,148.747 L283.123,178.747 L253.123,178.747 L253.123,148.747 z" fill-opacity="0" stroke="#000000" stroke-width="2"/>
    </g>
    <g>
      <path d="M283.123,178.747 L313.123,178.747 L313.123,208.747 L283.123,208.747 L283.123,178.747 z" fill="#F3B3A6"/>
      <path d="M283.123,178.747 L313.123,178.747 L313.123,208.747 L283.123,208.747 L283.123,178.747 z" fill-opacity="0" stroke="#000000" stroke-width="2"/>
    </g>
    <g>
      <path d="M313.123,148.747 L343.123,148.747 L343.123,178.747 L313.123,178.747 L313.123,148.747 z" fill="#F3B3A6"/>
      <path d="M313.123,148.747 L343.123,148.747 L343.123,178.747 L313.123,178.747 L313.123,148.747 z" fill-opacity="0" stroke="#000000" stroke-width="2"/>
    </g>
    <g>
      <path d="M73.123,208.747 L103.123,208.747 L103.123,238.747 L73.123,238.747 L73.123,208.747 z" fill="#F3B3A6"/>
      <path d="M73.123,208.747 L103.123,208.747 L103.123,238.747 L73.123,238.747 L73.123,208.747 z" fill-opacity="0" stroke="#000000" stroke-width="2"/>
    </g>
    <g>
      <path d="M103.123,238.747 L133.123,238.747 L133.123,268.747 L103.123,268.747 L103.123,238.747 z" fill="#F3B3A6"/>
      <path d="M103.123,238.747 L133.123,238.747 L133.123,268.747 L103.123,268.747 L103.123,238.747 z" fill-opacity="0" stroke="#000000" stroke-width="2"/>
    </g>
    <g>
      <path d="M133.123,208.747 L163.123,208.747 L163.123,238.747 L133.123,238.747 L133.123,208.747 z" fill="#F3B3A6"/>
      <path d="M133.123,208.747 L163.123,208.747 L163.123,238.747 L133.123,238.747 L133.123,208.747 z" fill-opacity="0" stroke="#000000" stroke-width="2"/>
    </g>
    <g>
      <path d="M163.123,238.747 L193.123,238.747 L193.123,268.747 L163.123,268.747 L163.123,238.747 z" fill="#F3B3A6"/>
      <path d="M163.123,238.747 L193.123,238.747 L193.123,268.747 L163.123,268.747 L163.123,238.747 z" fill-opacity="0" stroke="#000000" stroke-width="2"/>
    </g>
    <g>
      <path d="M193.123,208.747 L223.123,208.747 L223.123,238.747 L193.123,238.747 L193.123,208.747 z" fill="#F3B3A6"/>
      <path d="M193.123,208.747 L223.123,208.747 L223.123,238.747 L193.123,238.747 L193.123,208.747 z" fill-opacity="0" stroke="#000000" stroke-width="2"/>
    </g>
    <g>
      <path d="M223.123,238.747 L253.123,238.747 L253.123,268.747 L223.123,268.747 L223.123,238.747 z" fill="#F3B3A6"/>
      <path d="M223.123,238.747 L253.123,238.747 L253.123,268.747 L223.123,268.747 L223.123,238.747 z" fill-opacity="0" stroke="#000000" stroke-width="2"/>
    </g>
    <g>
      <path d="M253.123,208.747 L283.123,208.747 L283.123,238.747 L253.123,238.747 L253.123,208.747 z" fill="#F3B3A6"/>
      <path d="M253.123,208.747 L283.123,208.747 L283.123,238.747 L253.123,238.747 L253.123,208.747 z" fill-opacity="0" stroke="#000000" stroke-width="2"/>
    </g>
    <g>
      <path d="M283.123,238.747 L313.123,238.747 L313.123,268.747 L283.123,268.747 L283.123,238.747 z" fill="#F3B3A6"/>
      <path d="M283.123,238.747 L313.123,238.747 L313.123,268.747 L283.123,268.747 L283.123,238.747 z" fill-opacity="0" stroke="#000000" stroke-width="2"/>
    </g>
    <g>
      <path d="M313.123,208.747 L343.123,208.747 L343.123,238.747 L313.123,238.747 L313.123,208.747 z" fill="#F3B3A6"/>
      <path d="M313.123,208.747 L343.123,208.747 L343.123,238.747 L313.123,238.747 L313.123,208.747 z" fill-opacity="0" stroke="#000000" stroke-width="2"/>
    </g>
    <g>
      <path d="M118.258,114.264 C112.318,114.264 107.503,109.449 107.503,103.509 C107.503,97.57 112.318,92.755 118.258,92.755 C124.197,92.755 129.012,97.57 129.012,103.509 C129.012,109.449 124.197,114.264 118.258,114.264 z" fill="#6D21C3"/>
      <path d="M118.258,114.264 C112.318,114.264 107.503,109.449 107.503,103.509 C107.503,97.57 112.318,92.755 118.258,92.755 C124.197,92.755 129.012,97.57 129.012,103.509 C129.012,109.449 124.197,114.264 118.258,114.264 z" fill-opacity="0" stroke="#000000" stroke-width="2"/>
    </g>
    <g>
      <path d="M238.123,174.502 C232.184,174.502 227.369,169.687 227.369,163.747 C227.369,157.808 232.184,152.993 238.123,152.993 C244.063,152.993 248.878,157.808 248.878,163.747 C248.878,169.687 244.063,174.502 238.123,174.502 z" fill="#6D21C3"/>
      <path d="M238.123,174.502 C232.184,174.502 227.369,169.687 227.369,163.747 C227.369,157.808 232.184,152.993 238.123,152.993 C244.063,152.993 248.878,157.808 248.878,163.747 C248.878,169.687 244.063,174.502 238.123,174.502 z" fill-opacity="0" stroke="#000000" stroke-width="2"/>
    </g>
    <g>
      <path d="M268.123,84.502 C262.184,84.502 257.369,79.687 257.369,73.747 C257.369,67.808 262.184,62.993 268.123,62.993 C274.063,62.993 278.878,67.808 278.878,73.747 C278.878,79.687 274.063,84.502 268.123,84.502 z" fill="#6D21C3"/>
      <path d="M268.123,84.502 C262.184,84.502 257.369,79.687 257.369,73.747 C257.369,67.808 262.184,62.993 268.123,62.993 C274.063,62.993 278.878,67.808 278.878,73.747 C278.878,79.687 274.063,84.502 268.123,84.502 z" fill-opacity="0" stroke="#000000" stroke-width="2"/>
    </g>
    <g>
      <path d="M178.123,234.502 C172.184,234.502 167.369,229.687 167.369,223.747 C167.369,217.808 172.184,212.993 178.123,212.993 C184.063,212.993 188.878,217.808 188.878,223.747 C188.878,229.687 184.063,234.502 178.123,234.502 z" fill="#6D21C3"/>
      <path d="M178.123,234.502 C172.184,234.502 167.369,229.687 167.369,223.747 C167.369,217.808 172.184,212.993 178.123,212.993 C184.063,212.993 188.878,217.808 188.878,223.747 C188.878,229.687 184.063,234.502 178.123,234.502 z" fill-opacity="0" stroke="#000000" stroke-width="2"/>
    </g>
    <g>
      <path d="M34.987,144.502 C29.047,144.502 24.232,139.687 24.232,133.747 C24.232,127.808 29.047,122.993 34.987,122.993 C40.926,122.993 45.741,127.808 45.741,133.747 C45.741,139.687 40.926,144.502 34.987,144.502 z" fill="#6D21C3"/>
      <path d="M34.987,144.502 C29.047,144.502 24.232,139.687 24.232,133.747 C24.232,127.808 29.047,122.993 34.987,122.993 C40.926,122.993 45.741,127.808 45.741,133.747 C45.741,139.687 40.926,144.502 34.987,144.502 z" fill-opacity="0" stroke="#000000" stroke-width="2"/>
    </g>
    <g>
      <path d="M51.937,133.383 L68.219,133.383" fill-opacity="0" stroke="#000000" stroke-width="2"/>
      <path d="M68.219,136.983 L77.819,133.383 L68.219,129.783 z" fill="#000000" fill-opacity="1" stroke="#000000" stroke-width="2" stroke-opacity="1"/>
    </g>
  </g>
</svg>
