<?xml version="1.0" encoding="UTF-8"?>
<!DOCTYPE svg PUBLIC "-//W3C//DTD SVG 1.1//EN" "http://www.w3.org/Graphics/SVG/1.1/DTD/svg11.dtd">
<svg version="1.1" xmlns="http://www.w3.org/2000/svg" xmlns:xlink="http://www.w3.org/1999/xlink" x="0" y="0" width="425" height="277" viewBox="0, 0, 425, 277">
  <g id="Background">
    <rect x="0" y="0" width="425" height="277" fill="#F7F7F2"/>
  </g>
  <g id="Layer_1">
    <g>
      <path d="M19.392,234.134 L35.819,226.048 L35.819,63.719 L19.392,71.805 L19.392,234.134 z" fill="#848789"/>
      <path d="M19.392,234.134 L35.819,226.048 L35.819,63.719 L19.392,71.805 L19.392,234.134 z" fill-opacity="0" stroke="#000000" stroke-width="2"/>
    </g>
    <g>
      <path d="M21.086,178.929 L35.819,161.098 L188.82,161.098 L174.224,178.929 L21.086,178.929 z" fill="#F3A712"/>
      <path d="M21.086,178.929 L35.819,161.098 L188.82,161.098 L174.224,178.929 L21.086,178.929 z" fill-opacity="0" stroke="#000000" stroke-width="2"/>
    </g>
    <g>
      <path d="M192.816,167.369 C186.741,167.369 181.816,162.444 181.816,156.369 C181.816,150.293 186.741,145.369 192.816,145.369 C198.891,145.369 203.816,150.293 203.816,156.369 C203.816,162.444 198.891,167.369 192.816,167.369 z" fill="#6D21C3"/>
      <path d="M192.816,167.369 C186.741,167.369 181.816,162.444 181.816,156.369 C181.816,150.293 186.741,145.369 192.816,145.369 C198.891,145.369 203.816,150.293 203.816,156.369 C203.816,162.444 198.891,167.369 192.816,167.369 z" fill-opacity="0" stroke="#000000" stroke-width="1"/>
    </g>
    <g>
      <path d="M21.086,99.355 L35.819,81.524 L188.82,81.524 L174.224,99.355 L21.086,99.355 z" fill="#F3A712"/>
      <path d="M21.086,99.355 L35.819,81.524 L188.82,81.524 L174.224,99.355 L21.086,99.355 z" fill-opacity="0" stroke="#000000" stroke-width="2"/>
    </g>
    <g>
      <path d="M21.086,139.142 L35.819,121.311 L188.82,121.311 L174.224,139.142 L21.086,139.142 z" fill="#F3A712"/>
      <path d="M21.086,139.142 L35.819,121.311 L188.82,121.311 L174.224,139.142 L21.086,139.142 z" fill-opacity="0" stroke="#000000" stroke-width="2"/>
    </g>
    <g>
      <path d="M21.086,218.716 L35.819,200.885 L188.82,200.885 L174.224,218.716 L21.086,218.716 z" fill="#F3A712"/>
      <path d="M21.086,218.716 L35.819,200.885 L188.82,200.885 L174.224,218.716 L21.086,218.716 z" fill-opacity="0" stroke="#000000" stroke-width="2"/>
    </g>
    <g>
      <path d="M233.46,98.162 L248.193,80.331 L401.194,80.331 L386.599,98.162 L233.46,98.162 z" fill="#067999"/>
      <path d="M233.46,98.162 L248.193,80.331 L401.194,80.331 L386.599,98.162 L233.46,98.162 z" fill-opacity="0" stroke="#000000" stroke-width="2"/>
    </g>
    <g>
      <path d="M233.46,137.949 L248.193,120.118 L401.194,120.118 L386.599,137.949 L233.46,137.949 z" fill="#067999"/>
      <path d="M233.46,137.949 L248.193,120.118 L401.194,120.118 L386.599,137.949 L233.46,137.949 z" fill-opacity="0" stroke="#000000" stroke-width="2"/>
    </g>
    <g>
      <path d="M233.46,177.736 L248.193,159.905 L401.194,159.905 L386.599,177.736 L233.46,177.736 z" fill="#067999"/>
      <path d="M233.46,177.736 L248.193,159.905 L401.194,159.905 L386.599,177.736 L233.46,177.736 z" fill-opacity="0" stroke="#000000" stroke-width="2"/>
    </g>
    <g>
      <path d="M233.46,218.716 L248.193,200.885 L401.194,200.885 L386.599,218.716 L233.46,218.716 z" fill="#067999"/>
      <path d="M233.46,218.716 L248.193,200.885 L401.194,200.885 L386.599,218.716 L233.46,218.716 z" fill-opacity="0" stroke="#000000" stroke-width="2"/>
    </g>
    <g>
      <path d="M387.696,234.134 L402.429,226.049 L402.429,63.719 L387.696,71.805 L387.696,234.134 z" fill="#B87333"/>
      <path d="M387.696,234.134 L402.429,226.049 L402.429,63.719 L387.696,71.805 L387.696,234.134 z" fill-opacity="0" stroke="#000000" stroke-width="2"/>
    </g>
    <g opacity="0.6">
      <path d="M196.751,242.884 L224.9,226.049 L224.939,55.919 L196.682,71.805 z" fill="#ECE9E9"/>
      <path d="M196.751,242.884 L224.9,226.049 L224.939,55.919 L196.682,71.805 z" fill-opacity="0" stroke="#000000" stroke-width="2"/>
    </g>
    <g>
      <path d="M367.931,127.813 C361.855,127.813 356.931,122.888 356.931,116.813 C356.931,110.738 361.855,105.813 367.931,105.813 C374.006,105.813 378.931,110.738 378.931,116.813 C378.931,122.888 374.006,127.813 367.931,127.813 z" fill="#6D21C3"/>
      <path d="M367.931,127.813 C361.855,127.813 356.931,122.888 356.931,116.813 C356.931,110.738 361.855,105.813 367.931,105.813 C374.006,105.813 378.931,110.738 378.931,116.813 C378.931,122.888 374.006,127.813 367.931,127.813 z" fill-opacity="0" stroke="#000000" stroke-width="1"/>
    </g>
    <g>
      <path d="M367.931,167.369 C361.855,167.369 356.931,162.444 356.931,156.369 C356.931,150.293 361.855,145.369 367.931,145.369 C374.006,145.369 378.931,150.293 378.931,156.369 C378.931,162.444 374.006,167.369 367.931,167.369 z" fill="#6D21C3"/>
      <path d="M367.931,167.369 C361.855,167.369 356.931,162.444 356.931,156.369 C356.931,150.293 361.855,145.369 367.931,145.369 C374.006,145.369 378.931,150.293 378.931,156.369 C378.931,162.444 374.006,167.369 367.931,167.369 z" fill-opacity="0" stroke="#000000" stroke-width="1"/>
    </g>
    <g>
      <path d="M281.759,127.813 C275.684,127.813 270.759,122.888 270.759,116.813 C270.759,110.738 275.684,105.813 281.759,105.813 C287.834,105.813 292.759,110.738 292.759,116.813 C292.759,122.888 287.834,127.813 281.759,127.813 z" fill="#6D21C3"/>
      <path d="M281.759,127.813 C275.684,127.813 270.759,122.888 270.759,116.813 C270.759,110.738 275.684,105.813 281.759,105.813 C287.834,105.813 292.759,110.738 292.759,116.813 C292.759,122.888 287.834,127.813 281.759,127.813 z" fill-opacity="0" stroke="#000000" stroke-width="1"/>
    </g>
    <g>
      <path d="M332.491,127.813 C326.416,127.813 321.491,122.888 321.491,116.813 C321.491,110.738 326.416,105.813 332.491,105.813 C338.567,105.813 343.491,110.738 343.491,116.813 C343.491,122.888 338.567,127.813 332.491,127.813 z" fill="#6D21C3"/>
      <path d="M332.491,127.813 C326.416,127.813 321.491,122.888 321.491,116.813 C321.491,110.738 326.416,105.813 332.491,105.813 C338.567,105.813 343.491,110.738 343.491,116.813 C343.491,122.888 338.567,127.813 332.491,127.813 z" fill-opacity="0" stroke="#000000" stroke-width="1"/>
    </g>
    <g>
      <path d="M287.493,167.369 C281.418,167.369 276.493,162.444 276.493,156.369 C276.493,150.293 281.418,145.369 287.493,145.369 C293.569,145.369 298.493,150.293 298.493,156.369 C298.493,162.444 293.569,167.369 287.493,167.369 z" fill="#6D21C3"/>
      <path d="M287.493,167.369 C281.418,167.369 276.493,162.444 276.493,156.369 C276.493,150.293 281.418,145.369 287.493,145.369 C293.569,145.369 298.493,150.293 298.493,156.369 C298.493,162.444 293.569,167.369 287.493,167.369 z" fill-opacity="0" stroke="#000000" stroke-width="1"/>
    </g>
    <g>
      <path d="M367.931,209.637 C361.855,209.637 356.931,204.712 356.931,198.637 C356.931,192.562 361.855,187.637 367.931,187.637 C374.006,187.637 378.931,192.562 378.931,198.637 C378.931,204.712 374.006,209.637 367.931,209.637 z" fill="#6D21C3"/>
      <path d="M367.931,209.637 C361.855,209.637 356.931,204.712 356.931,198.637 C356.931,192.562 361.855,187.637 367.931,187.637 C374.006,187.637 378.931,192.562 378.931,198.637 C378.931,204.712 374.006,209.637 367.931,209.637 z" fill-opacity="0" stroke="#000000" stroke-width="1"/>
    </g>
    <g>
      <path d="M332.491,167.369 C326.416,167.369 321.491,162.444 321.491,156.369 C321.491,150.293 326.416,145.369 332.491,145.369 C338.567,145.369 343.491,150.293 343.491,156.369 C343.491,162.444 338.567,167.369 332.491,167.369 z" fill="#6D21C3"/>
      <path d="M332.491,167.369 C326.416,167.369 321.491,162.444 321.491,156.369 C321.491,150.293 326.416,145.369 332.491,145.369 C338.567,145.369 343.491,150.293 343.491,156.369 C343.491,162.444 338.567,167.369 332.491,167.369 z" fill-opacity="0" stroke="#000000" stroke-width="1"/>
    </g>
    <g>
      <path d="M279.847,209.637 C273.772,209.637 268.847,204.712 268.847,198.637 C268.847,192.562 273.772,187.637 279.847,187.637 C285.922,187.637 290.847,192.562 290.847,198.637 C290.847,204.712 285.922,209.637 279.847,209.637 z" fill="#6D21C3"/>
      <path d="M279.847,209.637 C273.772,209.637 268.847,204.712 268.847,198.637 C268.847,192.562 273.772,187.637 279.847,187.637 C285.922,187.637 290.847,192.562 290.847,198.637 C290.847,204.712 285.922,209.637 279.847,209.637 z" fill-opacity="0" stroke="#000000" stroke-width="1"/>
    </g>
    <g>
      <path d="M332.491,209.637 C326.416,209.637 321.491,204.712 321.491,198.637 C321.491,192.562 326.416,187.637 332.491,187.637 C338.567,187.637 343.491,192.562 343.491,198.637 C343.491,204.712 338.567,209.637 332.491,209.637 z" fill="#6D21C3"/>
      <path d="M332.491,209.637 C326.416,209.637 321.491,204.712 321.491,198.637 C321.491,192.562 326.416,187.637 332.491,187.637 C338.567,187.637 343.491,192.562 343.491,198.637 C343.491,204.712 338.567,209.637 332.491,209.637 z" fill-opacity="0" stroke="#000000" stroke-width="1"/>
    </g>
    <g>
      <path d="M222.036,127.813 C215.96,127.813 211.036,122.888 211.036,116.813 C211.036,110.738 215.96,105.813 222.036,105.813 C228.111,105.813 233.036,110.738 233.036,116.813 C233.036,122.888 228.111,127.813 222.036,127.813 z" fill="#6D21C3"/>
      <path d="M222.036,127.813 C215.96,127.813 211.036,122.888 211.036,116.813 C211.036,110.738 215.96,105.813 222.036,105.813 C228.111,105.813 233.036,110.738 233.036,116.813 C233.036,122.888 228.111,127.813 222.036,127.813 z" fill-opacity="0" stroke="#000000" stroke-width="1"/>
    </g>
    <g>
      <path d="M242.265,167.369 C236.19,167.369 231.265,162.444 231.265,156.369 C231.265,150.293 236.19,145.369 242.265,145.369 C248.34,145.369 253.265,150.293 253.265,156.369 C253.265,162.444 248.34,167.369 242.265,167.369 z" fill="#6D21C3"/>
      <path d="M242.265,167.369 C236.19,167.369 231.265,162.444 231.265,156.369 C231.265,150.293 236.19,145.369 242.265,145.369 C248.34,145.369 253.265,150.293 253.265,156.369 C253.265,162.444 248.34,167.369 242.265,167.369 z" fill-opacity="0" stroke="#000000" stroke-width="1"/>
    </g>
    <g>
      <path d="M228.72,209.637 C222.645,209.637 217.72,204.712 217.72,198.637 C217.72,192.562 222.645,187.637 228.72,187.637 C234.795,187.637 239.72,192.562 239.72,198.637 C239.72,204.712 234.795,209.637 228.72,209.637 z" fill="#6D21C3"/>
      <path d="M228.72,209.637 C222.645,209.637 217.72,204.712 217.72,198.637 C217.72,192.562 222.645,187.637 228.72,187.637 C234.795,187.637 239.72,192.562 239.72,198.637 C239.72,204.712 234.795,209.637 228.72,209.637 z" fill-opacity="0" stroke="#000000" stroke-width="1"/>
    </g>
    <g>
      <path d="M150.076,209.637 C144.001,209.637 139.076,204.712 139.076,198.637 C139.076,192.562 144.001,187.637 150.076,187.637 C156.151,187.637 161.076,192.562 161.076,198.637 C161.076,204.712 156.151,209.637 150.076,209.637 z" fill="#6D21C3"/>
      <path d="M150.076,209.637 C144.001,209.637 139.076,204.712 139.076,198.637 C139.076,192.562 144.001,187.637 150.076,187.637 C156.151,187.637 161.076,192.562 161.076,198.637 C161.076,204.712 156.151,209.637 150.076,209.637 z" fill-opacity="0" stroke="#000000" stroke-width="1"/>
    </g>
    <g>
      <path d="M109.815,167.369 C103.74,167.369 98.815,162.444 98.815,156.369 C98.815,150.293 103.74,145.369 109.815,145.369 C115.89,145.369 120.815,150.293 120.815,156.369 C120.815,162.444 115.89,167.369 109.815,167.369 z" fill="#6D21C3"/>
      <path d="M109.815,167.369 C103.74,167.369 98.815,162.444 98.815,156.369 C98.815,150.293 103.74,145.369 109.815,145.369 C115.89,145.369 120.815,150.293 120.815,156.369 C120.815,162.444 115.89,167.369 109.815,167.369 z" fill-opacity="0" stroke="#000000" stroke-width="1"/>
    </g>
    <g>
      <path d="M138.928,127.813 C132.853,127.813 127.928,122.888 127.928,116.813 C127.928,110.738 132.853,105.813 138.928,105.813 C145.003,105.813 149.928,110.738 149.928,116.813 C149.928,122.888 145.003,127.813 138.928,127.813 z" fill="#6D21C3"/>
      <path d="M138.928,127.813 C132.853,127.813 127.928,122.888 127.928,116.813 C127.928,110.738 132.853,105.813 138.928,105.813 C145.003,105.813 149.928,110.738 149.928,116.813 C149.928,122.888 145.003,127.813 138.928,127.813 z" fill-opacity="0" stroke="#000000" stroke-width="1"/>
    </g>
    <g>
      <path d="M77.395,127.813 C71.32,127.813 66.395,122.888 66.395,116.813 C66.395,110.738 71.32,105.813 77.395,105.813 C83.47,105.813 88.395,110.738 88.395,116.813 C88.395,122.888 83.47,127.813 77.395,127.813 z" fill="#6D21C3"/>
      <path d="M77.395,127.813 C71.32,127.813 66.395,122.888 66.395,116.813 C66.395,110.738 71.32,105.813 77.395,105.813 C83.47,105.813 88.395,110.738 88.395,116.813 C88.395,122.888 83.47,127.813 77.395,127.813 z" fill-opacity="0" stroke="#000000" stroke-width="1"/>
    </g>
    <g>
      <path d="M61.114,209.637 C55.039,209.637 50.114,204.712 50.114,198.637 C50.114,192.562 55.039,187.637 61.114,187.637 C67.189,187.637 72.114,192.562 72.114,198.637 C72.114,204.712 67.189,209.637 61.114,209.637 z" fill="#6D21C3"/>
      <path d="M61.114,209.637 C55.039,209.637 50.114,204.712 50.114,198.637 C50.114,192.562 55.039,187.637 61.114,187.637 C67.189,187.637 72.114,192.562 72.114,198.637 C72.114,204.712 67.189,209.637 61.114,209.637 z" fill-opacity="0" stroke="#000000" stroke-width="1"/>
    </g>
    <g>
      <path d="M211.036,116.419 L197.113,116.315" fill-opacity="0" stroke="#000000" stroke-width="2"/>
      <path d="M197.14,112.715 L187.514,116.243 L197.086,119.915 z" fill="#000000" fill-opacity="1" stroke="#000000" stroke-width="2" stroke-opacity="1"/>
    </g>
    <g>
      <path d="M181.816,156.071 L167.894,155.967" fill-opacity="0" stroke="#000000" stroke-width="2"/>
      <path d="M167.921,152.367 L158.294,155.895 L167.867,159.567 z" fill="#000000" fill-opacity="1" stroke="#000000" stroke-width="2" stroke-opacity="1"/>
    </g>
    <g>
      <path d="M217.72,198.34 L203.798,198.235" fill-opacity="0" stroke="#000000" stroke-width="2"/>
      <path d="M203.825,194.635 L194.198,198.163 L203.771,201.835 z" fill="#000000" fill-opacity="1" stroke="#000000" stroke-width="2" stroke-opacity="1"/>
    </g>
    <path d="M26.752,67.865 L26.752,23.472 L189.811,23.472" fill-opacity="0" stroke="#000000" stroke-width="2"/>
    <path d="M210.811,44.472 C199.213,44.472 189.811,35.07 189.811,23.472 C189.811,11.874 199.213,2.472 210.811,2.472 C222.409,2.472 231.811,11.874 231.811,23.472 C231.811,35.07 222.409,44.472 210.811,44.472 z" fill-opacity="0" stroke="#000000" stroke-width="2"/>
    <path d="M231.811,23.472 L394.87,23.472 L394.87,67.865" fill-opacity="0" stroke="#000000" stroke-width="2"/>
    <path d="M41.827,244.002 L41.827,248.634 L40.866,248.634 L40.866,237.259 L44.741,237.259 Q46.514,237.259 47.542,238.166 Q48.569,239.072 48.569,240.658 Q48.569,242.259 47.581,243.13 Q46.593,244.002 44.718,244.002 z M41.827,243.189 L44.741,243.189 Q46.139,243.189 46.874,242.525 Q47.608,241.861 47.608,240.673 Q47.608,239.494 46.878,238.795 Q46.147,238.095 44.803,238.08 L41.827,238.08 z" fill="#000000"/>
    <path d="M49.882,244.283 Q49.882,243.064 50.354,242.087 Q50.827,241.111 51.69,240.568 Q52.553,240.025 53.647,240.025 Q55.335,240.025 56.382,241.209 Q57.428,242.392 57.428,244.345 L57.428,244.541 Q57.428,245.767 56.956,246.748 Q56.483,247.728 55.624,248.259 Q54.764,248.791 53.663,248.791 Q51.983,248.791 50.932,247.607 Q49.882,246.423 49.882,244.47 z M50.819,244.541 Q50.819,246.056 51.604,247.029 Q52.389,248.002 53.663,248.002 Q54.928,248.002 55.714,247.029 Q56.499,246.056 56.499,244.462 L56.499,244.283 Q56.499,243.314 56.139,242.509 Q55.78,241.705 55.132,241.263 Q54.483,240.822 53.647,240.822 Q52.397,240.822 51.608,241.802 Q50.819,242.783 50.819,244.369 z" fill="#000000"/>
    <path d="M64.421,246.486 Q64.421,245.791 63.862,245.369 Q63.303,244.947 62.178,244.709 Q61.053,244.47 60.432,244.162 Q59.811,243.853 59.511,243.408 Q59.21,242.962 59.21,242.33 Q59.21,241.33 60.046,240.677 Q60.882,240.025 62.186,240.025 Q63.6,240.025 64.456,240.724 Q65.311,241.423 65.311,242.548 L64.374,242.548 Q64.374,241.806 63.753,241.314 Q63.132,240.822 62.186,240.822 Q61.264,240.822 60.706,241.232 Q60.147,241.642 60.147,242.298 Q60.147,242.931 60.612,243.279 Q61.077,243.627 62.307,243.916 Q63.538,244.205 64.151,244.533 Q64.764,244.861 65.061,245.322 Q65.358,245.783 65.358,246.439 Q65.358,247.509 64.495,248.15 Q63.632,248.791 62.241,248.791 Q60.764,248.791 59.846,248.076 Q58.928,247.361 58.928,246.267 L59.866,246.267 Q59.921,247.087 60.557,247.545 Q61.194,248.002 62.241,248.002 Q63.218,248.002 63.819,247.572 Q64.421,247.142 64.421,246.486 z" fill="#000000"/>
    <path d="M68.507,248.634 L67.569,248.634 L67.569,240.181 L68.507,240.181 z M67.405,237.736 Q67.405,237.47 67.577,237.287 Q67.749,237.103 68.046,237.103 Q68.343,237.103 68.518,237.287 Q68.694,237.47 68.694,237.736 Q68.694,238.002 68.518,238.181 Q68.343,238.361 68.046,238.361 Q67.749,238.361 67.577,238.181 Q67.405,238.002 67.405,237.736 z" fill="#000000"/>
    <path d="M72.499,238.017 L72.499,240.181 L74.249,240.181 L74.249,240.947 L72.499,240.947 L72.499,246.58 Q72.499,247.283 72.753,247.627 Q73.007,247.97 73.6,247.97 Q73.835,247.97 74.358,247.892 L74.397,248.658 Q74.03,248.791 73.397,248.791 Q72.436,248.791 71.999,248.232 Q71.561,247.673 71.561,246.587 L71.561,240.947 L70.007,240.947 L70.007,240.181 L71.561,240.181 L71.561,238.017 z" fill="#000000"/>
    <path d="M77.233,248.634 L76.296,248.634 L76.296,240.181 L77.233,240.181 z M76.132,237.736 Q76.132,237.47 76.303,237.287 Q76.475,237.103 76.772,237.103 Q77.069,237.103 77.245,237.287 Q77.421,237.47 77.421,237.736 Q77.421,238.002 77.245,238.181 Q77.069,238.361 76.772,238.361 Q76.475,238.361 76.303,238.181 Q76.132,238.002 76.132,237.736 z" fill="#000000"/>
    <path d="M82.405,247.345 L84.975,240.181 L85.936,240.181 L82.78,248.634 L82.022,248.634 L78.85,240.181 L79.811,240.181 z" fill="#000000"/>
    <path d="M90.639,248.791 Q89.561,248.791 88.69,248.259 Q87.819,247.728 87.335,246.779 Q86.85,245.83 86.85,244.65 L86.85,244.314 Q86.85,243.095 87.323,242.119 Q87.796,241.142 88.639,240.584 Q89.483,240.025 90.468,240.025 Q92.007,240.025 92.909,241.076 Q93.811,242.127 93.811,243.947 L93.811,244.47 L87.78,244.47 L87.78,244.65 Q87.78,246.087 88.604,247.045 Q89.428,248.002 90.678,248.002 Q91.428,248.002 92.003,247.728 Q92.577,247.455 93.046,246.853 L93.632,247.298 Q92.6,248.791 90.639,248.791 z M90.468,240.822 Q89.413,240.822 88.69,241.595 Q87.968,242.369 87.811,243.673 L92.882,243.673 L92.882,243.572 Q92.843,242.353 92.186,241.587 Q91.53,240.822 90.468,240.822 z" fill="#000000"/>
    <path d="M102.796,248.791 Q101.718,248.791 100.846,248.259 Q99.975,247.728 99.491,246.779 Q99.007,245.83 99.007,244.65 L99.007,244.314 Q99.007,243.095 99.479,242.119 Q99.952,241.142 100.796,240.584 Q101.639,240.025 102.624,240.025 Q104.163,240.025 105.065,241.076 Q105.968,242.127 105.968,243.947 L105.968,244.47 L99.936,244.47 L99.936,244.65 Q99.936,246.087 100.761,247.045 Q101.585,248.002 102.835,248.002 Q103.585,248.002 104.159,247.728 Q104.733,247.455 105.202,246.853 L105.788,247.298 Q104.757,248.791 102.796,248.791 z M102.624,240.822 Q101.569,240.822 100.846,241.595 Q100.124,242.369 99.968,243.673 L105.038,243.673 L105.038,243.572 Q104.999,242.353 104.343,241.587 Q103.686,240.822 102.624,240.822 z" fill="#000000"/>
    <path d="M108.835,248.634 L107.897,248.634 L107.897,236.634 L108.835,236.634 z" fill="#000000"/>
    <path d="M114.647,248.791 Q113.569,248.791 112.698,248.259 Q111.827,247.728 111.343,246.779 Q110.858,245.83 110.858,244.65 L110.858,244.314 Q110.858,243.095 111.331,242.119 Q111.803,241.142 112.647,240.584 Q113.491,240.025 114.475,240.025 Q116.014,240.025 116.917,241.076 Q117.819,242.127 117.819,243.947 L117.819,244.47 L111.788,244.47 L111.788,244.65 Q111.788,246.087 112.612,247.045 Q113.436,248.002 114.686,248.002 Q115.436,248.002 116.011,247.728 Q116.585,247.455 117.053,246.853 L117.639,247.298 Q116.608,248.791 114.647,248.791 z M114.475,240.822 Q113.421,240.822 112.698,241.595 Q111.975,242.369 111.819,243.673 L116.889,243.673 L116.889,243.572 Q116.85,242.353 116.194,241.587 Q115.538,240.822 114.475,240.822 z" fill="#000000"/>
    <path d="M122.764,248.002 Q123.741,248.002 124.401,247.451 Q125.061,246.9 125.116,246.025 L126.014,246.025 Q125.975,246.798 125.53,247.435 Q125.085,248.072 124.346,248.431 Q123.608,248.791 122.764,248.791 Q121.1,248.791 120.128,247.634 Q119.155,246.478 119.155,244.525 L119.155,244.244 Q119.155,242.994 119.593,242.033 Q120.03,241.072 120.846,240.548 Q121.663,240.025 122.757,240.025 Q124.147,240.025 125.05,240.853 Q125.952,241.681 126.014,243.033 L125.116,243.033 Q125.053,242.041 124.401,241.431 Q123.749,240.822 122.757,240.822 Q121.491,240.822 120.792,241.736 Q120.093,242.65 120.093,244.298 L120.093,244.572 Q120.093,246.189 120.792,247.095 Q121.491,248.002 122.764,248.002 z" fill="#000000"/>
    <path d="M129.335,238.017 L129.335,240.181 L131.085,240.181 L131.085,240.947 L129.335,240.947 L129.335,246.58 Q129.335,247.283 129.589,247.627 Q129.843,247.97 130.436,247.97 Q130.671,247.97 131.194,247.892 L131.233,248.658 Q130.866,248.791 130.233,248.791 Q129.272,248.791 128.835,248.232 Q128.397,247.673 128.397,246.587 L128.397,240.947 L126.843,240.947 L126.843,240.181 L128.397,240.181 L128.397,238.017 z" fill="#000000"/>
    <path d="M136.928,240.978 Q136.632,240.923 136.296,240.923 Q135.421,240.923 134.815,241.412 Q134.21,241.9 133.952,242.83 L133.952,248.634 L133.022,248.634 L133.022,240.181 L133.936,240.181 L133.952,241.525 Q134.694,240.025 136.335,240.025 Q136.725,240.025 136.952,240.127 z" fill="#000000"/>
    <path d="M137.733,244.283 Q137.733,243.064 138.206,242.087 Q138.678,241.111 139.542,240.568 Q140.405,240.025 141.499,240.025 Q143.186,240.025 144.233,241.209 Q145.28,242.392 145.28,244.345 L145.28,244.541 Q145.28,245.767 144.807,246.748 Q144.335,247.728 143.475,248.259 Q142.616,248.791 141.514,248.791 Q139.835,248.791 138.784,247.607 Q137.733,246.423 137.733,244.47 z M138.671,244.541 Q138.671,246.056 139.456,247.029 Q140.241,248.002 141.514,248.002 Q142.78,248.002 143.565,247.029 Q144.35,246.056 144.35,244.462 L144.35,244.283 Q144.35,243.314 143.991,242.509 Q143.632,241.705 142.983,241.263 Q142.335,240.822 141.499,240.822 Q140.249,240.822 139.46,241.802 Q138.671,242.783 138.671,244.369 z" fill="#000000"/>
    <path d="M146.835,244.33 Q146.835,242.361 147.714,241.193 Q148.593,240.025 150.1,240.025 Q151.811,240.025 152.71,241.377 L152.71,236.634 L153.639,236.634 L153.639,248.634 L152.764,248.634 L152.725,247.509 Q151.827,248.791 150.085,248.791 Q148.624,248.791 147.729,247.615 Q146.835,246.439 146.835,244.439 z M147.78,244.494 Q147.78,246.111 148.428,247.045 Q149.077,247.978 150.257,247.978 Q151.983,247.978 152.71,246.455 L152.71,242.486 Q151.983,240.837 150.272,240.837 Q149.093,240.837 148.436,241.763 Q147.78,242.689 147.78,244.494 z" fill="#000000"/>
    <path d="M159.374,248.791 Q158.296,248.791 157.425,248.259 Q156.553,247.728 156.069,246.779 Q155.585,245.83 155.585,244.65 L155.585,244.314 Q155.585,243.095 156.057,242.119 Q156.53,241.142 157.374,240.584 Q158.218,240.025 159.202,240.025 Q160.741,240.025 161.643,241.076 Q162.546,242.127 162.546,243.947 L162.546,244.47 L156.514,244.47 L156.514,244.65 Q156.514,246.087 157.339,247.045 Q158.163,248.002 159.413,248.002 Q160.163,248.002 160.737,247.728 Q161.311,247.455 161.78,246.853 L162.366,247.298 Q161.335,248.791 159.374,248.791 z M159.202,240.822 Q158.147,240.822 157.425,241.595 Q156.702,242.369 156.546,243.673 L161.616,243.673 L161.616,243.572 Q161.577,242.353 160.921,241.587 Q160.264,240.822 159.202,240.822 z" fill="#000000"/>
    <path d="M263.095,248.634 L262.134,248.634 L255.595,238.9 L255.595,248.634 L254.627,248.634 L254.627,237.259 L255.595,237.259 L262.142,247.002 L262.142,237.259 L263.095,237.259 z" fill="#000000"/>
    <path d="M269.041,248.791 Q267.963,248.791 267.091,248.259 Q266.22,247.728 265.736,246.779 Q265.252,245.83 265.252,244.65 L265.252,244.314 Q265.252,243.095 265.724,242.119 Q266.197,241.142 267.041,240.584 Q267.884,240.025 268.869,240.025 Q270.408,240.025 271.31,241.076 Q272.213,242.127 272.213,243.947 L272.213,244.47 L266.181,244.47 L266.181,244.65 Q266.181,246.087 267.005,247.045 Q267.83,248.002 269.08,248.002 Q269.83,248.002 270.404,247.728 Q270.978,247.455 271.447,246.853 L272.033,247.298 Q271.002,248.791 269.041,248.791 z M268.869,240.822 Q267.814,240.822 267.091,241.595 Q266.369,242.369 266.213,243.673 L271.283,243.673 L271.283,243.572 Q271.244,242.353 270.588,241.587 Q269.931,240.822 268.869,240.822 z" fill="#000000"/>
    <path d="M273.658,244.33 Q273.658,242.345 274.537,241.185 Q275.416,240.025 276.923,240.025 Q278.65,240.025 279.548,241.4 L279.595,240.181 L280.47,240.181 L280.47,248.462 Q280.47,250.095 279.556,251.048 Q278.642,252.002 277.08,252.002 Q276.197,252.002 275.396,251.607 Q274.595,251.212 274.134,250.556 L274.658,249.994 Q275.65,251.212 277.017,251.212 Q278.189,251.212 278.845,250.521 Q279.502,249.83 279.525,248.603 L279.525,247.541 Q278.627,248.791 276.908,248.791 Q275.439,248.791 274.548,247.619 Q273.658,246.447 273.658,244.455 z M274.603,244.494 Q274.603,246.111 275.252,247.045 Q275.9,247.978 277.08,247.978 Q278.806,247.978 279.525,246.431 L279.525,242.502 Q279.197,241.689 278.58,241.263 Q277.963,240.837 277.095,240.837 Q275.916,240.837 275.259,241.763 Q274.603,242.689 274.603,244.494 z" fill="#000000"/>
    <path d="M288.244,248.634 Q288.103,248.236 288.064,247.455 Q287.572,248.095 286.81,248.443 Q286.048,248.791 285.197,248.791 Q283.978,248.791 283.224,248.111 Q282.47,247.431 282.47,246.392 Q282.47,245.158 283.498,244.439 Q284.525,243.72 286.361,243.72 L288.056,243.72 L288.056,242.759 Q288.056,241.853 287.498,241.334 Q286.939,240.814 285.869,240.814 Q284.892,240.814 284.252,241.314 Q283.611,241.814 283.611,242.517 L282.673,242.509 Q282.673,241.502 283.611,240.763 Q284.548,240.025 285.916,240.025 Q287.33,240.025 288.146,240.732 Q288.963,241.439 288.986,242.705 L288.986,246.705 Q288.986,247.931 289.244,248.541 L289.244,248.634 z M285.306,247.962 Q286.244,247.962 286.982,247.509 Q287.72,247.056 288.056,246.298 L288.056,244.439 L286.384,244.439 Q284.986,244.455 284.197,244.951 Q283.408,245.447 283.408,246.314 Q283.408,247.025 283.935,247.494 Q284.463,247.962 285.306,247.962 z" fill="#000000"/>
    <path d="M292.931,238.017 L292.931,240.181 L294.681,240.181 L294.681,240.947 L292.931,240.947 L292.931,246.58 Q292.931,247.283 293.185,247.627 Q293.439,247.97 294.033,247.97 Q294.267,247.97 294.791,247.892 L294.83,248.658 Q294.463,248.791 293.83,248.791 Q292.869,248.791 292.431,248.232 Q291.994,247.673 291.994,246.587 L291.994,240.947 L290.439,240.947 L290.439,240.181 L291.994,240.181 L291.994,238.017 z" fill="#000000"/>
    <path d="M297.666,248.634 L296.728,248.634 L296.728,240.181 L297.666,240.181 z M296.564,237.736 Q296.564,237.47 296.736,237.287 Q296.908,237.103 297.205,237.103 Q297.502,237.103 297.677,237.287 Q297.853,237.47 297.853,237.736 Q297.853,238.002 297.677,238.181 Q297.502,238.361 297.205,238.361 Q296.908,238.361 296.736,238.181 Q296.564,238.002 296.564,237.736 z" fill="#000000"/>
    <path d="M302.838,247.345 L305.408,240.181 L306.369,240.181 L303.213,248.634 L302.455,248.634 L299.283,240.181 L300.244,240.181 z" fill="#000000"/>
    <path d="M311.072,248.791 Q309.994,248.791 309.123,248.259 Q308.252,247.728 307.767,246.779 Q307.283,245.83 307.283,244.65 L307.283,244.314 Q307.283,243.095 307.755,242.119 Q308.228,241.142 309.072,240.584 Q309.916,240.025 310.9,240.025 Q312.439,240.025 313.341,241.076 Q314.244,242.127 314.244,243.947 L314.244,244.47 L308.213,244.47 L308.213,244.65 Q308.213,246.087 309.037,247.045 Q309.861,248.002 311.111,248.002 Q311.861,248.002 312.435,247.728 Q313.009,247.455 313.478,246.853 L314.064,247.298 Q313.033,248.791 311.072,248.791 z M310.9,240.822 Q309.845,240.822 309.123,241.595 Q308.4,242.369 308.244,243.673 L313.314,243.673 L313.314,243.572 Q313.275,242.353 312.619,241.587 Q311.963,240.822 310.9,240.822 z" fill="#000000"/>
    <path d="M323.228,248.791 Q322.15,248.791 321.279,248.259 Q320.408,247.728 319.923,246.779 Q319.439,245.83 319.439,244.65 L319.439,244.314 Q319.439,243.095 319.912,242.119 Q320.384,241.142 321.228,240.584 Q322.072,240.025 323.056,240.025 Q324.595,240.025 325.498,241.076 Q326.4,242.127 326.4,243.947 L326.4,244.47 L320.369,244.47 L320.369,244.65 Q320.369,246.087 321.193,247.045 Q322.017,248.002 323.267,248.002 Q324.017,248.002 324.591,247.728 Q325.166,247.455 325.634,246.853 L326.22,247.298 Q325.189,248.791 323.228,248.791 z M323.056,240.822 Q322.002,240.822 321.279,241.595 Q320.556,242.369 320.4,243.673 L325.47,243.673 L325.47,243.572 Q325.431,242.353 324.775,241.587 Q324.119,240.822 323.056,240.822 z" fill="#000000"/>
    <path d="M329.267,248.634 L328.33,248.634 L328.33,236.634 L329.267,236.634 z" fill="#000000"/>
    <path d="M335.08,248.791 Q334.002,248.791 333.13,248.259 Q332.259,247.728 331.775,246.779 Q331.291,245.83 331.291,244.65 L331.291,244.314 Q331.291,243.095 331.763,242.119 Q332.236,241.142 333.08,240.584 Q333.923,240.025 334.908,240.025 Q336.447,240.025 337.349,241.076 Q338.252,242.127 338.252,243.947 L338.252,244.47 L332.22,244.47 L332.22,244.65 Q332.22,246.087 333.045,247.045 Q333.869,248.002 335.119,248.002 Q335.869,248.002 336.443,247.728 Q337.017,247.455 337.486,246.853 L338.072,247.298 Q337.041,248.791 335.08,248.791 z M334.908,240.822 Q333.853,240.822 333.13,241.595 Q332.408,242.369 332.252,243.673 L337.322,243.673 L337.322,243.572 Q337.283,242.353 336.627,241.587 Q335.97,240.822 334.908,240.822 z" fill="#000000"/>
    <path d="M343.197,248.002 Q344.173,248.002 344.834,247.451 Q345.494,246.9 345.548,246.025 L346.447,246.025 Q346.408,246.798 345.963,247.435 Q345.517,248.072 344.779,248.431 Q344.041,248.791 343.197,248.791 Q341.533,248.791 340.56,247.634 Q339.588,246.478 339.588,244.525 L339.588,244.244 Q339.588,242.994 340.025,242.033 Q340.463,241.072 341.279,240.548 Q342.095,240.025 343.189,240.025 Q344.58,240.025 345.482,240.853 Q346.384,241.681 346.447,243.033 L345.548,243.033 Q345.486,242.041 344.834,241.431 Q344.181,240.822 343.189,240.822 Q341.923,240.822 341.224,241.736 Q340.525,242.65 340.525,244.298 L340.525,244.572 Q340.525,246.189 341.224,247.095 Q341.923,248.002 343.197,248.002 z" fill="#000000"/>
    <path d="M349.767,238.017 L349.767,240.181 L351.517,240.181 L351.517,240.947 L349.767,240.947 L349.767,246.58 Q349.767,247.283 350.021,247.627 Q350.275,247.97 350.869,247.97 Q351.103,247.97 351.627,247.892 L351.666,248.658 Q351.298,248.791 350.666,248.791 Q349.705,248.791 349.267,248.232 Q348.83,247.673 348.83,246.587 L348.83,240.947 L347.275,240.947 L347.275,240.181 L348.83,240.181 L348.83,238.017 z" fill="#000000"/>
    <path d="M357.361,240.978 Q357.064,240.923 356.728,240.923 Q355.853,240.923 355.248,241.412 Q354.642,241.9 354.384,242.83 L354.384,248.634 L353.455,248.634 L353.455,240.181 L354.369,240.181 L354.384,241.525 Q355.127,240.025 356.767,240.025 Q357.158,240.025 357.384,240.127 z" fill="#000000"/>
    <path d="M358.166,244.283 Q358.166,243.064 358.638,242.087 Q359.111,241.111 359.974,240.568 Q360.838,240.025 361.931,240.025 Q363.619,240.025 364.666,241.209 Q365.713,242.392 365.713,244.345 L365.713,244.541 Q365.713,245.767 365.24,246.748 Q364.767,247.728 363.908,248.259 Q363.048,248.791 361.947,248.791 Q360.267,248.791 359.216,247.607 Q358.166,246.423 358.166,244.47 z M359.103,244.541 Q359.103,246.056 359.888,247.029 Q360.673,248.002 361.947,248.002 Q363.213,248.002 363.998,247.029 Q364.783,246.056 364.783,244.462 L364.783,244.283 Q364.783,243.314 364.423,242.509 Q364.064,241.705 363.416,241.263 Q362.767,240.822 361.931,240.822 Q360.681,240.822 359.892,241.802 Q359.103,242.783 359.103,244.369 z" fill="#000000"/>
    <path d="M367.267,244.33 Q367.267,242.361 368.146,241.193 Q369.025,240.025 370.533,240.025 Q372.244,240.025 373.142,241.377 L373.142,236.634 L374.072,236.634 L374.072,248.634 L373.197,248.634 L373.158,247.509 Q372.259,248.791 370.517,248.791 Q369.056,248.791 368.162,247.615 Q367.267,246.439 367.267,244.439 z M368.213,244.494 Q368.213,246.111 368.861,247.045 Q369.509,247.978 370.689,247.978 Q372.416,247.978 373.142,246.455 L373.142,242.486 Q372.416,240.837 370.705,240.837 Q369.525,240.837 368.869,241.763 Q368.213,242.689 368.213,244.494 z" fill="#000000"/>
    <path d="M379.806,248.791 Q378.728,248.791 377.857,248.259 Q376.986,247.728 376.502,246.779 Q376.017,245.83 376.017,244.65 L376.017,244.314 Q376.017,243.095 376.49,242.119 Q376.963,241.142 377.806,240.584 Q378.65,240.025 379.634,240.025 Q381.173,240.025 382.076,241.076 Q382.978,242.127 382.978,243.947 L382.978,244.47 L376.947,244.47 L376.947,244.65 Q376.947,246.087 377.771,247.045 Q378.595,248.002 379.845,248.002 Q380.595,248.002 381.17,247.728 Q381.744,247.455 382.213,246.853 L382.798,247.298 Q381.767,248.791 379.806,248.791 z M379.634,240.822 Q378.58,240.822 377.857,241.595 Q377.134,242.369 376.978,243.673 L382.048,243.673 L382.048,243.572 Q382.009,242.353 381.353,241.587 Q380.697,240.822 379.634,240.822 z" fill="#000000"/>
    <path d="M186.22,255.106 Q186.22,254.456 185.764,254.077 Q185.307,253.698 184.093,253.357 Q182.88,253.016 182.321,252.613 Q181.526,252.044 181.526,251.12 Q181.526,250.223 182.265,249.662 Q183.003,249.101 184.153,249.101 Q184.931,249.101 185.546,249.401 Q186.161,249.702 186.5,250.239 Q186.838,250.776 186.838,251.437 L186.172,251.437 Q186.172,250.637 185.624,250.151 Q185.076,249.665 184.153,249.665 Q183.256,249.665 182.724,250.065 Q182.192,250.465 182.192,251.109 Q182.192,251.706 182.67,252.082 Q183.148,252.458 184.201,252.745 Q185.254,253.032 185.796,253.341 Q186.339,253.65 186.613,254.08 Q186.886,254.509 186.886,255.095 Q186.886,256.019 186.148,256.577 Q185.409,257.136 184.201,257.136 Q183.374,257.136 182.684,256.84 Q181.993,256.545 181.636,256.013 Q181.279,255.482 181.279,254.794 L181.94,254.794 Q181.94,255.621 182.557,256.099 Q183.175,256.577 184.201,256.577 Q185.114,256.577 185.667,256.174 Q186.22,255.772 186.22,255.106 z" fill="#000000"/>
    <path d="M190.41,257.136 Q189.669,257.136 189.07,256.771 Q188.471,256.405 188.138,255.753 Q187.805,255.1 187.805,254.289 L187.805,254.058 Q187.805,253.22 188.13,252.549 Q188.455,251.878 189.035,251.493 Q189.615,251.109 190.292,251.109 Q191.35,251.109 191.97,251.832 Q192.591,252.554 192.591,253.806 L192.591,254.166 L188.444,254.166 L188.444,254.289 Q188.444,255.277 189.011,255.935 Q189.577,256.593 190.437,256.593 Q190.952,256.593 191.347,256.405 Q191.742,256.217 192.064,255.804 L192.467,256.11 Q191.758,257.136 190.41,257.136 z M190.292,251.657 Q189.567,251.657 189.07,252.189 Q188.573,252.721 188.466,253.618 L191.951,253.618 L191.951,253.548 Q191.925,252.71 191.473,252.184 Q191.022,251.657 190.292,251.657 z" fill="#000000"/>
    <path d="M198.515,254.182 Q198.515,255.541 197.913,256.338 Q197.312,257.136 196.302,257.136 Q195.11,257.136 194.476,256.298 L194.476,259.263 L193.837,259.263 L193.837,251.217 L194.433,251.217 L194.465,252.039 Q195.093,251.109 196.286,251.109 Q197.328,251.109 197.921,251.899 Q198.515,252.689 198.515,254.09 z M197.87,254.069 Q197.87,252.957 197.414,252.313 Q196.957,251.668 196.141,251.668 Q195.55,251.668 195.126,251.953 Q194.701,252.237 194.476,252.78 L194.476,255.567 Q194.707,256.067 195.136,256.33 Q195.566,256.593 196.152,256.593 Q196.963,256.593 197.416,255.946 Q197.87,255.299 197.87,254.069 z" fill="#000000"/>
    <path d="M203.607,257.028 Q203.51,256.754 203.483,256.217 Q203.145,256.658 202.621,256.897 Q202.097,257.136 201.512,257.136 Q200.674,257.136 200.156,256.669 Q199.637,256.201 199.637,255.487 Q199.637,254.638 200.344,254.144 Q201.05,253.65 202.312,253.65 L203.478,253.65 L203.478,252.989 Q203.478,252.366 203.094,252.009 Q202.71,251.652 201.974,251.652 Q201.302,251.652 200.862,251.996 Q200.422,252.339 200.422,252.823 L199.777,252.817 Q199.777,252.125 200.422,251.617 Q201.066,251.109 202.006,251.109 Q202.978,251.109 203.54,251.596 Q204.101,252.082 204.117,252.952 L204.117,255.702 Q204.117,256.545 204.294,256.964 L204.294,257.028 z M201.587,256.566 Q202.232,256.566 202.739,256.255 Q203.247,255.943 203.478,255.422 L203.478,254.144 L202.328,254.144 Q201.367,254.155 200.824,254.496 Q200.282,254.837 200.282,255.433 Q200.282,255.922 200.645,256.244 Q201.007,256.566 201.587,256.566 z" fill="#000000"/>
    <path d="M208.516,251.765 Q208.312,251.727 208.081,251.727 Q207.479,251.727 207.063,252.063 Q206.647,252.398 206.469,253.038 L206.469,257.028 L205.83,257.028 L205.83,251.217 L206.459,251.217 L206.469,252.141 Q206.98,251.109 208.108,251.109 Q208.376,251.109 208.532,251.179 z" fill="#000000"/>
    <path d="M212.985,257.028 Q212.888,256.754 212.861,256.217 Q212.523,256.658 211.999,256.897 Q211.475,257.136 210.89,257.136 Q210.052,257.136 209.534,256.669 Q209.015,256.201 209.015,255.487 Q209.015,254.638 209.722,254.144 Q210.428,253.65 211.69,253.65 L212.856,253.65 L212.856,252.989 Q212.856,252.366 212.472,252.009 Q212.088,251.652 211.352,251.652 Q210.68,251.652 210.24,251.996 Q209.8,252.339 209.8,252.823 L209.155,252.817 Q209.155,252.125 209.8,251.617 Q210.444,251.109 211.384,251.109 Q212.356,251.109 212.917,251.596 Q213.479,252.082 213.495,252.952 L213.495,255.702 Q213.495,256.545 213.672,256.964 L213.672,257.028 z M210.965,256.566 Q211.61,256.566 212.117,256.255 Q212.625,255.943 212.856,255.422 L212.856,254.144 L211.706,254.144 Q210.745,254.155 210.202,254.496 Q209.66,254.837 209.66,255.433 Q209.66,255.922 210.022,256.244 Q210.385,256.566 210.965,256.566 z" fill="#000000"/>
    <path d="M216.207,249.729 L216.207,251.217 L217.41,251.217 L217.41,251.743 L216.207,251.743 L216.207,255.616 Q216.207,256.099 216.382,256.336 Q216.556,256.572 216.965,256.572 Q217.126,256.572 217.486,256.518 L217.512,257.044 Q217.26,257.136 216.825,257.136 Q216.164,257.136 215.863,256.752 Q215.563,256.368 215.563,255.621 L215.563,251.743 L214.494,251.743 L214.494,251.217 L215.563,251.217 L215.563,249.729 z" fill="#000000"/>
    <path d="M218.28,254.037 Q218.28,253.199 218.605,252.527 Q218.93,251.856 219.524,251.483 Q220.117,251.109 220.869,251.109 Q222.03,251.109 222.749,251.923 Q223.469,252.737 223.469,254.08 L223.469,254.214 Q223.469,255.057 223.144,255.731 Q222.819,256.405 222.228,256.771 Q221.637,257.136 220.88,257.136 Q219.725,257.136 219.003,256.322 Q218.28,255.508 218.28,254.166 z M218.925,254.214 Q218.925,255.256 219.465,255.925 Q220.005,256.593 220.88,256.593 Q221.75,256.593 222.29,255.925 Q222.83,255.256 222.83,254.16 L222.83,254.037 Q222.83,253.371 222.583,252.817 Q222.336,252.264 221.89,251.961 Q221.444,251.657 220.869,251.657 Q220.01,251.657 219.467,252.331 Q218.925,253.005 218.925,254.096 z" fill="#000000"/>
    <path d="M227.481,251.765 Q227.277,251.727 227.046,251.727 Q226.445,251.727 226.028,252.063 Q225.612,252.398 225.435,253.038 L225.435,257.028 L224.796,257.028 L224.796,251.217 L225.424,251.217 L225.435,252.141 Q225.945,251.109 227.073,251.109 Q227.342,251.109 227.497,251.179 z" fill="#000000"/>
    <path d="M232.503,252.764 Q232.036,252.2 231.824,251.757 Q231.612,251.314 231.612,250.878 Q231.612,250.057 232.1,249.579 Q232.589,249.101 233.411,249.101 Q234.157,249.101 234.619,249.533 Q235.081,249.965 235.081,250.631 Q235.081,251.405 234.19,252.151 L233.33,252.817 L235.479,255.32 Q235.967,254.531 235.967,253.532 L236.564,253.532 Q236.564,254.864 235.876,255.782 L236.945,257.028 L236.172,257.028 L235.495,256.244 Q235.071,256.663 234.515,256.899 Q233.959,257.136 233.341,257.136 Q232.224,257.136 231.569,256.564 Q230.913,255.992 230.913,255.036 Q230.913,254.466 231.249,253.959 Q231.585,253.451 232.428,252.817 z M233.341,256.593 Q233.83,256.593 234.289,256.387 Q234.748,256.18 235.113,255.798 L232.927,253.263 L232.852,253.183 L232.605,253.371 Q231.552,254.23 231.552,255.036 Q231.552,255.739 232.036,256.166 Q232.519,256.593 233.341,256.593 z M232.256,250.857 Q232.256,251.512 232.981,252.404 L233.685,251.867 Q234.029,251.62 234.249,251.324 Q234.469,251.029 234.469,250.631 Q234.469,250.212 234.179,249.93 Q233.889,249.648 233.405,249.648 Q232.879,249.648 232.568,249.987 Q232.256,250.325 232.256,250.857 z" fill="#000000"/>
    <path d="M183.895,270.136 Q183.154,270.136 182.555,269.771 Q181.956,269.405 181.623,268.753 Q181.29,268.1 181.29,267.289 L181.29,267.058 Q181.29,266.22 181.615,265.549 Q181.94,264.878 182.52,264.493 Q183.1,264.109 183.777,264.109 Q184.835,264.109 185.455,264.832 Q186.075,265.554 186.075,266.806 L186.075,267.166 L181.929,267.166 L181.929,267.289 Q181.929,268.277 182.496,268.935 Q183.062,269.593 183.922,269.593 Q184.437,269.593 184.832,269.405 Q185.227,269.217 185.549,268.804 L185.952,269.11 Q185.243,270.136 183.895,270.136 z M183.777,264.657 Q183.051,264.657 182.555,265.189 Q182.058,265.721 181.95,266.618 L185.436,266.618 L185.436,266.548 Q185.409,265.71 184.958,265.184 Q184.507,264.657 183.777,264.657 z" fill="#000000"/>
    <path d="M188.047,270.028 L187.402,270.028 L187.402,261.778 L188.047,261.778 z" fill="#000000"/>
    <path d="M192.043,270.136 Q191.301,270.136 190.703,269.771 Q190.104,269.405 189.771,268.753 Q189.438,268.1 189.438,267.289 L189.438,267.058 Q189.438,266.22 189.763,265.549 Q190.088,264.878 190.668,264.493 Q191.248,264.109 191.925,264.109 Q192.983,264.109 193.603,264.832 Q194.223,265.554 194.223,266.806 L194.223,267.166 L190.077,267.166 L190.077,267.289 Q190.077,268.277 190.644,268.935 Q191.21,269.593 192.07,269.593 Q192.585,269.593 192.98,269.405 Q193.375,269.217 193.697,268.804 L194.1,269.11 Q193.391,270.136 192.043,270.136 z M191.925,264.657 Q191.199,264.657 190.703,265.189 Q190.206,265.721 190.098,266.618 L193.584,266.618 L193.584,266.548 Q193.557,265.71 193.106,265.184 Q192.655,264.657 191.925,264.657 z" fill="#000000"/>
    <path d="M197.623,269.593 Q198.295,269.593 198.749,269.215 Q199.202,268.836 199.24,268.234 L199.858,268.234 Q199.831,268.766 199.525,269.204 Q199.218,269.642 198.711,269.889 Q198.203,270.136 197.623,270.136 Q196.479,270.136 195.811,269.341 Q195.142,268.546 195.142,267.203 L195.142,267.01 Q195.142,266.15 195.443,265.49 Q195.743,264.829 196.305,264.469 Q196.866,264.109 197.618,264.109 Q198.574,264.109 199.194,264.679 Q199.815,265.248 199.858,266.177 L199.24,266.177 Q199.197,265.495 198.749,265.076 Q198.3,264.657 197.618,264.657 Q196.748,264.657 196.267,265.286 Q195.786,265.914 195.786,267.047 L195.786,267.235 Q195.786,268.347 196.267,268.97 Q196.748,269.593 197.623,269.593 z" fill="#000000"/>
    <path d="M202.14,262.729 L202.14,264.217 L203.343,264.217 L203.343,264.743 L202.14,264.743 L202.14,268.616 Q202.14,269.099 202.315,269.336 Q202.489,269.572 202.898,269.572 Q203.059,269.572 203.419,269.518 L203.446,270.044 Q203.193,270.136 202.758,270.136 Q202.097,270.136 201.797,269.752 Q201.496,269.368 201.496,268.621 L201.496,264.743 L200.427,264.743 L200.427,264.217 L201.496,264.217 L201.496,262.729 z" fill="#000000"/>
    <path d="M207.361,264.765 Q207.157,264.727 206.926,264.727 Q206.324,264.727 205.908,265.063 Q205.492,265.398 205.315,266.038 L205.315,270.028 L204.676,270.028 L204.676,264.217 L205.304,264.217 L205.315,265.141 Q205.825,264.109 206.953,264.109 Q207.221,264.109 207.377,264.179 z" fill="#000000"/>
    <path d="M207.914,267.037 Q207.914,266.199 208.239,265.527 Q208.564,264.856 209.158,264.483 Q209.751,264.109 210.503,264.109 Q211.663,264.109 212.383,264.923 Q213.103,265.737 213.103,267.08 L213.103,267.214 Q213.103,268.057 212.778,268.731 Q212.453,269.405 211.862,269.771 Q211.271,270.136 210.514,270.136 Q209.359,270.136 208.637,269.322 Q207.914,268.508 207.914,267.166 z M208.559,267.214 Q208.559,268.256 209.099,268.925 Q209.638,269.593 210.514,269.593 Q211.384,269.593 211.924,268.925 Q212.464,268.256 212.464,267.16 L212.464,267.037 Q212.464,266.371 212.217,265.817 Q211.969,265.264 211.524,264.961 Q211.078,264.657 210.503,264.657 Q209.644,264.657 209.101,265.331 Q208.559,266.005 208.559,267.096 z" fill="#000000"/>
    <path d="M215.149,270.028 L214.505,270.028 L214.505,261.778 L215.149,261.778 z" fill="#000000"/>
    <path d="M218.737,269.105 L220.434,264.217 L221.127,264.217 L218.646,271.017 L218.517,271.317 Q218.039,272.376 217.04,272.376 Q216.809,272.376 216.546,272.3 L216.54,271.769 L216.873,271.801 Q217.346,271.801 217.639,271.567 Q217.931,271.334 218.135,270.764 L218.42,269.98 L216.229,264.217 L216.932,264.217 z" fill="#000000"/>
    <path d="M223.12,262.729 L223.12,264.217 L224.323,264.217 L224.323,264.743 L223.12,264.743 L223.12,268.616 Q223.12,269.099 223.294,269.336 Q223.469,269.572 223.877,269.572 Q224.038,269.572 224.398,269.518 L224.425,270.044 Q224.173,270.136 223.738,270.136 Q223.077,270.136 222.776,269.752 Q222.475,269.368 222.475,268.621 L222.475,264.743 L221.406,264.743 L221.406,264.217 L222.475,264.217 L222.475,262.729 z" fill="#000000"/>
    <path d="M227.905,270.136 Q227.164,270.136 226.565,269.771 Q225.967,269.405 225.634,268.753 Q225.301,268.1 225.301,267.289 L225.301,267.058 Q225.301,266.22 225.625,265.549 Q225.95,264.878 226.53,264.493 Q227.111,264.109 227.787,264.109 Q228.845,264.109 229.466,264.832 Q230.086,265.554 230.086,266.806 L230.086,267.166 L225.94,267.166 L225.94,267.289 Q225.94,268.277 226.506,268.935 Q227.073,269.593 227.932,269.593 Q228.448,269.593 228.843,269.405 Q229.238,269.217 229.56,268.804 L229.963,269.11 Q229.254,270.136 227.905,270.136 z M227.787,264.657 Q227.062,264.657 226.565,265.189 Q226.069,265.721 225.961,266.618 L229.447,266.618 L229.447,266.548 Q229.42,265.71 228.969,265.184 Q228.518,264.657 227.787,264.657 z" fill="#000000"/>
    <path d="M6.958,147.06 L9.778,147.06 L9.778,149.099 L6.958,149.099 L6.958,152.286 L4.81,152.286 L4.81,149.099 L1.982,149.099 L1.982,147.06 L4.81,147.06 L4.81,144.005 L6.958,144.005 z" fill="#000000"/>
    <path d="M419.51,148.773 L412.768,148.773 L412.768,146.929 L419.51,146.929 z" fill="#202124"/>
    <path d="M217.279,119.228 L221.011,119.228 L221.011,120.64 L215.521,120.64 L215.521,112.109 L217.279,112.109 z" fill="#F7F7F2"/>
    <path d="M223.695,120.64 L221.996,120.64 L221.996,114.3 L223.695,114.3 z M221.896,112.66 Q221.896,112.279 222.151,112.033 Q222.406,111.787 222.845,111.787 Q223.279,111.787 223.537,112.033 Q223.795,112.279 223.795,112.66 Q223.795,113.046 223.534,113.293 Q223.273,113.539 222.845,113.539 Q222.418,113.539 222.157,113.293 Q221.896,113.046 221.896,112.66 z" fill="#F7F7F2"/>
    <path d="M227.489,110.944 L229.075,110.944 L229.075,112.091 L227.489,112.091 L227.489,113.884 L226.28,113.884 L226.28,112.091 L224.69,112.091 L224.69,110.944 L226.28,110.944 L226.28,109.226 L227.489,109.226 z" fill="#F7F7F2"/>
    <g>
      <path d="M196.682,23.472 L213.139,23.472" fill-opacity="0" stroke="#000000" stroke-width="2"/>
      <path d="M213.139,27.072 L222.739,23.472 L213.139,19.872 z" fill="#000000" fill-opacity="1" stroke="#000000" stroke-width="2" stroke-opacity="1"/>
    </g>
    <g>
      <path d="M308.03,23.472 L303.072,23.472" fill-opacity="0" stroke="#000000" stroke-width="2"/>
      <path d="M303.072,19.872 L293.472,23.472 L303.072,27.072 z" fill="#000000" fill-opacity="1" stroke="#000000" stroke-width="2" stroke-opacity="1"/>
    </g>
    <g>
      <path d="M111.911,23.472 L106.953,23.472" fill-opacity="0" stroke="#000000" stroke-width="2"/>
      <path d="M106.953,19.872 L97.353,23.472 L106.953,27.072 z" fill="#000000" fill-opacity="1" stroke="#000000" stroke-width="2" stroke-opacity="1"/>
    </g>
    <path d="M103.437,15.204 Q102.042,15.204 101.166,14.348 Q100.29,13.493 100.29,12.069 L100.29,11.905 Q100.29,10.95 100.659,10.197 Q101.028,9.444 101.705,9.037 Q102.382,8.629 103.249,8.629 Q104.55,8.629 105.297,9.45 Q106.044,10.27 106.044,11.776 L106.044,12.467 L102.007,12.467 Q102.089,13.088 102.502,13.463 Q102.915,13.838 103.548,13.838 Q104.526,13.838 105.077,13.129 L105.909,14.061 Q105.528,14.6 104.878,14.902 Q104.228,15.204 103.437,15.204 z M103.243,10.001 Q102.739,10.001 102.426,10.34 Q102.112,10.68 102.024,11.313 L104.38,11.313 L104.38,11.178 Q104.368,10.616 104.075,10.308 Q103.782,10.001 103.243,10.001 z" fill="#000000"/>
    <path d="M108.505,7.744 L106.031,7.744 L106.031,6.72 L108.505,6.72 z" fill="#000000"/>
    <path d="M298.135,15.204 Q296.74,15.204 295.864,14.348 Q294.988,13.493 294.988,12.069 L294.988,11.905 Q294.988,10.95 295.357,10.197 Q295.727,9.444 296.403,9.037 Q297.08,8.629 297.947,8.629 Q299.248,8.629 299.995,9.45 Q300.742,10.27 300.742,11.776 L300.742,12.467 L296.705,12.467 Q296.787,13.088 297.2,13.463 Q297.613,13.838 298.246,13.838 Q299.225,13.838 299.775,13.129 L300.607,14.061 Q300.227,14.6 299.576,14.902 Q298.926,15.204 298.135,15.204 z M297.941,10.001 Q297.437,10.001 297.124,10.34 Q296.811,10.68 296.723,11.313 L299.078,11.313 L299.078,11.178 Q299.066,10.616 298.773,10.308 Q298.48,10.001 297.941,10.001 z" fill="#000000"/>
    <path d="M303.204,7.744 L300.729,7.744 L300.729,6.72 L303.204,6.72 z" fill="#000000"/>
  </g>
</svg>
